<svg xmlns="http://www.w3.org/2000/svg" width="200" height="200" class="icon" p-id="1452" t="1617701964745" version="1.1" viewBox="0 0 1024 1024"><path d="M514.79 911.97c-110.63 1.73-210.48-47.79-283.1-114.84-72.61-68.33-118.01-154.18-119.68-254.74 0.64-48.92 11.44-102.82 36.45-147.17 24.26-45.08 62.71-80.62 101.12-109.8 38.57-29.35 77.12-52.34 105.57-76.28 29.57-23.56 49.04-48.08 74.93-71.53 24.21-22.11 63.53-32.01 116.81-21.2 52.48 10.05 118.92 40.8 178.69 82.51 59.98 41.64 113.3 94.25 144.47 146.65C902.46 398.59 912.72 451.4 915 508.1c-2.72 221.99-177.93 404.42-400.21 403.87z m314.45-407.75c-4.32-46.83-18.22-91.76-44.66-134.01-25.94-42.03-64.43-81.38-106.49-111.9-42.02-30.58-87.62-52.34-126.85-60.74-39.64-8.76-72.91-4.15-99.75 9.81-27.57 14.5-50 33.91-75.71 55.05-25.19 21.35-53.66 44.43-81.13 71.36-56.76 51.54-102.77 125.8-103.48 206.5-1.61 79.93 34.74 150.85 93.54 205.43 58.86 53.97 140.16 91.6 229.99 90.82 179.01-0.39 326.11-146.65 314.54-332.32zM514.28 773.63c-72.24 0.77-137.89-28.1-185.15-71.24-47.24-43.46-76.09-101.2-74.42-165.37-0.35-65.53 36.45-122.13 76.68-168.42 41.63-46.13 86.68-81.95 135.02-102.16 49.48-19.12 115.79-3.68 178.06 43.59 62.43 46.66 109.06 118.17 116.75 193.4 15.39 151.17-103.15 269.16-246.94 270.2z m184.23-269.09c-5.99-56.9-41.91-110.85-85.15-144.48-43.47-34.1-94.25-47.88-135.2-35.39-41.44 12.46-77.63 40.82-108.5 77.04-30.08 36.45-54.84 80.77-54.83 130.65-1.87 97.46 88.17 180.36 198.45 179.63 109.73-1.45 199.06-92.11 185.23-207.45z m-186.08 153.9c-79.29 1.44-143.85-57.81-143.61-129.38-0.32-36.31 15.51-69.39 37.05-96.3 21.93-26.73 49.57-47.29 82.03-54.53 63.32-16.08 145.13 45.98 155.86 129.55 10.48 82.78-52.42 148.95-131.33 150.66z m76.7-147.65c-6.49-50.23-53.38-86.89-93.63-78.52-39.94 8.22-72.65 47.92-72.91 91.82 0.46 44.01 39.59 79.73 87.57 78.44 47.79-1.39 85.27-41.86 78.97-91.74z" p-id="1453"/></svg>