<svg id="Layer_3" enable-background="new 0 0 64 64" height="512" viewBox="0 0 64 64" width="512" xmlns="http://www.w3.org/2000/svg"><g><path d="m3 1h-2v61c0 .553.448 1 1 1h61v-2h-60z"/><path d="m7 45h6v2h-6z"/><path d="m7 25h6v2h-6z"/><path d="m7 5h6v2h-6z"/><path d="m63 5h-18.382l-1.724-3.447-1.789.895 1.277 2.552h-9.328c-.349-1.117-.717-2.23-1.112-3.336l-1.884.672c.315.883.602 1.773.888 2.664h-7.788c-.342-.557-.696-1.108-1.06-1.654l-1.267-1.9-1.664 1.109 1.267 1.9c.12.18.232.364.349.545h-3.783v2h5.017c3.262 5.569 5.423 11.661 6.392 18h-11.409v2h11.677c.213 1.898.323 3.815.323 5.744v.256c0 4.505 1.515 8.653 4.038 12h-16.038v2h17.741c3.631 3.698 8.679 6 14.259 6h14v-2h-14c-4.273 0-8.198-1.503-11.289-4h25.289v-2h-27.378c-2.863-3.189-4.622-7.388-4.622-12v-.256c0-1.928-.106-3.845-.311-5.744h4.22c.057 1.286.091 2.574.091 3.866v3.134c0 4.963 4.038 9 9 9h19v-2h-19c-3.86 0-7-3.141-7-7v-3.134c0-1.292-.031-2.58-.088-3.866h4.448l-1.598 2.512c-.498.783-.762 1.687-.762 2.616 0 2.686 2.186 4.872 4.873 4.872h19.127v-2h-19.127c-1.584 0-2.873-1.288-2.873-2.872 0-.548.155-1.081.449-1.542l2.282-3.586h19.269v-2h-17.996l.468-.735c1.654-2.6 2.528-5.602 2.528-8.683 0-2.498-.59-4.999-1.707-7.232l-.675-1.35h17.382zm-32.565 20c-.928-6.315-2.994-12.399-6.111-18h7.233c1.725 5.875 2.803 11.896 3.224 18zm14.069-15.756c.979 1.957 1.496 4.15 1.496 6.338 0 2.7-.766 5.331-2.216 7.608l-1.151 1.81h-5.849c-.411-6.1-1.464-12.12-3.147-18h9.746z"/></g></svg>