<svg xmlns="http://www.w3.org/2000/svg" width="200" height="200" class="icon" p-id="6456" t="1617182708702" version="1.1" viewBox="0 0 1024 1024"><path d="M582.69905013 107.71347886v186.46874477a94.26540064 94.26540064 0 0 0 88.90405556 94.08865163l5.3613451 0.14729014H865.4952507V761.67969266a141.39810029 141.39810029 0 0 1-141.39810028 141.39810028H299.90284958a141.39810029 141.39810029 0 0 1-141.39810028-141.39810028V249.11157915a141.39810029 141.39810029 0 0 1 141.39810028-141.39810029h282.79620055z m91.64364376 543.88190068H349.65730611a43.86286855 43.86286855 0 0 0-4.21248552 87.51953204l4.21248552 0.20620647h324.68538778a43.86286855 43.86286855 0 1 0 0-87.72573851z m0-175.45147562H349.65730611a43.86286855 43.86286855 0 0 0-4.21248552 87.54898949l4.21248552 0.17674763h324.68538778a43.86286855 43.86286855 0 1 0 0-87.72573712z m23.21285525-360.56515571c9.72111939 0 19.08874354 3.82953142 26.04081587 10.66377248l63.12836112 62.15624916 63.09890225 62.12679031a36.29217952 36.29217952 0 0 1-25.45165804 62.12679031H704.65491163a44.18690634 44.18690634 0 0 1-44.18690633-44.18690634v-115.7696946c0-20.50272455 16.61427678-37.11700133 37.11700131-37.11700132z" p-id="6457"/></svg>