<?xml version="1.0" encoding="iso-8859-1"?>
<svg version="1.1" id="Layer_1" xmlns="http://www.w3.org/2000/svg" xmlns:xlink="http://www.w3.org/1999/xlink" x="0px" y="0px" viewBox="0 0 512.001 512.001" style="enable-background:new 0 0 512.001 512.001;" xml:space="preserve">
	<g>
		<path d="M144.092,257.218H91.01c-9.425,0-17.067,7.641-17.067,17.067v53.082c0,9.425,7.641,17.067,17.067,17.067h53.082
				c9.425,0,17.067-7.641,17.067-17.067v-53.082C161.159,264.859,153.518,257.218,144.092,257.218z M127.026,310.301h-18.948
				v-18.948h18.948V310.301z" />
		<path d="M483.954,70.052l-110.403,92.775v-79.71c0-14.465-16.957-22.386-28.046-13.065L211.849,182.368l-2.38-25.153
				c9.081-0.389,16.328-7.853,16.328-17.029v-57.07c0-9.425-7.641-17.067-17.067-17.067H26.372c-9.425,0-17.067,7.641-17.067,17.067
				v57.069c0,9.176,7.249,16.641,16.329,17.029L0.077,427.297c-0.947,10.015,6.939,18.674,16.992,18.674
				c27.531,0,454.076,0,477.866,0c9.425,0,17.067-7.641,17.067-17.067V83.117C512,68.652,495.045,60.731,483.954,70.052z
				 M43.439,100.183h148.224v22.935h-0.95H44.39h-0.951V100.183z M35.826,411.838L35.826,411.838l24.092-254.586h115.268
				l24.092,254.586H35.826z M339.417,411.838H235.102V207.412l104.316-87.661C339.417,131.8,339.417,399.694,339.417,411.838z
				 M477.867,411.838H373.55V207.412l104.317-87.661V411.838z" />
		<path d="M276.464,317.893h21.588c9.425,0,17.067-7.641,17.067-17.067c0-9.426-7.64-17.067-17.067-17.067h-21.588
				c-9.425,0-17.067,7.641-17.067,17.067C259.398,310.252,267.039,317.893,276.464,317.893z" />
		<path d="M415.925,317.893h21.588c9.425,0,17.067-7.641,17.067-17.067c0-9.425-7.641-17.067-17.067-17.067h-21.588
				c-9.425,0-17.067,7.641-17.067,17.067C398.858,310.252,406.5,317.893,415.925,317.893z" />
	</g>
</svg>