<svg id="Capa_1" enable-background="new 0 0 512 512" height="512" viewBox="0 0 512 512" width="512" xmlns="http://www.w3.org/2000/svg">
    <g>
        <circle cx="256" cy="125" r="15" />
        <path d="m156 15c0-8.284-6.716-15-15-15h-30c-8.284 0-15 6.716-15 15v70.372l60-48z" />
        <g>
            <g>
                <path d="m221 250v63.453c8.999-3.633 20.398-6.453 34.921-6.453 14.609 0 26.056 2.856 35.079 6.522v-63.522z" />
                <path d="m190.461 324.514c.176.117.356.237.539.358v-89.872c0-8.284 6.716-15 15-15h100c8.284 0 15 6.716 15 15v89.757c.125-.083.251-.167.373-.247 9.869-6.551 26.38-17.509 55.02-17.509 20.326 0 34.538 5.515 44.607 11.057v-151.849l25.63 20.504c2.766 2.213 6.074 3.288 9.36 3.288 4.4 0 8.761-1.927 11.723-5.63 5.175-6.469 4.127-15.909-2.343-21.083l-200-160c-5.479-4.383-13.262-4.383-18.74 0l-200 160c-6.47 5.175-7.518 14.614-2.343 21.083 5.175 6.468 14.615 7.518 21.083 2.342l25.63-20.504v151.78c10.058-5.521 24.227-10.989 44.452-10.989 28.638 0 45.146 10.963 55.009 17.514zm65.539-244.514c24.813 0 45 20.187 45 45s-20.187 45-45 45-45-20.187-45-45 20.187-45 45-45z" />
            </g>
            <path d="m497 337c-19.598 0-30.047 6.931-38.442 12.5-6.81 4.516-11.308 7.5-21.861 7.5s-15.051-2.984-21.86-7.5c-8.396-5.569-18.845-12.5-38.443-12.5-19.591 0-30.034 6.932-38.427 12.502-6.801 4.515-11.295 7.498-21.835 7.498-10.523 0-15.012-2.981-21.804-7.494-8.389-5.572-18.826-12.506-38.407-12.506-19.587 0-30.028 6.933-38.418 12.504-6.799 4.514-11.29 7.496-21.824 7.496-10.529 0-15.019-2.982-21.814-7.495-8.389-5.571-18.829-12.505-38.413-12.505s-30.023 6.934-38.412 12.505c-6.796 4.513-11.285 7.495-21.814 7.495-10.528 0-15.018-2.982-21.813-7.495-8.39-5.571-18.829-12.505-38.413-12.505-8.284 0-15 6.716-15 15v47.5h15c19.584 0 30.023 6.934 38.412 12.505 6.796 4.513 11.285 7.495 21.813 7.495 10.529 0 15.019-2.982 21.814-7.495 8.389-5.571 18.828-12.505 38.412-12.505s30.023 6.934 38.412 12.505c6.796 4.513 11.285 7.495 21.814 7.495 10.534 0 15.025-2.982 21.824-7.496 8.39-5.571 18.831-12.504 38.418-12.504 19.581 0 30.019 6.934 38.406 12.506 6.792 4.513 11.28 7.494 21.804 7.494 10.54 0 15.034-2.982 21.835-7.498 8.393-5.57 18.836-12.502 38.427-12.502 19.599 0 30.048 6.931 38.443 12.5 6.81 4.516 11.308 7.5 21.86 7.5 10.554 0 15.052-2.984 21.861-7.5 8.396-5.569 18.845-12.5 38.442-12.5h15v-47.5c.003-8.284-6.713-15-14.997-15z" />
            <path d="m497 429.5c-10.553 0-15.051 2.984-21.86 7.5-8.396 5.569-18.845 12.5-38.443 12.5s-30.047-6.931-38.442-12.5c-6.81-4.516-11.308-7.5-21.861-7.5-10.54 0-15.033 2.982-21.835 7.498-8.393 5.57-18.836 12.502-38.427 12.502-19.58 0-30.018-6.934-38.405-12.506-6.793-4.513-11.28-7.494-21.805-7.494-10.534 0-15.025 2.982-21.824 7.496-8.39 5.571-18.831 12.504-38.418 12.504-19.584 0-30.023-6.934-38.412-12.505-6.796-4.513-11.285-7.495-21.814-7.495s-15.019 2.982-21.814 7.495c-8.389 5.571-18.828 12.505-38.412 12.505-19.583 0-30.022-6.934-38.411-12.505-6.798-4.513-11.288-7.495-21.817-7.495h-15v47.5c0 8.284 6.716 15 15 15 10.529 0 15.019 2.982 21.814 7.495 8.389 5.571 18.829 12.505 38.412 12.505 19.584 0 30.023-6.934 38.412-12.505 6.796-4.513 11.285-7.495 21.814-7.495s15.019 2.982 21.814 7.495c8.389 5.571 18.828 12.505 38.412 12.505 19.587 0 30.028-6.933 38.418-12.504 6.799-4.514 11.29-7.496 21.824-7.496 10.524 0 15.012 2.981 21.805 7.494 8.388 5.572 18.825 12.506 38.405 12.506 19.591 0 30.034-6.932 38.427-12.502 6.802-4.515 11.295-7.498 21.835-7.498 10.554 0 15.052 2.984 21.861 7.5 8.396 5.569 18.844 12.5 38.442 12.5s30.048-6.931 38.443-12.5c6.81-4.516 11.308-7.5 21.86-7.5 8.284 0 15-6.716 15-15v-47.5z" />
        </g>
    </g>
</svg>