<svg height="511pt" viewBox="0 1 511 511.99938" width="511pt" xmlns="http://www.w3.org/2000/svg"><path d="m295.5 296.921875h80c8.285156 0 15-6.714844 15-15v-80c0-8.285156-6.714844-15-15-15h-80c-8.285156 0-15 6.714844-15 15v80c0 8.285156 6.714844 15 15 15zm15-80h50v50h-50zm0 0"/><path d="m15.5 352c10.453125 0 14.917969 2.976562 21.683594 7.480469 8.367187 5.578125 18.78125 12.519531 38.316406 12.519531s29.949219-6.941406 38.316406-12.519531c6.761719-4.503907 11.230469-7.480469 21.683594-7.480469s14.917969 2.976562 21.683594 7.480469c8.367187 5.578125 18.78125 12.519531 38.316406 12.519531 19.539062 0 29.953125-6.941406 38.320312-12.519531 6.757813-4.503907 11.222657-7.480469 21.679688-7.480469 10.449219 0 14.917969 2.976562 21.683594 7.480469 8.371094 5.578125 18.789062 12.519531 38.316406 12.519531 19.542969 0 29.957031-6.941406 38.320312-12.519531 6.757813-4.503907 11.21875-7.480469 21.679688-7.480469 10.46875 0 14.925781 2.972656 21.675781 7.476562 8.359375 5.578126 18.765625 12.523438 38.324219 12.523438s29.964844-6.945312 38.324219-12.523438c6.75-4.503906 11.207031-7.476562 21.675781-7.476562 8.285156 0 15-6.714844 15-15s-6.714844-15-15-15c-19.558594 0-29.964844 6.941406-38.324219 12.519531-2.390625 1.597657-4.492187 2.992188-6.675781 4.140625v-152.992187l15.789062 12.285156c2.738282 2.128906 5.980469 3.160156 9.199219 3.160156 4.472657 0 8.894531-1.992187 11.851563-5.792969 5.085937-6.539062 3.90625-15.964843-2.632813-21.050781l-220-171.109375c-5.414062-4.214844-13-4.210937-18.417969 0l-220 171.109375c-6.539062 5.085938-7.714843 14.511719-2.628906 21.050781 5.085938 6.539063 14.511719 7.714844 21.046875 2.628907l15.792969-12.28125v152.988281c-2.183594-1.148438-4.289062-2.542969-6.683594-4.140625-8.367187-5.574219-18.78125-12.515625-38.316406-12.515625-8.285156 0-15 6.714844-15 15s6.714844 15 15 15zm205-19.667969c-1.148438.742188-2.253906 1.472657-3.320312 2.1875-6.757813 4.503907-11.222657 7.480469-21.679688 7.480469-10.453125 0-14.921875-2.976562-21.683594-7.484375-5.910156-3.9375-12.863281-8.550781-23.316406-10.921875v-106.671875h70zm35-298.328125 165 128.332032v176.324218c-2.183594-1.148437-4.285156-2.542968-6.675781-4.140625-8.359375-5.578125-18.765625-12.519531-38.324219-12.519531-19.546875 0-29.957031 6.941406-38.320312 12.519531-6.757813 4.503907-11.21875 7.480469-21.679688 7.480469-10.453125 0-14.917969-2.976562-21.683594-7.484375-8.371094-5.578125-18.789062-12.515625-38.316406-12.515625-1.746094 0-3.394531.074219-5 .175781v-120.253906c0-8.285156-6.714844-15-15-15h-100c-8.285156 0-15 6.714844-15 15v121.671875c-10.453125 2.371094-17.40625 6.984375-23.316406 10.921875-2.394532 1.59375-4.5 2.992187-6.683594 4.140625v-176.320312zm0 0"/><path d="m495.5 392c-19.558594 0-29.964844 6.941406-38.324219 12.519531-6.75 4.503907-11.207031 7.480469-21.675781 7.480469s-14.925781-2.976562-21.675781-7.480469c-8.359375-5.578125-18.765625-12.519531-38.324219-12.519531-19.546875 0-29.957031 6.941406-38.320312 12.519531-6.757813 4.503907-11.21875 7.480469-21.679688 7.480469-10.453125 0-14.917969-2.976562-21.683594-7.484375-8.371094-5.578125-18.789062-12.515625-38.316406-12.515625-19.539062 0-29.953125 6.941406-38.320312 12.519531-6.757813 4.503907-11.222657 7.480469-21.679688 7.480469-10.453125 0-14.921875-2.976562-21.683594-7.484375-8.367187-5.574219-18.78125-12.515625-38.316406-12.515625s-29.949219 6.941406-38.316406 12.515625c-6.765625 4.507813-11.230469 7.484375-21.683594 7.484375s-14.921875-2.976562-21.683594-7.484375c-8.367187-5.574219-18.78125-12.515625-38.316406-12.515625-8.285156 0-15 6.714844-15 15s6.714844 15 15 15c10.453125 0 14.917969 2.976562 21.683594 7.480469 8.367187 5.578125 18.78125 12.519531 38.316406 12.519531s29.949219-6.941406 38.316406-12.519531c6.761719-4.503907 11.230469-7.480469 21.683594-7.480469s14.917969 2.976562 21.683594 7.480469c8.367187 5.578125 18.78125 12.519531 38.316406 12.519531 19.539062 0 29.953125-6.941406 38.320312-12.519531 6.757813-4.503907 11.222657-7.480469 21.679688-7.480469 10.449219 0 14.917969 2.976562 21.683594 7.480469 8.371094 5.578125 18.789062 12.519531 38.316406 12.519531 19.542969 0 29.957031-6.941406 38.320312-12.519531 6.757813-4.503907 11.21875-7.480469 21.679688-7.480469 10.46875 0 14.925781 2.972656 21.675781 7.476562 8.359375 5.578126 18.765625 12.523438 38.324219 12.523438s29.964844-6.945312 38.324219-12.523438c6.75-4.503906 11.207031-7.476562 21.675781-7.476562 8.285156 0 15-6.714844 15-15s-6.714844-15-15-15zm0 0"/><path d="m495.5 462c-19.558594 0-29.964844 6.941406-38.324219 12.519531-6.75 4.503907-11.207031 7.480469-21.675781 7.480469s-14.925781-2.976562-21.675781-7.480469c-8.359375-5.578125-18.765625-12.519531-38.324219-12.519531-19.546875 0-29.957031 6.941406-38.320312 12.519531-6.757813 4.503907-11.21875 7.480469-21.679688 7.480469-10.453125 0-14.917969-2.976562-21.683594-7.484375-8.371094-5.578125-18.789062-12.515625-38.316406-12.515625-19.539062 0-29.953125 6.941406-38.320312 12.519531-6.757813 4.503907-11.222657 7.480469-21.679688 7.480469-10.453125 0-14.921875-2.976562-21.683594-7.484375-8.367187-5.574219-18.78125-12.515625-38.316406-12.515625s-29.949219 6.941406-38.316406 12.515625c-6.765625 4.507813-11.230469 7.484375-21.683594 7.484375s-14.921875-2.976562-21.683594-7.484375c-8.367187-5.574219-18.78125-12.515625-38.316406-12.515625-8.285156 0-15 6.714844-15 15s6.714844 15 15 15c10.453125 0 14.917969 2.976562 21.683594 7.480469 8.367187 5.578125 18.78125 12.519531 38.316406 12.519531s29.949219-6.941406 38.316406-12.519531c6.761719-4.503907 11.230469-7.480469 21.683594-7.480469s14.917969 2.976562 21.683594 7.480469c8.367187 5.578125 18.78125 12.519531 38.316406 12.519531 19.539062 0 29.953125-6.941406 38.320312-12.519531 6.757813-4.503907 11.222657-7.480469 21.679688-7.480469 10.449219 0 14.917969 2.976562 21.683594 7.480469 8.371094 5.578125 18.789062 12.519531 38.316406 12.519531 19.542969 0 29.957031-6.941406 38.320312-12.519531 6.757813-4.503907 11.21875-7.480469 21.679688-7.480469 10.46875 0 14.925781 2.972656 21.675781 7.476562 8.359375 5.578126 18.765625 12.523438 38.324219 12.523438s29.964844-6.945312 38.324219-12.523438c6.75-4.503906 11.207031-7.476562 21.675781-7.476562 8.285156 0 15-6.714844 15-15s-6.714844-15-15-15zm0 0"/></svg>