<svg width="1024" height="1024" xmlns="http://www.w3.org/2000/svg" class="icon">

 <g>
  <title>background</title>
  <rect fill="none" id="canvas_background" height="402" width="582" y="-1" x="-1"/>
 </g>
 <g>
  <title>Layer 1</title>
  <path stroke="null" id="svg_1" d="m886.352683,707.853831a130.653356,130.653356 0 0 0 -239.095641,31.356806a89.497549,89.497549 0 0 0 -4.572868,18.291469l-437.035476,0l0,-204.472502l678.090918,0l0,-352.110795l-512.814423,0a83.618148,83.618148 0 0 0 -7.185935,-15.678403a130.653356,130.653356 0 0 0 -239.095641,31.356806a130.653356,130.653356 0 0 0 13.065335,99.29655a130.653356,130.653356 0 0 0 79.04528,60.753811a121.507621,121.507621 0 0 0 33.969873,4.572867a130.653356,130.653356 0 0 0 65.326678,-17.638203a130.653356,130.653356 0 0 0 65.326678,-97.33675l438.342009,0l0,221.457439l-679.397451,0l0,335.125858l512.814423,0a83.618148,83.618148 0 0 0 7.185935,15.678403a130.653356,130.653356 0 0 0 79.04528,60.753811a124.773955,124.773955 0 0 0 33.969872,4.572867a130.653356,130.653356 0 0 0 65.326679,-17.638203a130.653356,130.653356 0 0 0 47.688475,-178.341831zm-602.965238,-400.452537a65.326678,65.326678 0 0 1 -89.497549,-24.17087a68.593012,68.593012 0 0 1 -8.492468,-49.648275a65.326678,65.326678 0 0 1 30.703539,-39.849274a65.522658,65.522658 0 1 1 65.326678,113.668419l1.959801,0zm520.653624,522.613425a65.326678,65.326678 0 0 1 -96.030217,-73.819146a65.326678,65.326678 0 0 1 30.050272,-39.849273a65.326678,65.326678 0 0 1 35.276406,-8.492468a75.12568,75.12568 0 0 1 16.984937,0a65.326678,65.326678 0 0 1 39.849274,30.703539a65.326678,65.326678 0 0 1 -24.170871,91.457349l-1.959801,0z"/>
 </g>
</svg>