<?xml version="1.0" encoding="UTF-8" standalone="no"?>
<svg width="32" height="32" viewBox="0 0 32 32" xmlns="http://www.w3.org/2000/svg">
    <path d="M29 2H9C8.73478 2 8.48043 2.10536 8.29289 2.29289C8.10536 2.48043 8 2.73478 8 3V8H3C2.73478 8 2.48043 8.10536 2.29289 8.29289C2.10536 8.48043 2 8.73478 2 9V29C2 29.2652 2.10536 29.5196 2.29289 29.7071C2.48043 29.8946 2.73478 30 3 30H23C23.2652 30 23.5196 29.8946 23.7071 29.7071C23.8946 29.5196 24 29.2652 24 29V24H29C29.2652 24 29.5196 23.8946 29.7071 23.7071C29.8946 23.5196 30 23.2652 30 23V3C30 2.73478 29.8946 2.48043 29.7071 2.29289C29.5196 2.10536 29.2652 2 29 2V2ZM4 28V10H8V23C8 23.2652 8.10536 23.5196 8.29289 23.7071C8.48043 23.8946 8.73478 24 9 24H22V28H4ZM28 22H24V21C24 20.7348 23.8946 20.4804 23.7071 20.2929C23.5196 20.1054 23.2652 20 23 20C22.7348 20 22.4804 20.1054 22.2929 20.2929C22.1054 20.4804 22 20.7348 22 21V22H10V10H11C11.2652 10 11.5196 9.89464 11.7071 9.70711C11.8946 9.51957 12 9.26522 12 9C12 8.73478 11.8946 8.48043 11.7071 8.29289C11.5196 8.10536 11.2652 8 11 8H10V4H28V22Z" />
    <path d="M14.3301 10H17.6701C17.9353 10 18.1896 9.89464 18.3772 9.70711C18.5647 9.51957 18.6701 9.26522 18.6701 9C18.6701 8.73478 18.5647 8.48043 18.3772 8.29289C18.1896 8.10536 17.9353 8 17.6701 8H14.3301C14.0649 8 13.8105 8.10536 13.623 8.29289C13.4354 8.48043 13.3301 8.73478 13.3301 9C13.3301 9.26522 13.4354 9.51957 13.623 9.70711C13.8105 9.89464 14.0649 10 14.3301 10V10Z" />
    <path d="M21 10H22V11C22 11.2652 22.1054 11.5196 22.2929 11.7071C22.4804 11.8946 22.7348 12 23 12C23.2652 12 23.5196 11.8946 23.7071 11.7071C23.8946 11.5196 24 11.2652 24 11V9C24 8.73478 23.8946 8.48043 23.7071 8.29289C23.5196 8.10536 23.2652 8 23 8H21C20.7348 8 20.4804 8.10536 20.2929 8.29289C20.1054 8.48043 20 8.73478 20 9C20 9.26522 20.1054 9.51957 20.2929 9.70711C20.4804 9.89464 20.7348 10 21 10Z" />
    <path d="M23 13.3301C22.7348 13.3301 22.4804 13.4354 22.2929 13.623C22.1054 13.8105 22 14.0649 22 14.3301V17.6701C22 17.9353 22.1054 18.1896 22.2929 18.3772C22.4804 18.5647 22.7348 18.6701 23 18.6701C23.2652 18.6701 23.5196 18.5647 23.7071 18.3772C23.8946 18.1896 24 17.9353 24 17.6701V14.3301C24 14.0649 23.8946 13.8105 23.7071 13.623C23.5196 13.4354 23.2652 13.3301 23 13.3301Z" />
</svg>