<svg width="466.85" height="466.85" xmlns="http://www.w3.org/2000/svg">
    <g>
        <g stroke="null" id="svg_5">
            <g stroke="null" id="svg_1">
                <path stroke="null" stroke-width="15" id="svg_2" d="m455.63298,192.7923l-90.575289,-90.575289c-2.956014,-2.956014 -7.731113,-2.956014 -10.687126,0l-248.153555,248.153555c-2.956014,2.956014 -2.956014,7.731113 0,10.687126l90.575289,90.575289c2.956014,2.956014 7.731113,2.956014 10.687126,0l248.153555,-248.153555c2.956014,-2.956014 2.956014,-7.731113 0,-10.687126zm-253.535015,242.772094l-79.812368,-79.812368l59.95402,-59.95402l27.210484,27.210484c2.880218,3.031809 7.731113,3.107604 10.687126,0.15159c3.031809,-2.880218 3.107604,-7.731113 0.15159,-10.687126c-0.075795,-0.075795 -0.075795,-0.075795 -0.15159,-0.15159l-27.210484,-27.134689l19.782553,-19.782553l42.445324,42.445324c2.956014,2.956014 7.806908,2.956014 10.687126,-0.075795c2.956014,-2.956014 2.956014,-7.731113 0,-10.687126l-42.445324,-42.445324l19.782553,-19.782553l27.210484,27.134689c2.956014,2.956014 7.731113,2.956014 10.687126,0c2.956014,-2.956014 2.956014,-7.731113 0,-10.687126l-27.210484,-27.134689l19.782553,-19.782553l42.445324,42.445324c2.956014,2.956014 7.731113,2.956014 10.687126,0c2.956014,-2.956014 2.956014,-7.731113 0,-10.687126l-42.445324,-42.445324l19.782553,-19.782553l27.210484,27.210484c2.956014,2.956014 7.731113,3.031809 10.687126,0.075795c2.956014,-2.956014 3.031809,-7.731113 0.075795,-10.687126c0,0 0,0 -0.075795,-0.075795l-26.983099,-27.43787l19.782553,-19.782553l42.445324,42.445324c2.956014,2.956014 7.731113,2.956014 10.687126,0c2.956014,-2.956014 2.956014,-7.731113 0,-10.687126l-42.445324,-42.445324l14.249502,-14.249502l79.812368,79.812368l-237.466428,237.466428z" />
            </g>
            <g stroke="null" id="svg_3">
                <path stroke="null" id="svg_4" d="m208.085788,346.580804c-9.550198,-9.474403 -24.936628,-9.474403 -34.41103,0c-9.474403,9.550198 -9.474403,24.936628 0,34.41103s24.936628,9.474403 34.41103,0s9.474403,-24.860833 0,-34.41103zm-9.929174,23.496519c-0.15159,0.15159 -0.378976,0.378976 -0.833747,0.303181c-3.562375,3.562375 -9.398607,3.562375 -13.036778,0c-3.562375,-3.562375 -3.562375,-9.398607 0,-13.036778c3.562375,-3.562375 9.398607,-3.562375 13.036778,0c3.713966,3.410785 4.244532,9.019631 0.833747,12.733597z" />
            </g>
        </g>
        <path d="m129.924988,48.878128c-1,0 -6,0 -14,0c-8,0 -17.08699,-1.24831 -26,0c-7.20974,1.009762 -13.228851,5.729618 -18,10c-8.430161,7.545357 -11.371346,13.746742 -14,18c-2.351143,3.80423 -3,10 -4,15c-1,5 -1.806164,8.030441 -3,15c-1.721771,10.051643 -2.492687,17.02433 -2,22c0.502445,5.074203 2.648857,12.19577 5,16c2.628654,4.25325 5.41156,8.404007 9,13c2.610973,3.34407 5.259373,5.998077 9,8c4.495674,2.406006 9.016899,2.903397 15,4c5.015472,0.91925 7.81266,3.206802 10,5c2.788322,2.285873 4.458801,3.693436 5,5c0.382683,0.923874 1.497551,3.925797 2,9c0.295616,2.985397 0.247444,6.010223 0,9c-0.501709,6.062042 -4.794884,9.220215 -8,12c-3.777267,3.276016 -6,4 -11,7c-5,3 -8.892883,6.137695 -14,10c-6.861191,5.188843 -12.113293,8.835068 -18,13c-4.081696,2.887863 -8.443523,6.38063 -10,12c-0.8008,2.891144 -1.640728,6.051651 -1,10.000015c0.506542,3.121429 1.692547,4.186005 3,6c1.653809,2.294525 4.702671,4.541351 8,6c3.770638,1.66803 7.937962,1.498291 14,2c7.97274,0.659851 16.185303,-2.367432 24,-5c7.217247,-2.431305 18.520714,-10.609253 26,-16.000015c9.460625,-6.818848 20.921112,-12.114059 31,-19c11.90834,-8.135818 23,-15 31,-20c8,-5 21.445465,-13.447983 29,-20c6.410233,-5.55957 12.234238,-11.812439 21,-23c6.167557,-7.871536 12.774155,-15.23468 19,-21c6.764587,-6.264221 11.240051,-7.740219 21,-17c6.15567,-5.840195 11.918945,-13.058601 17,-20c2.953308,-4.034607 5.789856,-8.078438 7,-11c1.711426,-4.131714 3,-10 3,-16c0,-9 -3,-13 -6,-16c-3,-3 -5.907776,-5.496223 -10,-6c-3.970032,-0.488731 -8.925781,0.497551 -14,1c-1.990265,0.197075 -7.041321,1.847229 -11,3c-3.036163,0.884132 -6.712006,3.981628 -12,5c-6.873688,1.323753 -10.943665,1.188347 -14,2c-4.928207,1.308754 -8.769348,2.303215 -10,3c-3.587921,2.031448 -7.244278,2.415482 -15,6c-9.345734,4.319389 -14.025208,7.88134 -19,9c-4.022659,0.904556 -4.823746,1.486259 -7,2c-1.946503,0.459503 -3,0 -4,0c-3,0 -5.025818,0.320366 -7,0c-3.121445,-0.506538 -5.458801,-1.693436 -6,-3c-0.38269,-0.923882 -0.486252,-1.823746 -1,-4c-0.229752,-0.973251 -1.24437,-4.014984 -1,-6c0.503769,-4.092216 1.486252,-5.823746 2,-8c0.459503,-1.946495 1.493454,-2.878555 2,-6c0.160187,-0.987091 0,-2 0,-3c0,-1 0,-2 0,-3c0,-1 0,-2 0,-4c0,-1 0,-2 0,-3c0,-1 0,-2 -1,-2c-1,0 -0.292892,-1.292892 -1,-2c-0.707108,-0.707108 -2.693436,-1.458805 -4,-2c-0.923874,-0.382683 -2.292892,-0.292892 -3,-1c-0.707108,-0.707108 -1,-1 -2,-1c-1,0 -2.076126,0.382683 -3,0c-1.306564,-0.541195 -2,-1 -3,-1c-2,0 -3,0 -4,0c-1,0 -2,0 -3,0c-1,0 -2,0 -3,0c-2,0 -3,0 -4,0c-1,0 -2,0 -3,0c-2,0 -3.076118,-0.382683 -4,0c-1.306564,0.541195 -2,1 -4,1c-2,0 -4.693436,0.458805 -6,1c-2.771637,1.148048 -5,1 -6,1c-1,0 -3,1 -4,1c-1,0 -1.693436,0.458805 -3,1c-1.847755,0.765366 -3.053505,-0.459507 -5,0c-2.176254,0.513744 -2,2 -3,2c-2,0 -3,0 -5,1l-1,0l-1,0" id="svg_14" fill-opacity="null" stroke-opacity="null" stroke-width="10" />
    </g>
</svg>