<svg xmlns="http://www.w3.org/2000/svg" xmlns:xlink="http://www.w3.org/1999/xlink" width="512" height="512" x="0" y="0" enable-background="new 0 0 512 512" version="1.1" viewBox="0 0 512 512" xml:space="preserve"><g id="Layer_2"><g><path d="M372.932,454.194c12.496,12.497,32.758,12.496,45.255,0l11.844-11.844l11.844-11.845 c12.497-12.496,12.497-32.758,0-45.255l-43.428-43.428c-17.614-0.019-41.985-12.287-63.169-33.47 c-20.9-20.902-33.119-44.902-33.458-62.459c-12.482-8.75-29.813-7.559-40.965,3.592l-11.844,11.844l-11.844,11.844 c-11.151,11.152-12.343,28.482-3.592,40.965c17.556,0.34,41.557,12.558,62.458,33.459c21.183,21.183,33.452,45.554,33.471,63.169 L372.932,454.194z M374.08,440.317l53.917-53.917c1.822-1.822,4.776-1.822,6.6,0.001c1.821,1.821,1.822,4.776,0,6.599 l-53.917,53.917c-1.823,1.822-4.777,1.822-6.6,0C372.257,445.094,372.257,442.14,374.08,440.317z"/><path d="M239.759,254.552l2.475-2.475l19.446-19.445l-25.456-25.455c0,0-3.89-1.061-7.425,0.354 c-3.182,2.475-7.071,7.07-7.071,7.07l-97.934-97.934c0,0-15.543-31.099-21.737-38c-8.669-6.547-40.488-24.225-40.488-24.225 s-6.718-0.354-10.253,3.182c-1.174,1.173-1.952,1.951-2.476,2.475c-1.055,1.056-1.061,1.061-1.061,1.061 c-0.523,0.523-1.302,1.302-2.475,2.476c-3.536,3.535-3.182,10.253-3.182,10.253s17.677,31.819,24.225,40.488 c6.901,6.194,38,21.736,38,21.736l97.935,97.934c0,0-4.596,3.891-7.071,7.072c-1.414,3.535-0.354,7.424-0.354,7.424L220.314,274 L239.759,254.552z"/></g><path d="M213.176,352.377l29.676-29.677l61.53-61.529l29.676-29.676c29.905,8.297,63.297,0.696,86.809-22.815 c23.511-23.511,31.112-56.903,22.815-86.809l-45.974,45.974c-12.497,12.497-32.758,12.497-45.255,0l-16.617-16.617 c-12.497-12.497-12.497-32.758,0-45.255l45.974-45.973c-29.905-8.297-63.298-0.696-86.809,22.815 c-23.512,23.511-31.113,56.903-22.815,86.809l-29.676,29.676l-61.53,61.53l-29.676,29.676 c-29.905-8.298-63.297-0.696-86.809,22.815s-31.113,56.902-22.815,86.809l45.973-45.974c12.498-12.497,32.758-12.497,45.255,0 l16.617,16.617c12.497,12.497,12.497,32.758,0,45.255l-45.973,45.974c29.906,8.297,63.297,0.695,86.809-22.815 C213.872,415.674,221.474,382.282,213.176,352.377z M215.098,309.796c-5.857,5.857-15.355,5.857-21.213,0 c-5.858-5.857-5.858-15.355,0-21.213l77.781-77.782c5.858-5.858,15.355-5.858,21.214,0c5.857,5.858,5.857,15.355,0,21.213 L215.098,309.796z"/></g></svg>