<?xml version="1.0" encoding="iso-8859-1"?>
<svg version="1.1" id="Capa_1" xmlns="http://www.w3.org/2000/svg" xmlns:xlink="http://www.w3.org/1999/xlink" x="0px" y="0px" width="84.764px" height="84.764px" viewBox="0 0 84.764 84.764" style="enable-background:new 0 0 84.764 84.764;" xml:space="preserve">
	<g>
		<path d="M76.499,75.718L51.813,33.666c-0.395-0.673-1.155-1.092-1.986-1.092c-0.83,0-1.594,0.419-1.988,1.094l-24.683,42.05
		c-0.28,0.474-0.352,1.022-0.202,1.547c0.156,0.552,0.538,1.009,1.07,1.29c7.848,4.12,16.333,6.209,25.221,6.209h0.004
		c15.055,0,25.975-5.981,26.434-6.236c0.515-0.288,0.879-0.744,1.025-1.285C76.847,76.726,76.773,76.184,76.499,75.718z
		 M71.491,74.835c-0.27,0.986-0.917,1.809-1.826,2.314c-0.337,0.189-8.373,4.598-19.361,4.598h-0.002
		c-3.062,0-6.114-0.354-9.071-1.046c-0.626-0.146-1.162-0.541-1.485-1.098c-0.325-0.554-0.407-1.217-0.228-1.834l9.176-37.16
		c0.237-0.918,1.005-1.602,1.942-1.731c0.938-0.133,1.863,0.315,2.343,1.131l18.13,31.973
		C71.617,72.852,71.755,73.862,71.491,74.835z M35.001,49.508v-22.82l21.568-12.053v20.725l2.105,3.586V12.868
		c0-0.01-0.002-0.019-0.002-0.027c-0.002-0.009,0-0.016,0-0.024c0-0.029-0.013-0.057-0.016-0.087
		c-0.01-0.058-0.016-0.114-0.033-0.17c-0.012-0.039-0.029-0.074-0.046-0.11c-0.021-0.05-0.044-0.098-0.071-0.144
		c-0.021-0.034-0.049-0.066-0.074-0.098c-0.033-0.041-0.067-0.08-0.106-0.115c-0.03-0.028-0.063-0.053-0.1-0.078
		c-0.021-0.016-0.041-0.037-0.063-0.052c-0.023-0.014-0.05-0.019-0.074-0.03c-0.021-0.012-0.035-0.026-0.057-0.035L33.635,0.083
		c-0.284-0.119-0.606-0.109-0.883,0.029L8.639,12.684c-0.354,0.177-0.578,0.54-0.581,0.935c0,0.007,0.003,0.013,0.003,0.019
		c-0.043,0.117-0.074,0.241-0.074,0.37l0.14,30.021c0.004,0.387,0.216,0.739,0.555,0.922l22.18,11.613L35.001,49.508z M33.264,2.21
		L55.19,12.985L33.938,24.867L11.43,13.635L33.264,2.21z" />
	</g>
</svg>