<?xml version="1.0" encoding="iso-8859-1"?>
<svg version="1.1" id="Capa_1" xmlns="http://www.w3.org/2000/svg" xmlns:xlink="http://www.w3.org/1999/xlink" x="0px" y="0px" viewBox="0 0 512 512" style="enable-background:new 0 0 512 512;" xml:space="preserve">
	<g>
		<path stroke-width="12" d="M501.375,277.866l-64.733-49.242c-2.921-2.223-6.562-3.447-10.252-3.447c-9.263,0-16.799,7.444-16.799,16.593v11.902
				H255.725c-4.144,0-7.503,3.358-7.503,7.5c0,4.142,3.359,7.5,7.503,7.5h35.388v60.985h-57.164
				c2.616-9.709,3.965-19.824,3.965-30.15c0-31.35-12.422-60.803-34.978-82.932c-6.914-6.784-14.466-12.556-22.474-17.325
				c5.987-10.346,9.121-21.973,9.121-34.01c0-38.179-31.683-69.24-70.627-69.24c-38.944,0-70.626,31.061-70.626,69.24
				c0,11.929,3.083,23.465,8.97,33.748c-8.045,4.76-15.636,10.544-22.569,17.346C12.335,238.307,0,267.602,0,298.821
				c0,31.35,12.422,60.804,34.978,82.934C58.244,404.582,88.79,416,119.307,416c30.398,0,60.769-11.332,83.876-34.004
				c11.081-10.872,19.7-23.536,25.579-37.339H325.8c4.144,0,7.503-3.358,7.503-7.5c0-4.142-3.359-7.5-7.503-7.5h-19.68v-60.985
				h67.216v60.985h-18.403c-4.144,0-7.503,3.358-7.503,7.5c0,4.142,3.359,7.5,7.503,7.5h54.658v11.902
				c0,9.15,7.537,16.594,16.799,16.594c3.69,0,7.332-1.225,10.252-3.447l64.734-49.243c6.652-5.062,10.624-13.024,10.624-21.298
				S508.029,282.928,501.375,277.866z M118.957,111.001c30.669,0,55.62,24.331,55.62,54.239c0,9.625-2.576,18.92-7.489,27.151
				c-5.329-2.321-10.792-4.24-16.35-5.758V160.52c0-9.389-7.723-17.028-17.215-17.028H104.39c-9.492,0-17.215,7.639-17.215,17.028
				v25.931c-5.604,1.499-11.109,3.404-16.48,5.721c-4.827-8.178-7.359-17.397-7.359-26.932
				C63.337,135.332,88.288,111.001,118.957,111.001z M135.732,160.52v23.015c-5.676-0.802-11.402-1.204-17.125-1.204
				c-5.491,0-10.978,0.369-16.425,1.108V160.52c0-1.118,0.991-2.027,2.208-2.027h29.134
				C134.742,158.492,135.732,159.401,135.732,160.52z M192.671,371.291c-20.213,19.832-46.769,29.741-73.364,29.739
				c-26.706-0.003-53.452-9.999-73.818-29.98c-19.657-19.287-30.483-44.939-30.483-72.229c0-27.159,10.739-52.652,30.236-71.782
				c20.213-19.831,46.769-29.739,73.364-29.739c26.707,0,53.452,9.999,73.818,29.98c19.657,19.286,30.483,44.937,30.483,72.227
				C222.908,326.667,212.17,352.16,192.671,371.291z M492.287,308.525l-64.736,49.244c-0.323,0.247-0.736,0.383-1.161,0.383
				c-0.989,0-1.793-0.715-1.793-1.593v-19.402c0-4.143-3.359-7.5-7.503-7.5h-28.752v-60.985h28.752c4.144,0,7.503-3.358,7.503-7.5
				V241.77c0-0.878,0.804-1.592,1.793-1.592c0.425,0,0.838,0.136,1.164,0.384l64.732,49.242c2.992,2.276,4.707,5.689,4.707,9.362
				C496.993,302.838,495.278,306.25,492.287,308.525z" />
		<path d="M181.232,245.863c-3.335,2.459-4.043,7.156-1.582,10.489c21.657,29.332,18.47,69.172-7.578,94.729
				c-29.186,28.634-76.757,28.554-106.045-0.179c-14.151-13.884-21.944-32.347-21.944-51.989c0-19.546,7.729-37.893,21.763-51.661
				c25.845-25.359,67.641-28.472,97.224-7.242c3.366,2.413,8.054,1.644,10.471-1.719c2.417-3.365,1.647-8.051-1.719-10.467
				c-17.127-12.291-38.272-18.242-59.535-16.76c-21.507,1.499-41.734,10.55-56.953,25.482
				c-16.933,16.612-26.258,38.76-26.258,62.366c0,23.701,9.389,45.967,26.439,62.694c17.575,17.244,40.647,25.868,63.701,25.867
				c22.963-0.001,45.909-8.562,63.366-25.689c15.2-14.914,24.439-34.747,26.015-55.85c1.558-20.87-4.434-41.644-16.874-58.493
				C189.262,244.109,184.564,243.401,181.232,245.863z" />
		<path d="M163.157,255.917c-2.898-2.961-7.648-3.013-10.611-0.115l-24.209,23.677c-2.848-1.322-6.028-2.063-9.38-2.063
				c-12.169,0-22.07,9.756-22.07,21.748c0,11.992,9.901,21.748,22.07,21.748c12.169,0,22.07-9.756,22.07-21.748
				c0-3.255-0.729-6.345-2.036-9.12l24.049-23.522C166.003,263.627,166.055,258.879,163.157,255.917z M118.957,305.912
				c-3.895,0-7.064-3.027-7.064-6.747c0-3.721,3.169-6.747,7.064-6.747c3.895,0,7.064,3.026,7.064,6.747
				C126.021,302.885,122.852,305.912,118.957,305.912z" />
	</g>

</svg>