<svg id="Capa_1" enable-background="new 0 0 512 512" height="512" width="512" viewBox="0 0 512 512" xmlns="http://www.w3.org/2000/svg">
    <g>
        <path stroke-width="16" d="m168.562 473.565c10.323 17.882 31.853 25.333 50.723 18.328 11.343 13.333 23.669 20.107 36.711 20.107 44.502 0 68.638-76.576 78.187-120.577 42.541 13.623 121.25 31.143 143.516-7.423 22.251-38.54-31.998-97.73-65.33-128 11.551-10.49 22.005-21.016 31.156-31.429 34.999-39.824 47.136-74.121 34.174-96.571-6.524-11.299-18.56-18.588-35.788-21.742-2.078-11.935-9.293-22.629-19.888-28.916-3.561-2.113-8.162-.939-10.277 2.622-2.113 3.562-.939 8.164 2.623 10.277 8.128 4.824 13.177 13.677 13.177 23.106 0 14.805-12.045 26.849-26.85 26.849-.009 0-.017-.001-.025-.001-14.882-.015-26.824-12.154-26.824-26.848 0-9.43 5.049-18.283 13.177-23.106 3.562-2.114 4.736-6.715 2.623-10.277-2.112-3.562-6.715-4.736-10.277-2.623-12.659 7.511-20.522 21.308-20.522 36.006 0 .042.003.083.003.124-8.016 2.053-16.25 4.436-24.66 7.135-3.31-15.26-7.202-29.586-11.646-42.726-16.992-50.221-40.625-77.88-66.549-77.88s-49.557 27.659-66.546 77.881c-4.445 13.14-8.336 27.466-11.646 42.726-8.41-2.699-16.645-5.082-24.661-7.135 0-.042.003-.083.003-.124 0-23.076-18.773-41.85-41.849-41.85-20.66 0-37.86 15.052-41.237 34.764-17.218 3.156-29.246 10.445-35.766 21.738-12.962 22.451-.826 56.747 34.173 96.571 9.15 10.413 19.605 20.939 31.156 31.429-33.229 30.177-87.578 89.464-65.329 128 16.954 29.365 67.45 25.345 100.72 18.691 13.602-2.72 27.955-6.514 42.825-11.277 1.867 8.633 3.921 16.956 6.151 24.924-.036.021-.073.039-.109.059-19.985 11.539-26.857 37.184-15.319 57.168zm193.016-345.314c6.112 16.158 21.617 26.946 39.118 26.946 20.446 0 37.39-14.778 41.052-33.695 11.314 2.481 19.021 7.174 22.961 13.998 9.354 16.203-2.474 45.059-32.451 79.169-9.121 10.379-19.596 20.886-31.213 31.363-16.662-14.236-35.254-28.313-55.293-41.852-1.705-24.11-4.597-47.238-8.591-68.775 8.329-2.705 16.487-5.1 24.417-7.154zm-14.741 94.876c15.323 10.736 29.676 21.757 42.798 32.873-13.122 11.116-27.475 22.137-42.798 32.873.963-21.887.965-43.821 0-65.746zm-1.086 84.692c20.039-13.539 38.631-27.615 55.293-41.852 11.618 10.477 22.092 20.984 31.213 31.363 29.978 34.11 41.806 62.966 32.451 79.169-9.354 16.202-40.256 20.388-84.788 11.482-13.549-2.71-27.886-6.527-42.768-11.35 3.999-21.547 6.894-44.688 8.599-68.812zm-234.454-221.321c14.805 0 26.849 12.045 26.849 26.85 0 14.703-11.947 26.85-26.849 26.85-15.287-.001-27.221-12.772-26.836-27.296-.001-13.773 11.608-26.404 26.836-26.404zm-31.563 128.171c-29.978-34.11-41.805-62.966-32.45-79.169 3.939-6.823 11.646-11.516 22.961-13.998 3.745 19.247 20.921 33.695 41.051 33.695h.003c17.212 0 32.905-10.528 39.115-26.946 7.93 2.054 16.087 4.449 24.418 7.155-3.995 21.537-6.887 44.664-8.591 68.774-20.039 13.539-38.632 27.615-55.294 41.852-11.617-10.476-22.092-20.984-31.213-31.363zm85.433 74.212c-15.328-10.739-29.684-21.762-42.81-32.881 13.122-11.116 27.475-22.137 42.798-32.873-.933 21.207-.998 43.144.012 65.754zm-33.095 99.101c-44.53 8.906-75.433 4.721-84.788-11.482-9.354-16.203 2.473-45.059 32.45-79.169 9.121-10.379 19.596-20.886 31.213-31.363 16.668 14.242 35.269 28.323 55.316 41.867 1.715 24.045 4.617 47.216 8.609 68.786-14.892 4.828-29.241 8.649-42.8 11.361zm176.262 41.33c-14.552 43.017-33.628 67.688-52.338 67.688-7.877 0-15.793-4.326-23.597-12.879 15.056-13.201 19.168-36.028 7.642-54.053-8.995-14.09-25.468-21.438-41.888-18.758-2.186-7.894-4.191-16.156-6.013-24.723 20.649-7.309 42.125-16.368 63.856-26.948 21.745 10.585 43.232 19.648 63.892 26.96-3.264 15.3-7.127 29.625-11.554 42.713zm14.482-57.577c-16.188-5.806-32.909-12.726-49.869-20.628 18.78-9.767 37.83-20.69 56.938-32.874-1.635 18.639-4.003 36.579-7.069 53.502zm.008-231.427c3.062 16.91 5.427 34.836 7.062 53.459-18.653-11.893-37.616-22.825-56.92-32.852 16.924-7.873 33.658-14.79 49.858-20.607zm-119.165-57.62c14.552-43.017 33.628-67.688 52.337-67.688 18.71 0 37.786 24.671 52.338 67.688 4.431 13.098 8.296 27.435 11.562 42.748-20.684 7.33-42.209 16.407-63.899 26.949-21.689-10.542-43.215-19.619-63.898-26.948 3.264-15.314 7.129-29.651 11.56-42.749zm-14.49 57.621c16.2 5.817 32.933 12.734 49.857 20.607-19.372 10.061-38.343 21.007-56.919 32.851 1.634-18.623 4-36.549 7.062-53.458zm-8.448 72.231c23.706-15.648 49.187-30.412 75.275-43.438 26.078 13.021 51.557 27.781 75.276 43.438 1.663 27.762 1.773 57.327 0 86.92-23.208 15.319-48.76 30.199-75.275 43.46-25.036-12.522-50.674-27.223-75.254-43.446-1.754-28.898-1.734-58.362-.022-86.934zm1.415 105.712c18.234 11.625 37.23 22.619 56.909 32.854-16.945 7.896-33.652 14.811-49.827 20.614-3.062-16.934-5.438-34.879-7.082-53.468zm9.245 111.136c12.793-7.387 29.268-3.006 36.677 9.828 7.588 13.15 2.651 29.896-10.252 36.908-12.816 7.103-28.926 2.631-36.253-10.059-7.403-12.821-2.994-29.274 9.828-36.677z" />
        <path d="m309.045 276.164c1.473-3.872-.473-8.204-4.344-9.676-3.873-1.472-8.205.472-9.676 4.344-6.123 16.101-21.808 26.918-39.029 26.918-23.021 0-41.75-18.729-41.75-41.75s18.729-41.75 41.75-41.75c17.22 0 32.903 10.816 39.027 26.914 1.473 3.872 5.808 5.814 9.676 4.343 3.872-1.473 5.816-5.805 4.344-9.676-8.322-21.88-29.641-36.581-53.047-36.581-31.292 0-56.75 25.458-56.75 56.75s25.458 56.75 56.75 56.75c23.409 0 44.727-14.703 53.049-36.586z" />
    </g>
</svg>