<?xml version="1.0" encoding="iso-8859-1"?>
<svg version="1.1" id="Capa_1" xmlns="http://www.w3.org/2000/svg" xmlns:xlink="http://www.w3.org/1999/xlink" x="0px" y="0px" viewBox="0 0 377.36 377.36" style="enable-background:new 0 0 377.36 377.36;" xml:space="preserve">
	<g>
		<path stroke-width="16" d="M264.831,32.08c-0.453-0.039-0.907-0.039-1.36,0h-0.8h-0.96c-3.976,0.562-6.919,3.985-6.88,8v86.16
			c-21.79,3.574-43.839,5.34-65.92,5.28c-22.244,0.068-44.455-1.725-66.4-5.36V40c0.039-0.453,0.039-0.907,0-1.36
			c-0.196-0.907-0.547-1.773-1.04-2.56c-0.491-0.675-1.085-1.269-1.76-1.76l-0.64-0.4c-0.602-0.349-1.248-0.618-1.92-0.8h-1.28
			h-0.88h-0.72h-0.88c-55.04,10.4-86.56,30.32-86.56,54.48v208c0,24,31.6,44,86.56,54.48h1.52h0.8
			c0.363-0.421,0.684-0.877,0.96-1.36c0.597-0.251,1.161-0.573,1.68-0.96l0.64-0.4c0.584-0.485,1.096-1.051,1.52-1.68
			c0.412-0.723,0.709-1.506,0.88-2.32c0.037-0.426,0.037-0.854,0-1.28V254.8c43.82-7.116,88.5-7.116,132.32,0v85.92h0.8
			c-0.53,4.03,2.308,7.727,6.338,8.256c1.04,0.137,2.098,0.049,3.102-0.256c55.04-10.48,86.56-30.32,86.56-54.48v-208
			C351.391,62.32,319.871,42.48,264.831,32.08z M106.111,49.84v73.2c-39.2-8.8-64-23.2-64-36.56
			C42.111,75.36,62.191,59.68,106.111,49.84z M106.111,331.12c-43.92-9.84-64-25.52-64-36.64c0-13.36,24.8-27.68,64-36.56V331.12z
			 M270.751,331.28v-0.16v-73.28c39.52,8.8,64.56,23.2,64.56,36.64C335.231,305.68,314.991,321.44,270.751,331.28z M188.671,233.28
			c-57.92,0-118.48,11.44-146.56,33.44V114.24c28.16,21.92,88.64,33.44,146.56,33.44s118.48-11.6,146.56-33.44l0.08,152.4
			C307.151,244.72,246.591,233.28,188.671,233.28z M270.751,123.2V49.76c44.24,9.84,64.56,25.6,64.56,36.8
			C335.231,99.92,310.271,114.32,270.751,123.2z" />
	</g>
	<g>
		<path d="M188.671,67.04c-4.418,0-8,3.582-8,8v40.88c-0.044,4.418,3.502,8.035,7.92,8.08c0.027,0,0.054,0,0.08,0
			c4.418,0,8-3.582,8-8V75.04C196.671,70.622,193.089,67.04,188.671,67.04z" />
	</g>
	<g>
		<path d="M188.671,0c-4.418,0-8,3.582-8,8v40.88c-0.044,4.418,3.502,8.035,7.92,8.08c0.027,0,0.054,0,0.08,0c4.418,0,8-3.582,8-8V8
			C196.671,3.582,193.089,0,188.671,0z" />
	</g>
	<g>
		<path d="M188.751,320.48c-0.027,0-0.054,0-0.08,0c-4.418,0-8,3.582-8,8v40.88c0,4.418,3.582,8,8,8s8-3.582,8-8v-40.8
			C196.715,324.142,193.169,320.525,188.751,320.48z" />
	</g>
	<g>
		<path d="M188.751,253.44c-0.027,0-0.054,0-0.08,0c-4.418,0-8,3.582-8,8v40.88c0,4.418,3.582,8,8,8s8-3.582,8-8v-40.8
			C196.715,257.102,193.169,253.485,188.751,253.44z" />
	</g>
</svg>