<svg height="512pt" viewBox="0 0 512 512" width="512pt" xmlns="http://www.w3.org/2000/svg">
    <path d="m256.863281 96.011719c-.292969-.007813-.582031-.011719-.863281-.011719s-.570312.003906-.863281.011719c-87.828125.464843-159.136719 72.050781-159.136719 159.988281s71.308594 159.523438 159.136719 159.988281c.292969.007813.582031.011719.863281.011719s.570312-.003906.863281-.011719c87.828125-.464843 159.136719-72.050781 159.136719-159.988281s-71.308594-159.523438-159.136719-159.988281zm117.460938 139.988281h-45.847657c-1.65625-32.226562-7.277343-62.214844-16.265624-85.992188 32.285156 17.191407 55.828124 48.695313 62.113281 85.992188zm-118.324219 140c-1.339844 0-9.988281-4.882812-18.773438-28.085938-7.277343-19.230468-12.050781-44.699218-13.640624-71.914062h64.828124c-1.585937 27.214844-6.363281 52.683594-13.640624 71.914062-8.785157 23.203126-17.433594 28.085938-18.773438 28.085938zm-32.414062-140c1.585937-27.214844 6.363281-52.683594 13.640624-71.914062 8.785157-23.203126 17.433594-28.085938 18.773438-28.085938s9.988281 4.882812 18.773438 28.085938c7.277343 19.230468 12.050781 44.699218 13.640624 71.914062zm-23.796876-85.992188c-8.988281 23.777344-14.609374 53.765626-16.265624 85.992188h-45.847657c6.285157-37.296875 29.828125-68.800781 62.113281-85.992188zm-62.113281 125.992188h45.847657c1.65625 32.226562 7.277343 62.214844 16.265624 85.992188-32.285156-17.191407-55.828124-48.695313-62.113281-85.992188zm174.535157 85.992188c8.988281-23.777344 14.609374-53.765626 16.265624-85.992188h45.847657c-6.285157 37.296875-29.828125 68.800781-62.113281 85.992188zm-292.210938-85.992188c-11.046875 0-20-8.953125-20-20s8.953125-20 20-20 20 8.953125 20 20-8.953125 20-20 20zm-9-93c0-11.046875 8.953125-20 20-20s20 8.953125 20 20-8.953125 20-20 20-20-8.953125-20-20zm74-66c0 11.046875-8.953125 20-20 20s-20-8.953125-20-20 8.953125-20 20-20 20 8.953125 20 20zm12-52c0-11.046875 8.953125-20 20-20s20 8.953125 20 20-8.953125 20-20 20-20-8.953125-20-20zm66-34c0-11.046875 8.953125-20 20-20s20 8.953125 20 20-8.953125 20-20 20-20-8.953125-20-20zm73-11c0-11.046875 8.953125-20 20-20s20 8.953125 20 20-8.953125 20-20 20-20-8.953125-20-20zm276 236c0 11.046875-8.953125 20-20 20s-20-8.953125-20-20 8.953125-20 20-20 20 8.953125 20 20zm-31-93c11.046875 0 20 8.953125 20 20s-8.953125 20-20 20-20-8.953125-20-20 8.953125-20 20-20zm-54-46c0-11.046875 8.953125-20 20-20s20 8.953125 20 20-8.953125 20-20 20-20-8.953125-20-20zm-52-52c0-11.046875 8.953125-20 20-20s20 8.953125 20 20-8.953125 20-20 20-20-8.953125-20-20zm-66-34c0-11.046875 8.953125-20 20-20s20 8.953125 20 20-8.953125 20-20 20-20-8.953125-20-20zm-278 318c-11.046875 0-20-8.953125-20-20s8.953125-20 20-20 20 8.953125 20 20-8.953125 20-20 20zm54 46c0 11.046875-8.953125 20-20 20s-20-8.953125-20-20 8.953125-20 20-20 20 8.953125 20 20zm52 52c0 11.046875-8.953125 20-20 20s-20-8.953125-20-20 8.953125-20 20-20 20 8.953125 20 20zm66 34c0 11.046875-8.953125 20-20 20s-20-8.953125-20-20 8.953125-20 20-20 20 8.953125 20 20zm73 11c0 11.046875-8.953125 20-20 20s-20-8.953125-20-20 8.953125-20 20-20 20 8.953125 20 20zm225-163c0 11.046875-8.953125 20-20 20s-20-8.953125-20-20 8.953125-20 20-20 20 8.953125 20 20zm-34 66c0 11.046875-8.953125 20-20 20s-20-8.953125-20-20 8.953125-20 20-20 20 8.953125 20 20zm-52 52c0 11.046875-8.953125 20-20 20s-20-8.953125-20-20 8.953125-20 20-20 20 8.953125 20 20zm-66 34c0 11.046875-8.953125 20-20 20s-20-8.953125-20-20 8.953125-20 20-20 20 8.953125 20 20zm0 0" />
</svg>