<svg id="Layer_1" enable-background="new 0 0 512 512" height="512" viewBox="0 0 512 512" width="512" xmlns="http://www.w3.org/2000/svg"><g><path d="m254.801 410.876-30.391-34.925c-5.452-6.266-14.951-6.925-21.214-1.473-6.264 5.451-6.924 14.95-1.473 21.214l7.069 8.124c-35.489-3.423-75.693-10.95-100.776-18.058-22.42-6.354-74.885-23.634-77.82-46.816-2.057-16.252 22.527-36.234 34.731-43.35 7.19-4.156 9.648-13.354 5.493-20.545-4.157-7.19-13.355-9.647-20.545-5.493-.534.31-13.238 7.707-25.439 19.443-17.974 17.292-26.304 35.837-24.085 53.635 3.815 30.603 36.35 54.175 99.467 72.061 27.414 7.769 70.075 15.738 107.971 19.244l-8.353 7.95c-6.016 5.725-6.251 15.242-.525 21.258 2.955 3.106 6.921 4.671 10.894 4.671 3.724 0 7.455-1.374 10.365-4.145l33.657-32.032c10.631-10.632.974-20.763.974-20.763z"/><path d="m471.008 269.771c-7.088-4.333-16.342-2.094-20.671 4.991-4.33 7.086-2.095 16.341 4.991 20.671.077.048 7.983 4.97 15.318 12.768 5.845 6.214 12.511 15.558 11.069 24.775-1.566 9.999-15.814 35.828-114.093 59.669-8.071 1.958-13.026 10.087-11.068 18.158 1.669 6.88 7.822 11.496 14.601 11.496 1.173 0 2.366-.139 3.557-.428 86.404-20.96 131.125-48.516 136.715-84.246 6.097-38.945-38.516-66.692-40.419-67.854z"/><path d="m252.724 220.11c0 21.443 17.533 38.887 39.084 38.887s39.084-17.444 39.084-38.887-17.533-38.888-39.084-38.888-39.084 17.445-39.084 38.888z"/><path d="m129.219 331.252h256.824c10.949 0 19.908-8.958 19.908-19.908v-84.526c-.009 0-.018.001-.026.001h-45.289c-3.394 34.888-32.963 62.251-68.826 62.251s-65.431-27.363-68.826-62.251h-113.668c-.002 0-.003 0-.005 0v84.525c0 10.95 8.959 19.908 19.908 19.908z"/><path d="m221.132 78.892v-16.15c0-10.249-8.309-18.559-18.559-18.559h-58.597c-10.249 0-18.559 8.308-18.559 18.559v16.309c1.256-.095 2.521-.159 3.801-.159z"/><path d="m226.744 196.745c9.622-26.559 35.153-45.597 65.065-45.597s55.443 19.038 65.065 45.597h49.051c.009 0 .018.001.026.001v-67.873c0-10.949-8.958-19.908-19.908-19.908h-256.824c-10.949 0-19.908 8.959-19.908 19.908v67.872h.005zm-60.702-49.485c8.304 0 15.037 6.733 15.037 15.037s-6.733 15.037-15.037 15.037-15.037-6.733-15.037-15.037 6.732-15.037 15.037-15.037z"/></g></svg>