<svg height="781" stroke="#fff" stroke-linecap="round" stroke-linejoin="round" stroke-width="2" version="1.2" width="1000" xmlns="http://www.w3.org/2000/svg"><path d="M503 382h1l1-1h4v1h-1v1h1-1v1h-1v1h4v1l1 1v1h1v1h2l1 1v1h1l1 2v1l-1 1v1l1 3v1l1 1v1h1v2l1 1v1h-1v2l-1 1v1h-1v2l1 1 1 1v1h1l1 1h3l-1 1h1v1l1 1v1h5v1h-3v1h5v1h1v1l1 1h1l1-1v-1l1-1v-1l-1-1h-1v-1h2l-1-1v-2l1-1h1l1 1h1v1h1v-1h1v-1h1v-2h-1v-1h2v-4h-1v-2h-2l-1-1h-1v-1h-1v1h-1l-1-1v-1h1v-2h-1v-2h1v-1l-1-1v-1h1v-1h2v-3h-1v-1l1-1v-4l1-1h1v1l1 1h6l1 1v1h1v2h-1l1 1h4l-1 1h3l1 1h2v1h1v1h1l1 1v1h3v1h3v2h3l1 1 1 1v1h-1v2l1 1v2h-1v1l-1 1-1 1h-1v1h1v5l1 1v4l-1 1v1h-5v-1h-1l-1 1h-2v1-1h-2l-1-1h-1v1h-1v2l1 2h1v1h1l-1 1h-4l-1 1-1-1h-2l-1 1h-1v-1h-1l-1-1v-1h-2v-1h-3l-2 1-1-1v1h-1v1h-1 1v3h1-1v2h-1v1h-1v2h-1v2h4v1h1v1h1-1v1l1 1v1h-2v-1h-1v1h1v3l-1-1v2l-1 2h-1v1h1v1h1-1v3h1v1h1v1l-1 1h-1v-1h-1v-1l-1 1h-1l-2 1-1-1v-1l-1 1h-1v1h-2v1l-1 1v1h-1v2l2 1h1v5h-2v1h-1v1h-1l-3-1h-1v1h-1v1h1v2h-1l-1 1v1h-1v-1h-1v1h-5l-1-1h-4l-1-1-1-1v-1h-2l-1-1 1-1v-1h1l1-1v-1l-2-1v-2l-1-1h2v-1h-1v-1h-1v-1l-1-1v-2l-1-1-1-1h-9v-1l1-1h-1l-1 1h-3l-1-1v-2h-1v-5l-2-1-1-1v-1h-2l-1 1h-1v1h-1l-1 1v1h1-1l-2 1h-1v1h-1v1-1 1-1h-2v1h-1v1l1 1h1v1h-1 1v1h1-1 1v3h1l1 1v2h-1v1h-2l-1 1h-1v1h-1v1h-2v1l-1 1h-1v-2h-1l1-1v-1l1-1v-2h-1v-1h1-1v-1h-1v1h-1v1h-2v-2l-1-1v-1h-2v1h-2l-1-1h-1v1-3h-1v-1h-1v-1h-1l-1-1-1-2v-1l-1-1h-1v-1l1-1v-1l1-1 1-1 2 1v1h4v1h3v1h2v1h1v1h1v1h1v-1h1v-1h2v-1h1v-1h1v-1h1v-1h1v-1l-1-1v-1h-1l-1-1h-2v-2h-1v1h-1v-1h-1v-1h1v-1h2v-2l1-1v-1h2l1-1v-1h2v-2h1v-2h-1v-3h2v-1h1v-1h1v-1h1l1 1h1v-4l-1-1 1-1v-1 1-1h4v-2h1v-1h-1v-1h-1v-1l2-2v-1h-2v-1h-1v-1h-1v-3l-1-1v-1h-1v-1h-1v-2h1v-2h-1l-1-1-1-1v-3h1v-2l-1-1v-1h-2l-2-2-1-1h-2v-3l-1-1v-2h-1l-1 2h-1v2h-1v-1h-1v-1h-1l-5-4-4-3-1-1h-1l-5-2h-1v-3h-1v-1h-3v-1h-1v-1h-1v-1l-1-1h-1v3h1v3-1l-1-1h-1l-2-1h-2l-4-4v-1h-1v-1h-1l-1-1-4-4v-2h-2l-1-1h-1v-1h-2v1h-1v1h-4l-1-1h-1v1h-1v1l-1 1-1 1h-2l-5-3v-1l-5-3-4-1h-2v1h-1v2l1 1-1 2v12h-2l-1-1h-2l-1-1h-1v-2l-1-1h-1l-1-1h-3v-1h-2v-1h-1l-1-1h-1v-1l-1-1h-2v-1l-1-1v-1h-2v-1l-2-1-1-1v-1 1h-6v-1h-1l-2-1h-1v-1h-19v1h-2v1h-5v1h-3v-3l1-2v-1l-3-8v-2l2-4v-8h7l1-1 2-1h1l1-2 1-2 1-1 4-7 9-10 8-4 7-2 5 1 1-1 2-1 1-2v-12l1-1 4-3h2l12-2 11 26-3 3h-1v2l1 1 2 3 2 2h1v1l3 3h2v2l-1 7h5l1-1h1l2-2v-1l6-3h6l2-1h6l1 1 2 2v4l-1 1-2 3-1 1v2h-1v1l-4 3-2 1-1 2h-1v1h6l1 1 1 1 2 1 3 1h1v1l1 1v1l2 1h1v2h5v4l1 1v1l1 1 2 1v1h1v-1h1v2h1v1l1 1v2h2l2 1h5v-1l1-1 1-1 1-1-1-1-1-1-1-1-1-1h1v-1h3l6-3h1l1 1h1v1h2l2 1h3l1-2h1l1-1 1-1 3-1 5-2h5v3l2 4h1v1l-1 1v1l-1 1h-1v1l-1 2-1 1-1 1v1l-1 1-6 3v2h1v4l-2 1v5h1l3 2h1l3 3 4 3v1h1l1 1h1v-1l1 1z"/><path d="M461 459l-1 1v1h-1v3h1v1h-1l-1 2-1-1-1-1h-2v1h-3v1l-1 2v2l1 1h1v1l-1 1v2h-3l-1 1h-1v-1h-3v1h-1v3h-1v1h-1v-1h-1v-1h1l1-1-1-1v-1l-1-1-1-1v1h-2l-1 1v1l-1-1v-4h-1l-1-1v-1l-1 1v-1h-1v-1h-1v2h-1v1l-1 2v1l-1-1h-1l-1-1-2-1h-2v-1l-1-1v-1l-2-1h-1l-2-1-1-1-1-1v-2l-1-1v-2l-1-1v-1h-1v-1h1v-1l-2-1-2-2h-3v-2h-4l-1 1h-1l-1 1h-1v-2l-1-1h-1v1l-3 1h-1v6h1v1h1v2h2l1 1h1-1v1h-1l-1 1-1 2v1h-1l1 1v2h-2v4l1 1v1l2 1h1v1h1v1l-1 1h-2l-2-1v1h-1v1h1v3h-2v4h-1l-1 1h-1l-1-1v1h-4l-1 1h1v5h-1l-1-1h-3l-1-1v-1l-1-1h-3v2l1 1v4h-1v-2h-1v-1l-1-1-1 1h-1l-1-1-1 1-1-1h-1l-1-1v1h-2l-1-1v-1h-1v-3h1v-3h-1v-1h-1v-1h-4l-1-1h-1v-3l-1-1h-2v-2h-2v-1h-1v1h-4v1l-2 1h-1v1h-2l-1-1h-2v-1h-4l-1 1h-1v-1h-2l-1-1-1-1h-3v-1h-3l-2-1-1 1-2-1h-5v1-1h-1v-2h-3v1l-1-1-1-1h-1v-1h-1l-2-1-1-1-1-1-2-3v-1h-4v1l-2 1h-1l-1 1h-1v1h-2l-1-1h-1l-2-1v-1h-3v-1h-1v-4h-1v-1h-2l-1-1v-2h-1v-1l-1-1-1-1h-1l-1-2v-3h1l1-1v-1l1-1v-2h-1v-5h-1v-2l1-1 1-1-1-1v-1h-4v-1l1-1h-1v-1l-1-1v-4h2v-1l2-1v-1h-1l1-1v-2l1-2v-2h-5v-1l-1-1v-1l1-1h2l1-1 3 1h1l1-1v-1l1-2h1v1l1 1 2 1h6l3 2h1l2-1h2v-3l-1-1v-1l-1-3v-1l-1-1h-2l-1-1-1-1v-4l1-1h1v-1h4l1-1h1l1-1h1v-2l-1-1-2-2v-4h-1l-2-1-1-1-1-1-2-1-2-1-2-1-1-1v-1l1-1v-2l-4-7-1-1v-1l1-1h3l1-1 1-1h1l1-1v-1h4l1-1 1 1 2-1h3v-1l2-1h3l4-1 2-1 2-1 2-1 2-1h2l5-1 2-1h2l1-1h5v-1h2v-1h9l1-1h1l5 1h3v1h1l2 1h1v1h5l1-1v1h1l2 2v1h2v1l1 1 1 1h1l1 1v1h2l1 1v1h2v1h3l1 1h1l1 1v2h2l1 1h1l1 1h2v-13l1-1-1-1v-2h1v-1h2l4 1 5 3v1l5 3h2l1-1 1-1v-1h1v-1h1l1 1h4v-1h1v-1h3v1l1 1h2v2l4 3 1 2h1v1h1v1l4 4h2l2 1h1l1 1v1-3h-1v-3h1l1 1v1h1v1h1v1h3l1 1v2l1 1 5 2h1l1 1 4 3 5 4h1v1h1v1h1v-2h1v-1l1-1 1-1v3l1 1v2l2 1 1 1 2 1v1h2v1l1 1v2h-1v3h1v1l1 1h1v2h-1v2h1l1 1v1l1 1v3h1l1 1 1 1h1v1l-2 2v1h1v1h1l-1 1v2h-4l-1 2 1 1v4h-1l-1-1h-1v1h-1v1h-2l-1 1v3h1v2h-1v2h-2v1l-1 1h-2v1h-1v3h-2v1h-1v1h1v1h1v-1h1v2h2l1 1h1v1l1 1v1h-1v1h-1v1h-1v1h-1v1h-2v1h-1v1h-1v-1h-1v-1h-1v-1h-2v-1h-3v-1h-2l-2-1-2-1-1 1-1 1v1l-1 1 1 1 1 1v1l1 2 1 1h1v1h1v1h1v3-1h1l1 1h2v-1h2v1l1 1v2h2v-1h1zM580 690v-1h1v1h-1zm-15-9h-1 1zm7-4h-1v-1h1v1zm55-53h-1v2h1v1h1v1h-1v1h1v2l-1 1h-1v1h-1v3h1v2h-2v2h-3v3h-1l-1 1v1l-1 1-1 1v6h1v2h-1v2h-1v1h-1v1h-3v2h-2v1h-2v1h-1v-1 2h-1v2l1 1v1h-2v2h-1v-1h-1v1h-1v-1h-2v1h1v1l-1 1v1h1v2l-1-1h-1v1h-1l-1-1h-1v1h-2l-1 3v1h-2v3-1 1h-1l-1-1v-1h1-1l1-1h-1v1h-1v-1h1-1v-2l-1 1v1h-1v-1 1h1l1 1v1h-1l-1 1v-1 1h-3l-1 1v-1 1h-1v-1 1h-1l-1-1h1l1-1v-1h-1v-1 1-1h-1v1-1h1-3v-1h-1v-1h1-1v-1h-1 1-1 1v2h-1v-1 1h1v1h-2v1-2 1-2l-1 1v-2 1h-1v-1 1-1h-1 1v-1h1v-1h-2 1v-1h-1v1-1 1h-1 1l-1 1v-1 1h-1 1v3h1v-1 3h-1v-1 1-1 1h-1v-1l1-1h-2v-1l-1 1v3h-1v-2h-1 1-1v1h1-3v1-1h-1l1 1h-1l1 1v-1 1h-1v1-1l-1-1-1-1v-1h-5l-1 1h-1v-1h-1v1l-1-1v-1h-2l-2-2h-1v-2h-2v-1h-2v-1h-1v1h-1v-1l1-1h-1v-4h-1l-1-1v-2l1-2h1v1l1-1v-1l1-1v-1h1l-1-1h-1v-1h-1v1l-1-1-1-1h-1v1h-2l-1 1v-1h-1v-1l-1-1h-3v1h-2v1-1l-1-1h-1v-1h-3v-3l1-1v-1h2v-1h-1 1l1-1 1-1h2v1h1v-1h1l1-1v-5h1v-1l-1-1v-1h-1v-1h-1v-1h-1v1h-1v1h-2l-1-1h-1v-1h-2l-1 1h-2v-1h-1v1h-1l-1-1v-4h-1v-2h-2v1h-1v-1h-4v1h1v1h-1l-1-1-1-1-1-2v-3h1l1 1h1l1 1v-1h2v-2h3v-2l1-1h1v-1h1v1h3l1 2h1v1l1-1v1h1l1 1h3l2 1v1-1l1-1 1-1 1-1v-1h-1v-1h1v-1h3l1-1h1l1-1h1v-1h4v-1h1v-1 1h1v-3h-1v-1h1v-1h3v-1h1l1 1v2h1v1h1v1h1v1h-1 2v-1h1v-1 2h2v1h3v-1h3v-3h1v-1h1v-1h1v-1 1h2l1 1 1 1 1 1v1-2h-1v-1h1v-1h1v-2h2v2l1-1h2v1h1v-4h-1v1h-2v-1l1-1h3l1 1v-2 1h1v1h1v-1h1v-2h1v-2l1-1h3v3h2v-3h2v-2l1-1v1h2v1h-1v1h3v1h2v-2h1v-1h2l1-1v-2h2v1h4v-2h1v1h2v1h3v1h-1v3l-1 1v1l1 1 1 1v-1h2v-1h1l-1 1h1l-1 1v1h-1v1h-1v5l-1 1h-1v2h-1v1l-1 1h-1v1l-1 1v1h1v2h1v-1h1v-2h1l1-1 1-1v1h2v1l1 1h-1v3h1v2l-1 1h1v1h1v-2h1v-1h6v1z"/><path d="M583 555v4h1v2l-1 2 1 1v-1h1v1h-1v5h1v1h1v2l-1 1-1 1-1 1h-2v1h-1l-1 2h-1l-1 1v1l-1 1h-1l1 1 1 1 1-1v-1h1l1-1h1v1h-1 2v-1h4v1l1 1v2h-1v1h1v1h-1l-1 1h-1v1h-1v1h2v3h-1v1l-1 2 1 1h1v2l1 1v1l-1 1v2h-1v2l-1 1h-1v-1l-1-1v2-1h-4l-1 1v1h2v-1h1v4h-1v-1h-2l-1 1v-2h-2v2h-1v1h-1v1h1v2-1l-1-1-1-1-1-1h-2v-1 1h-1v1h-1v1h-1v3h-3v1h-3v-1h-2v-2 1h-1v1h-2 1v-1h-1v-1h-1v-1h-1v-2l-1-1h-1v1h-3v1h-1v1h1v3h-1v-1 1h-1v1h-4v1h-1l-1 1h-1l-1 1h-3v1h-1v1h1v1l-1 1-1 1-1 1v1-1l-2-1h-3l-1-1h-1v-1l-1 1v-1h-1l-1-2h-3v-1h-1v1h-1l-1 1v2h-3v2h-2v1l-1-1h-1l-1-1v-2l1-1 1-1v-3l1-1v-1h1v-1h-2l-1-1v-1h-1v-2h-2v-1l-1-1h-1v-3l1 1v-1l1-1v-1l-1-1h1v-1l1-1v-2h1v-2l1-1 1-1v-1h-1v-2h-1v-1h-2v-2h-1v1h-1v1h-2v-1h-1l-1 1v1l-1 1h-2v-1h-2v-4h-1v-2h1v-3h-3v-1h1v-1h1l2-2 1-1v-1h1v-1h1v1h1v1h1v1h1l1-1v-1l1-1h1v1h1v1h8l1-1h1v-1h1l1 1v-1h1v-3h1v-2l1-1h1l1-1h1v1h1v1h4v-1h4v-1h1l1 1h1v-1h1v-4h-1l-1-1v-1h-1v-1h-1l-1 1-1-1-1 1v-2h-1v-1h-2l-1-1v-2l-1-1h1v-1l1-1h3v-1l1-1v-1l2 2 1 1h1v1h1v1h1-1 1v1-1h1v-1h2v-3l-1-1v-1h1v1h1v1l1 1v1l-1 1v1h3v-2h1v-3l1-1h1v1l1-1v-1h3v1h2l2-1v-1h1v-2h-1v-3l1-1 1 1 1 1h3v3h2l1-1h3l2-1v2l1 1v3l-1 1h1v1h2l1 1v-1 1h1v5h1v-2l1-1v1h1v3l-1 1h3l1 1h1v-1l1 1v-2h1v-3l1-1h1z"/><path d="M588 494h1l1 1v2h1l1 1h2v1h1l1 1h1v3l1 1v1h-1v1h-1l1 1v4h-3v-1h-1l-2 1h-1l-1 1v1l-1 1v1h-1l-1 1h-6l-2-1-1 1-1 1h-3v-1l-1 1v1h-3v1h-1v1h1l1 1h1v9h-2v2h2v-1l1-1h1v3h2l1 1h1v1l-1 1v1h1v2l1 1h1v1l1 1 2 2 1 1v1l-1 1v3h1v2h-1v1h1v2h-1l-1 1-1 3v2l-1-1v1h-1l-1-1h-3v-2l1-1v-1h-1v-1h-1v3h-1v-5h-1v-1l-1 1v-1h-2l-1-1 1-1v-3l-1-1v-2l-2 1h-3l-1 1h-2v-3h-3l-1-1-1-1h-1v4h1v1l-1 1v1l-2 1h-2l-1-1h-2v1h-1v1-1h-1l-1 1v3h-1v2h-3v-1l1-1v-1l-1-1v-1h-1v-1h-1v1l1 1v2h-1l1 1h-2l-1-1-1-1v-4h-1l-1-1h-1l-1-1h-1l-1 1h-2l-1-1v-6h-1v1l-1-1h-3v-2l-1-1h-1v-3h1v-1h2v-1h1v-2h3v-4h-1l-1-1-1-1 1-1h1v-1h-1 2v-1l1-2h2v1h2l2 1v1h1v1h1v-1h2v-1h3v1h1v2l1 1v1h6v-1h1v-1l1-1h1v-2l2-3v-1h1l1-2v-1h-1v-2h1v-1h3v-1h1v1l1 1h1l1-2v-2h1v-1l1-2v-2h1l1-1v-1l1-1v-1h1v-1h2v-2l1-1h1v-2h-1l-1-1-2-2h-1l1-1v-1h1v-1h1l-1-1v-1h3l1 1 1 1h2v1l1 1h2l1 1 1 1 1 1h1l1 2v1h1l4-1zM715 322v2l-1 1h-1l-3 1h-4l-1 1v3h2v1h1v1l-1 1v1l-1 1v1h-2l-1-1-1 1-1 1h-1v2h-2l-1-1-1-1v-1h-2l-1 1-1-1h-1v1h-2v1l-1-1-1-1h-2l-1-1-1-2v-1h3v-1h-1v-2h-1v-1h-1v-1h1l1-1v-1h1l4-1v-1h1v-1h1v-2h-1l-3-4v-1h1l2-1h2l1-1h1l1-2h4v-1l-2-2v-1h1v1h1v-1h1l1-1v-1h1v1h1v1l1 1v1l1 1h1l1 1v1l2 1h1v-1h1l2 1h3l-1 1h-2v1h-1l-1 1v1h1v3h1v1l1 1zM716 642l1-1 1 1h-1v1h-1v2h-2l1-1v-3h1zm12-15v2h-2 1v-2h1zm3 0h-1 1zm13-9v1-1h-1 1-1l1-1v1zm6-3h1v1h-1v-1h-1v-1 1h1zm-3-4h-1v-1l1-1v2zm7-3h1v1h1-1v1l1 1h-2v1l-1-1v-1h1v-1 1l-1-1h1v-1h-1v1-1l1-1v1zm-1-1v1l-1-1h1zm-2 0v1-1h1-1zm-3-5v-1h-2v-1h-1v-1l1 1h1l1 1v1zm4-2l-1-1h1v1zm7-9v1h-1v-1h1zm1 0v-1h1l-1 1zm-5-1h-1v-1h1v1zm-1-1h-2 2zm3-1v1h-1v-1h1zm6-4zm1-1v1h-1v-1h1zm1-4l-1-1h-1v-1h-1v1-1h-1v2-1h1l1 1v-1h1v1l1 1h-1 1-1v1h-1l-1-1v1l1 1h-1v-1 2h-2 2v1h-2v1h-2 1-1v1h2v4h-1v-1l-1 1h-1v1h-2 1v-1h1v-1h1v-1h1v-2l-1 1-1-1v2h-1v1-1h-1v-2 1-2 1h-1v1h-1v-1 2h1-1l-1-1v-1h-1v2h1v1h-2 1v2h1v-1h2v2h1-1 1v2h-1v-1h-1l-1-1v1-1h-1v1h1v2h2v-1h1v-1 1h1-1 1v1-1h1l-1 1h-1l-1 1h1-3l1 1h-1 1-1v1h-1v1h-1v1l-1 1h-1l-1-1h-1l-1-1h-1l-1-1 1 1h1v2h1v1h3l1-1v-1h1l1 1h1v1l-1 1-1 1v-1 1l1 1v1h-1v1l-1-1v1h-1v1h1-1v1h2v2h1v2h-1v-2h-1v1h1-1v-1h-1v-1h-2v-1l1-1v1h-1v-1 1h-1v1h-1v1h-1l-1 1 1 1h1v1l1-1h1-1l1 1v1h-1v1h-1l-1-1-1 1h1v1h-1v-1l-1 1v-1h1v-1h-2 1v-1h-2v2h1v1h-2v1h1v1h1l1-1v1h-1 1v1h-2v1h1-3v1h-1v-2 1-1h-1v2l-1-1v1h1-1v1h3v1h-1v1h-1v2l-1 1h-1v-1h1l-1-1h-2v-1 1l-1 1v-1l-1 1v-1 1h-2v-1h1-1v-1 1h-1v1-1h-1v1h-1 1v1h-1v1h1-1l-1-1h-2l1 1h1-2l1 1h3v1h1v2h-1l-1 1v-1h-1v4l-1-1v1h-1v1h-1v1-1l1-1h-1 1v-1h-2 1l-1 1v2h-1v3-3h-1l-1-1h-1v1h1v2h-3v1h-1v1l1 1h-1v-1h-1 1v1h-1v-1h-2v-1l-1-3-1-2v-4l-1-3-1-1v-1h-1v-3h-2l-1 1h-1l-1-1v-2h-1v-1h-1l-1 1v-1h-3v-1h-3l-1-1h1v-2l-1-1v-2h1l1-1v-2l1-1v-4h1v-1l1-1v-2h1v-1h2l1-1v-2l1-1h-1v-2l1-1v-1h2l1-1v-1h-1v-1l-1-1v-3l1-2v-1h1v-1h3l1-1h1l1-1h1v-2h1v-1l1-1h-1v-1 1-5l1-1v-1l1-1h1v-2h1l1-1 1-1h1v1h1v1h1l1 1 1-1v-1l1-1h4v-1h1l2-1h1v-1l1-1h-1v-1l1-1h1l1 1v-1h3v-1l1 1v7h1v3h1v5h4v1h2v-1h2v-1 1h1v-1l1-1v-1l1-1h1v3h1v2l1 1v1h3v-1h1l1 1v-1h1v-1h2l1 1h1v1h1v2zM752 506v1l-1 3v2h-1v1l-1 1v1h-1v-1h-1v1h-1v2h1v2h1v1h-2v1h-4l-1-1-1 1v2l-1 1h1v1h-1 1v3h-1v1l-2 1v2l-1 1-1 1h-1l-1 1v1l-1 1h-2v1h-3v-2h-1v-1h-2v1l-1-1h-3v-1h-3v-1l-1-1v-2h-3v-1l-1-1-1 1v1h-1v1h1v1h-1l-1 1h-1v1l-1 1v1h-1v-1h-1v1l-1-1v-1h-1l1-1v-1h2l1-2v-2l-1-1-1-1h-2v1h-1v1h-1v1h-2l-1 1v1h-3v-3h-1v-4l-1-1v-1h-1v-1h-1v-2h1v-2h-1v-1h-1v-1h-1v-3h1v-1l1-1h1v-1h1v-2h-2v-1h-2v-1l-1-1h-2v1h-1v-2h-1v-1h-1v-1h-1v-1l1-1v-1l1-2v-1h1v-1h1l1-1h4v-4l1-1-1-4v-3h-1v-1h1v-1h-1 1v-1h-1v1l-1 1v-1l-1 1v-1 1l-1 1h-2v-1h-1v-1h-1v-1h-2l-1-1v-1h-1v-2l1-1h-1v-1h-1v-1h-1l-2-1h-1v-1h1v-2h1l1 1h2v-1h2v-2h1v-3h-1 1v-3 1h1v-1h1v-1h3v-1h-1v-3 1l1-1v-1h-1v-3l1-1h3v1h2v2l1 1 1 1 1 1h1l3-1h1v-1l1-1h2v-2l-1-2v-4h-3l-1-1h-1l-1-1-1-1v-2l1-1v1h1v-1h1l1-1h1v1h1v1h1v1h1l1 1h2v1h2l1 1v1h-1l1 1v2h1l1 1h1l1 1 1-1h1v1h1v1-1h2v1h2v2h1v3h7v2h-1v3h-1v1l-1 2v1h-1v1h1v1h1l1 1v-1h1v-1l1 1v3l1 1-1 1v1h1v2h1v1h6v-2h1v-2h1v-1h3v2h1v1h1v1l1 1v2l-1 1v1l-1 1h-1v-1h-1v-1h-1v-1h-1v1-1h-2l-1 1v-1l-1 1v-1h-1v1l1 1v1h1v4l-1 1h-2v2h-1v2h-1v1h1v1h1v2h1v1h2v2h2v-1 1h1v1h1v1l-1 2v1h-2v1l1 1v1h5v-1h5v2h3v1h1z"/><path d="M602 696l1 1h-1v-1zm3-4h-1v-1h1v1zm-4-4v1h3v1h-1v1-1h-4v-1h1-1 2v-1zm2-1v-1l1 1h1l-1 1h-1v-1h-1l1-1v1h-1 1zm24-8v-1l1 1h-2v1h-2 1v-1h1v-1l1 1zm11 0h-2v1-1h1v-1h-1 2v1zm4-2h-1v1h-1 1v1h-1l1 1h-1v-1h-1l1-1h-1l1-1h1zm5-2h-1 1zm-3 0zm4-1v1-1h-1 1v-1 1zm8-1v-1 1zm-8-1v1-1l-1 1v-1h1zm17 0h-1 1v-1 1zm-15-1h1l-1 1h-1v-1h1zm3 0h-2 1-1l1-1h1-1v1h1zm-3-1l-1 1h-1v-1h2zm4-5h1-1v1-1zm0-3l-1-1-1-1v-1h1v1h1v2zm-2-5l1 1 1 1h-1l-1-1v1-2 1h-1v-1h-1v-1h1l1 1zm1 0h-1v-2 1h1v1zm58-10v1l-1-1v1l-1-1h-1 2v-1l1 1v-1 1zm-2-2v1h-1v-2h1l-1 1h1zm-50-34h1v1l1 1-1 1h5v-1h2v-1h3v1l1 1h1v1l-1 1 1 1h-1v1h-2v1h-2v1h-1v2l-1 1v1l-2 1h1v1h1v1h1v1h2v-1h4v-1h2v1-1h1v-1h2v-1h1v1h1l1-1h1v-1h1v1-1h2v1h1v1h1v1l1 1h3-1v-5l1-1h4v1h3v1l1-1h1v1h1v2h1v1h1l1-1h2v3h1v1l1 1 1 3 1 1h-1v3l1 2 1 3v1h2v1l-1 1h-1v-2h-1v1h-1v-1l-1 1v3l-2 2-1-1v1l-2-1v-1h-1v1l1 1h3v2h1-1v-1h-1v1l-1 1v-1h-1v-1l-1 1h2l-1 1-1 1h1v2h-1v1h-3l-1-1h-1l1 1v-1 1h-1v1l-1 1h-1v-1h1-1l-1-1 1 1v1h-2l-1 1h-2v-1l1 1v-1h-2v-2l-1 1h-1v1l-1-1-1-1h-1v1h1v-1 1h1-1v1h2v-1 1l-1 1 1 1v-1 2h-1l-1-1h-2v-1h1-3v-1h2v-1h-1v1h-2v1-1h-1l-1 1v1h-1v-1h-2 1v1h-1 2v1h-1v2-1h-3v-3h2l-1-1v1h-3v1h-1v1h-1 2l-1 1h-1v1h2v1h-1v1h-1v-3h-1v1-1h-3v1h-3v1-1h-2v1l-1 1v-2l-1-1v-1h-1v-2h-2 1v-1h-1v-1 1-1h-1l1-1v-2 2-2 1l-1 1v-2 1h-1v-1h1v-1h2l1-1v1h1v-1h-2l-1 1h-1v1h-1l-1-1h-1l1 1h1v2h-1l-2 1-2-1v1h3l1 1 1 1h-2l1 1h1v1h1v1h1v1l-1 1v2h1v1h-1v2h-1v1h-1v-1l-1-1v-1l-1-1h-1v-2l-1-1v-1l-1 2h1l1 1 1 2v1h1v2l-1-1v1h-1v2h-2v-3h-1v1h-1v4h-1v1h-1v-1l-1-1h-1v1h-1v1h-1v1l-1 1-2-1-1-1v-1h1l1-1h-1v1h-1v-3 1h-1v1l1 1v3h-1l-1 1-1-1h-1 1v-2l-1 1h-2v-1h-1v1-1l-1-1v2h1l1 1h-2v1h-1 1-1v-1 1-1h-2l-1-1 1 1h1v2h-1 1-1l-1 1v1h-1v-1 1h-2v-1h-1v1h-1 1-1v1h-2 1v-1h-2 1l-1 1h-1v-1h-2v1h1l-1 1h-4l-1 1v2-2h-1l1-1h1v-1 1h-2v3h-3v1-2h1-1l1-1h-1v1-2h-1v-1 2h-1l1 1v1h1-1v2h-2v2h-1v-1 1h-1v2h1v1-1h-1l1 1h-1 4v1h1l-1 1v-1l-1-1v4l1-1v1-1 1h1v1h1l1 1-1 1v1h-1v1h-1v1h-5v-1h-1v1h-2 1v-1h-1v-2l1 1h1v-1l-1-1v1-1 1h-1v-1h-1v-2 1-1h-1v-1h1v-1 1-1h1-2v-3 1h-1l-1-1v-1h1v-2 1-2h-1 1v-1h1v-3h3l-1-1h1v-2 1h-1l-1-1v1-2l-1 1v-2h2v-1h1v-3h2v-1h1l1 1h1v-1h1l1 1v-2h-1l1-1v-2h-1v-1h2v1h1l1-1v1h1v-2h3l-1-1v-1h-1v-2h1v-2l1 1v-1h2v-1h2l1-1h-1v-1h3v-1h1v-1h1v-2h1v-2h-1v-6h1v-1l1-1v-1l1-1h1v-2l1-1h2v-1l1-1h1v-2l-1-1 1-1h-1v-1h1v-1h1l1-1v-2h-1v-1h1v-1h-1v-1h-1v-1h1-1l1-1h1v-1h2v-3h-1 1v-4h1v-1 1h5v1h3v2l1 1h4v-1h-1v-3h1v-1h-2v-1l-1-1h3v-1h1l1-1 1-1h2v1h1v1h2l1 1h4l1-1v-1h1zM263 408l-1 1h-2v1h-1v1l1 1v1h5v2l-1 2v2l-1 1h1v1l-2 1v1h-2v4l1 1v1h1l-1 1v1h4v1l1 1-1 1-1 1v2h1v5h1v2l-1 2v1h-2v3l1 2h1l2 1v2h1v2l1 1h2v1h1v3l1 1v1h3v1l2 1 1 1h3l1-1 1-1h3v-2h4v1l2 3 1 1 1 1 2 1h1l1 1 1 1 1 1v-1h4l-1 1 1 1v1l1-1h4l2 1 1-1 2 1h3v1h3l1 1 1 1h2v1h1l1-1h4v1h2l1 1h2v-1h1l2-1h1v-1h3v-1h1l1 1h1v2h2l1 1v3h1l1 1h4v1h1v1h1v3h-1v2h1v2h1v1h2v-1l1 1h1l1 1h1v-1l1 1h1l1-1 1 1v1h1v2h1v-4l-1-1v-2h3l1 1v1h1v1h3l1 1h1v-5h-1 1v-1h4v-1l1 1h1l1-1h1v-4h2v-3h-1v-1h1v-1l2 1h3v-2l2 1h1l2 1 1 1h1v1h2v2l1 1v1l1 1v1h1v1l1 1h-1v3h1v1l1 1v1l1 1 4 3v1h1l-1 1-1 1v1l-1-1-1-1-1 1v2h1v1l1 1 1 1v3h1v1h1v1h1v1h-1v4h1v6l1 2v4l-1 1h1l-1 1v2h1v6h1v2h-2v2h1v1h-1v1h-1v2h1v1h-2l-1-1v-2h-2v1h-1 1v4h-1v4h1v2h-1v1h-1v1l-1 1h-1l-1-1v-1h-1v2h-1v1h-2v1l-1-1-1-1v-1h-1l-1-1h-2v-1l-1-2h-2v-1l-1 1v1l-1 1v2h-1v1h-2v-1h-1l-1-1-1-1-1 1h-2v-2h-1l-1-1-1-2h-2v1h-1v3l-1-2h-1l1-1v-1l1-1 1-1v-2l-1-1v-1l-1-1-2-1v-1h-1l-1 1-1-1v-1h3v-2h-2l-1-1v-1h-3l-2 1-1-1h-1v3h-1l-1-1h-1v2h-2v-1 1h-2v2h-1v-1h-2l-1-1h-2 1-4v-2l-1-1h-2l-1 1v1h-2l-1 1-1 1 1 1h1l-1 1-1 1h-1l-1 1h-2v1h-2v1h-2l-1 1v1-1l-1 1h-3l-2 1-1 1h-1l-1 1v2h-1v1l-1 1h-1l-1 1-1 1h-2l-1 1v1l1 1h-1v1l-1 1h-1v1h-1l-1 1v-1h-1v1-1l-1 1-1-1v1h-3l-1 1h-6v-3h1l-1-1h-3v-1h-2v-1h-2l-1 1-1 1h-2v-1h-2l-1-1h-5l1-1 1-1v-1h-1l-1-1h-2v1h-1v-2h-5v1h-2v1h-1v1h-1l-2 1h-1v1h-1v1h-1l-1 2v1h-1l-1 1v1h-1v2h-2v1h-1v2l-1 1 1 1v1h-2v-1h-1v-1h-1v-3l1-1 1-4v-1h-1v-2l-1-1h-2v-1l-1 1-1 1h-2v1h-4v2l-1-1h-1v1h-1v-1h-2v1h-1v1h-3v-1h-1l-1 1h-1v-1h-1v1h-3v-1l-1-1h-1v-1h-2l-1-1h-2v-1l-1-1v1h-1v-1h-1v3l-1 1h-1l-1-1v1-1h-2v-1h-1v-3l-2 2h1v3h-2v-1l-1-1v-1l-1-1v-1h-2v-1l-1-1v-1 1h-1v1-1h-4v1l-1-1h-4v-3h1v-1h1v-2h-3l-1 1h-3v-1h-1v-1h-1v-1h-3v-1l-1-1v-1h-2l-1-1v-2l-1-1v-2h-1v-1h-2v-1h-1v1h-3v1h-1v1h-1v-1h-1v-1h-1v-1h-1v-2h-1v-1h-2v-1h1l-1-1-1-1h-1v1h-1v-1l-1-1h-3v-1h-1l-1-1v-1h-1l-1-2h-2v-1h-2v-1h-3v-1l1-1-1-1h-1v-1l1-1h-3v-1h-3l-2-1h-1v1h-1v1h-1v-1h-1v4h-1v1h-1v1h-1v1h-2v-2h-1v-2l-1-1h-1l-2-1v-1h-1v-1l-2-1h-3l-1-1-1-1h-2 1v-1h-1v-1h1v-1l-1-1h-2v-1l-2-1h-1v-1h-1l-1-1-1 1h-3v-1h-1v-1h-1v-1h-1v-2h-1v-1h-1v-2h-1v-1h-2v2h-1v-1 1h-1v1l-1-1v1l-1-1v-3h-1v-1l2-1v-1l-1-1h-1v-4h1v-2h-1l-1-1-1-2v-1h-1l-1-1v-3l-1-1v-2h4l1-1h1v3l2 1v1h3l1-1v-1l1-1h3l1-2 1-1v-2h-1v-2l-1-1v-5h-2l-1-1h-2v-1h-1l-1-2-2-1v-7l-1-2v-4h1l2-1 1-1v-2l-1-1h1l1-1 2-1h8l1 1h1v-1l1-1v-1l1-1 1-1v-2l-1-1v-1l-1-1h1v-1h2v-3l1-1 1-1v-1l1-2 1-1v-2h1l1 1 1 1h3v1h4l1 1h1v-1l1-1v1h1l1 1h4l2 1h2l4-1h1l1-1v-2l3-1 1-1v-2h2v-1h1l3 1h1l1-1h2v1h1v4h1l1 1h7v1h6l1-1h3v1h1v-1l6-3 3-1 2-1 1-1 3-1h2v1h1v-1h2l2 1v1h1l2-2h4v-1h1l1-1v-3h1v-1l1-1v-1h3v-1h5v-1h5v-1h3l2-1 1-1v1h8l1-1h1v-1l1 1 1-1h6v1l4 1h2l2 1v1h4l7 3z"/><path d="M372 268l-4 3h-1v13l-1 2-2 1h-1v1l-5-1-7 1-8 5-9 10-4 6-1 2-1 1-1 2-1 1-2 1-1 1h-7v8l-2 4v2l3 8v1l-1 2v3l-2 1-5 1h-2l-2 2-2 1h-2l-2 1-4 1h-3l-2 1v1h-3l-2 1h-6v1l-1 1h-1l-1 1-1 1h-1v1l-1-1h-1v1h-1v1l1 1 4 7v2l-1 1v2h1l2 1 2 1 2 1 1 1 1 1 2 1h1v4l2 2 1 1v2l-1 1h-2l-1 1h-4v1l-1 1h-1v4l1 1 1 1h2v1h1v1l1 3v1l1 1v3h-2l-1 1h-2l-3-2h-6l-2-1-1-1v-1h-1l-1 2v1l-1 1h-1l-3-1-7-3h-4v-1h-1l-1-1h-2l-4-1v-1h-6l-1 1-1-1v1h-1l-1 1h-8v-1l-1 1-2 1h-3v1h-5v1h-5v1h-3v1l-1 1v1h-1v3l-1 1h-1v1h-4l-2 2h-1v-1l-2-1h-2v1h-1v-1h-2l-3 1-1 1-2 1-3 1-6 3v1h-1v-1h-3l-1 1h-6v-1h-7l-1-1h-1v-4h-1v-1h-2l-1 1h-1l-3-1h-1v1h-2v2l-1 1-3 1v2l-1 1h-1l-4 1h-2l-2-1h-4l-1-1h-1v-1l-1 1v1h-1l-1-1h-4v-1h-3l-1-1-1-1h-1v2l-1 1-1 2v1l-1 1-1 1v3h-2v1h-1l1 1v1l1 1v2l-1 1-1 1v1l-1 1v1h-1l-1-1h-8l-2 1-1 1h-1l-1-1h-1l-1-1-1-1-1-1h-4l-1-1-1-1-1-4-1-1v-3l-2-3v-4l1-1v-1h-1l-1 1h-1v1l-1-1v-1h-1l-1 1h-5l-1-1h-3l-1-1h-1v-1l-1 1h-1v-1h-1v-1h-2v-1h-1l-1-1h-1v-3l-1 1h-1v1h-5v-3l-1-1h-2v-1l-1-1h1l1-1v-6l-2-3v-1l-1-1-1-1h-5l-1-1v-2l-1-1h-3v-1h-3l-1 1v1-1h-1v-1l-1-1h-4v-1h-2v-2h1v-1h3v-1h2v1h3v-1l2-1v-1h2l-1-1-1-1-1-1h-1l-1-1v-2l1-1v-2h-1v-4l-1-1h-1v-6h1v-3h-1v-1h-2l-3-2-2-1-1 1h-1l-1-1H9v1l-1 1v1H6l-1-1H4v-2l-1-1v-2l-1-1 1-1h1l1-1v-1H4l-1-1v-1H2v-1l-1-1v-1l1-2v-2l3-1v-1l1-1v-3H5v-3h1v-2h1v-2h2v-1h5l1-2 2-1v-1h1l1-1h3l-1-1v-1h-1 1v-2h1l1 1 1 1h1l1-1 1 1v-1h1l4-3h1l1 1v2h1v1l-1 1 1 1v1h4v-1h1l1-1h2l1-1h1v2h1v-1l1-1h1v-1l1-1v-1l1-1v-2l1-1v-1h1v-1h1v-2l1-1v-1h4l2 1 1-1h2l1 1h3l2-1 1-1h1l2 1h1l2-2 1-2 1-1h1v-1l-1-1 1-1h1l1-1h1l1-1v-1h1l2-1 1-1h2l2-2h2v-1h3l1-1 1-1h3l1-1v-2h1l1-1h5l1-1h-1v-3h1v-2h-1v-4l-1-1v-3l1-1v-2h2l1-1h2v-2h-2v-1h-1v-1h1l2-1 1-1h3v-3l-1-1h-1v-1l1-1v-2l-2-5-2-5v-1h-1v-2l-1-1v-1l1-2v-1l-1-3v-4h1v-1h-1v-1h1l1-1h1-1v-1l-2-1h-6l-2-1v-2h1l2-2h3l1-1h2v-1h2l3-1h5l1-1h1l7-2 1-1 1-1h1v2l1 1v1h1l1 1h1l3-2h2l1 1 1 1 1 1 1-1 1-1v-6h-2l-2-1h-1v-2l1-1v-3l1-2 1-1v-3l1-3v-2l1-1 1-2v-1l1-1v-2l2-5 2-5v-5h1v-2h2l1 1 2 1 3 2 6 2h3l1-1h5v1h4l1 1v2h-1v1h1l1-1h2v-1h1l1-1 1-1 1-1v-1h5v-1h1v-2h2v-5l-1-2v-1h-1l1-2v-1l-2-7v-1h1v-2l1-2 2-6 1-1h6l1-1h1v-1h2l2-1h1v-2h1l1-2h1v-1l-1-1 1-1v-1h-1v-4h1v-1h1v-1h2l3-1 1 1h2l1 1h1v-1h1v-1 1l3-1 2-1v4h1v1l-1 1h-1v2h1v2h2l1 1h1v2h-1v1h-1v1l1 1h2v1h2l1 1 1 1h2v1l1 1v3h1v1h2l1 1v1h1v-1l1 1 2 2v1h3l1-1 1-1 1 1h1v-1h1l1 1v1h1v2h1v1h1v1l2-1h1v-1h2v1h-1v1h1v1l1 1 1 1h2v2l1 1v1h1v3h1v1h-1v1l4 7h1v1h2v2h1v3l1 1v3l1 1-1 1v2h-1v2l-1 1 1 3v1h1v3h-1v1l-4 5-1 6h1l1 1v3l1 1h1v2l1-1h3v1l1 1h1l2 1v-1h1l1 2h10l1 1h8l1-1 1 1 1-1 1 1h4l2 1h4l3 2 3 4 1 1h4l1 2h1v2h2l2 1 2 1v1l1 1 3 1h8l-1 1v1h-1v1l1 1-1 1v1h2l1 1h1l1 2 1 6 3 5v3l1 1 6 6 1 1v4zM602 709v-1h-1v-2l1 1h2v1l1 1v-2h-1v-1h1l1-1v1h1v1h3v1l1 2v3l1 1h-1l-1 1h-1v1-1h-1v-1h1-1v3h-1v1h-1v1h-1v2l-1 1h-1v1h1v-1 1-1 2l-1 1v2h-1v1h1v-1l1 2h-2v2h-1v-1l-1 1v-1h1-1v1h-2l-1 1v1h-2l1 1v1h-1 1l-1 1-1-1h1v-1 1-1 1h-2l-1 1v-1h-1v1l-1 1h-1v1l1-1v1h1-1v1-1h-2v1h1-1v-1h-1 1-1l-1 1v-1h1-1v-1h-5v-1h-3v-1h-2v-1h-2v-1h-1v-1l1-2h-1v-2h-1v-1h1v-2l-1-2h1v-2h-1 1l-1-1h1v-1 1-2h2v-1h1l1-1h1v-1h1v-1h2l1-1v-1h1v-1l-1 1h-1v-1h1v-1h1v-1h1l1 1h3-1v-1h1-1v-1h1v-1h1v1-1h1v1h2v1-1h2v1h1v-1h2v-1 1h-1l1-1v-1h1v1h2v-1h1v2l1 1zm-1 21h1-1zM557 372v1l-1 1h-2v1l-1 1-1 1-1 1v1l-1 2v3h1v3l-1 1-1-1h-2l-1 1h-1l-1-1h-1l-1-1h-2v5h-1v1h1v3h-2v1l-1 1 1 1v1h-1v2h1v2l-1 1 1 1h1v-1l1 1h1v1h2l1 1v1h1v4h-2v1h1v2h-1v1h-1v1h-1v-1h-2v-1h-1l-1 1v2l1 1h-2v1h1l1 1v1l-1 1v1l-1 1h-1l-1-1v-1h-1v-1h-5v-1h3v-1h-5v-1l-1-1v-1h-1l1-1h-3l-1-1h-1v-1l-1-1-1-1v-2h1v-1l1-1v-2h1v-1l-1-1v-2h-1v-1l-1-1v-1l-1-3v-1l1-1v-1l-1-2h-1v-1l-1-1h-2v-1h-1v-1l-1-1v-1h-4v-1h1v-1h1-1v-1h1v-1h-5v1h-1l1-2v-1h8l1-1h1v-2h1l2-1 2-1h1l1 1h3l1-1 1-1v-2l1-1v-1h-1v-4h1v-8l1-3v-1l1-1v-1h1v-2h1v-3h3v-4h5l1-1h2v-1 1h1v4l1 1v1h1l1 1-1 1v1l-3 4-1 2-1 4-1 1-2 2 2 1 1 1h1l2 1 3 1h1l1-1h1l2 2 1 1v1h1v1h1l1 1h2z"/><path d="M613 340h1v2h1l-1 3-1 1v1l-1 1h-1v5h-1v2l-1 1v4h-2v1l-1 1v1h-2v2h-1v5h1v1l1 2h1l1 1v1h-1 1v1h1l-1 1 1 1h-1v2l-1 1h-1v1h1v2h-1v1l-1 1v1h-1v1h-1v2l-1-1v1h1v1l-1 1v1h1v1h-1v1h1v1h-1l2 2v4l-1 1v1l1 1h-1v2l1 4v1h1v4l1 1v2l-1 1v2h-1l-1 1v1l-1 1-1 1v3l-1 1v7l1 1v4h2v1h1v1h-1v2h2l1 1v1l-1 1h1v3h-1 1v1h1l1 1 1 1v1l1 1h1v1h1v6l-1 1v1h-2l-1 1v1l-1-1h-1v-1h-1v-1h-1l-1 1-3 1-1-1h-1v-1h-7l-1-1v1h-2l-1 1v1h3l1 1h1v3l1 1 1-1h1v1h1l1 1h1v3h1v1h-2v1h-2l-1-1v1h-2v-1l-1 1-1-1v1h-1v3l-1 1h-1l1 1v1l1 1h1v5h-1v1l1 1-1 1v1l-4 1h-1v-1l-1-2h-1l-1-1-1-1-1-1h-2l-1-1v-1h-2l-1-1-1-1h-1v-1h-7v1h-1v1l-1-1h-1l-1-1v-1h-1v-1h-1v-1h-4v-2h-1l-1 1h-3l-1-1v-4h-7v1h-4v1h-3l-2-1v-1h-1v-1h1v-2h-3l-1 1v1h-2l-1 1h-2v-3l-1-1 3 1h1v-1h1v-1h2v-5h-1l-2-1v-2h1v-1l1-1v-1h2v-1h1l1-1v1l1 1 2-1h1l1-1v1h1v1h1l1-1v-1h-1v-1h-1v-3h1-1v-1h-1v-1h1l1-2v-2l1 1v-3h-1v-1h1v1h2v-1l-1-1v-1h1-1v-1h-1v-1h-4v-2h1v-2h1v-1h1v-2h1-1v-3h-1 1v-1h1v-1l1 1 2-1h3v1h2v2h2v1h1l1-1h2l1 1v-1h5l1-1h-1v-1l-1-1-1-2v-1h1v-1h1l1 1h1l1 1v-1h1l1-1h2v1h1l1-1 1 1h2v-1l1-1v-4l-1-1v-1l-1-1 1-1v-2h-1v-1h1v-1h1l1-1v-1l1-1v-1l-1-1v-2l1-1-1-1h-1v-1h-3v-1l-1-1h-2v-1h-3v-1h-1v-1h-1v-1h-1v-1h-2l-1-1h-3l1-1h-4l-1-1h1v-2h-1v-1l1-1v-3h-1v-3l1-2v-1l1-1 1-1 1-1v-1h2l1-1v-1 1h4v1l1 1v2h6l2-1h5v-6l1-1v1h1v1h1v-2l1-1v-1l-1-1v-4l1-1v-1h1l1-1v-1l1-1 1-1h1v-1h1v-2h2l1-1v-1h1v-3h1l1-1h1v-1l2-2h1l2-1 1-1-1-1v-2h2v2l1 1h1v-1h1l1-1v1h1v1l1 1h1v-2h1l1-2 1-1 1-1h1v-1h2v2h-1v2h1z"/><path d="M656 403l-1 1v6l-1 1v3h-1v3h1v1h-1l-1 1v1h-1l-1 1h-1v1h-3v1h-2v1h-1v1h-4v-1h-2v2h-3v-1l-1 1-3-1v1h-1v-1h-1v4h-1v-1h-2v1h-1l-1 1h-1v1h-1v1l-1 1h-2v1h-1v-1h-1v1h-3v1h-2v1l-1-1v1l-1 1h-2v1h-7l-1-1v-7l1-1v-3l1-1 1-1v-1l1-1h1v-2l1-1v-2l-1-1v-4h-1v-1l-1-4v-2h1l-1-1v-1l1-1v-4l-2-2h1v-1h-1v-1h1v-1h-1v-1l1-1v-1h-1v-1l1 1v-2h1v-1h1v-1l1-1v-1h1v-2h-1v-1h1l1-1v-2h1l-1-1 1-1h-1v-1h-1 1v-1l-1-1h-1l-1-2v-1h-1v-5h1v-2h2v-1l1-1v-1h2v-4l1-1v-2h1v-5l2-1v-1l1-1 1-3h-1v-1h-1v-1l1-1h3v-1l1-1v-2h1-1 5v1h1v-1h1v-1h1v-1h1v-2l1-1 1-3 1-1 1-2 1-1v-1h1l1-1h2v1h1l2 1v1-1h2v-1l1-1 1-1 2-1 2-1h1v2h4l3-2h2l1-1h3v-5h1l1-1v3h1v3l1 1v1l1 1 1-1 1 1v1h-1l-2 1h-1l-1 1h-1l-1 1v1h-1v-1 1h-1v2l1 1h1v1h2l1 1h3v5l1 1h1v2l-1 1v2h-1v4h-2v2h-3l-1-1h-1l-1 1h-2v2h-1v2h1v2l-1 1h-1v1l-1 1h-1v1l-1 1h1v2l-1 1v1l1 1v1l2 1h1v1h1v1l1 1v2h1v1l1 2 1 1 1 1v3h-1v2h-1v2h-1v1h-1v3h-1l-1 1v6l-1-1v2h-1l-1 1h-2v2l1 1v1h1-1v1h1v1h1v1h1v1zM683 500v2h1v1h1v2h1v-1h2l1 1v1h2l1 1h1v2h-1v1h-1v1h-1l1 1h-2v3h1v1h1l1 1v2h-1v2h1v1h1v1l1 1v4h1v3h-1l-1 1h-3l-1-1-1-1h-4v2h-1v1l-1 1h-3l-1-1v1l1 1v1h-1v-1h-2v1h-2v2h-1v1h-3l-2 1h-3v-1h-1v2h-1v1h-2l-1 1-2 2v-1h-1l-1-1v1h-1l-1-1v-2h-1v-1h1v-1h1v-1h1v-1h-1v-3l-1-1h-2l1-1v-3l-1 1-1 1-4 5-1 1h-1v1-1l-1-1-1 1-1-2v-1l1-1h1v-2 1h-1v1l-1-1v-1h-1v1h-1v1h-1v1h-4l-2 1-1 1v-2h-1v-1l-1 1v-1h-1v-1l-3-2-1-1h-1l-1-1v1h-2l-2-1h-2l-1-1-1-1h-5l-2-1h-1v1h-1v1-1h-3l-1 1h1v1h-1v1h1v1h1v2h-2v1h-1v1l-1-1h-1l-1-1h-1v-1h-1l-5 1-1 2v1h-1v-1h-1l-1 1h-1v1h-1v3h-1v2h-1v2h-1v1l-2-2-1-1v-1h-1l-1-1v-2h-1v-1l1-1v-1h-1l-1-1h-2v-3h-1l-1 1v1h-2v-2h2v-9h-1l-1-1h-1v-1h1v-1h3v-1l1-1v1h4v-1h9l1-1h1v-1h1v-2l1-1h1l2-1h1v1h3v-4l-1-1h1v-1h1v-1h-1v-4h-1l-1-1h-1v-1h-3v-1h-1v-2h-1v-1h-1v-1l1-1-1-1v-1h1v-5h-1l-1-1v-1l-1-1h1l1-1v-3h1v-1l1 1 1-1v1h2v-1l1 1h2v-1h2v-1h-1v-3h-1l-1-1h-1v-1h-1l-1 1-1-1v-3h-1l-1-1h-3v-1l1-1h2v-1l1 1h7v1h1l1 1 3-1 1-1h1v1h1v1h1l1 1v-1l1-1h2v-1l1-1v2h2v2l1 1v1h1l-1 1h1l1 1 1 1 1 1v1h1v1h1v1h3v1l1 1 3 1 1 1v-1h1v1h2l1 1h9l3-1h1l1 1v-1h2v1h1v1h4v-1h1v-1h2l1 1v1h-1v1l1 1v1h-1v1l1 1v2h1v2h1v2h2v-1h1v-1h2l1 1 1 1h3v3h2v1h1v1h5l1-1v-1h2v3h1v1l1-1h1z"/><path d="M659 545l-1 1v1h2v1h1l1 1v4l-1 1h1v1h1v1l1 1v1h-1v1l-1 1h-1v1h-1v2l-1 1h-2v1h-1l-1 1v2l-1 1v1l-1 1v3l1 1v1l1 1v-1h3v2l-1 1-1 1v1h1v1h1v4h-1l1 2v2h3l1 1-1 1v2h-1v2l-1 1v1h2l1-1h2v1h-1v1h-2v1h-1v4h-1v3l1 1v1l-1 1v1h-1v1l-1 1h-4l-1-1h-2v-1h-1v-1h-2l-1 1-1 1h-1v1h-3v1h1v1h2v1h-1v3h1v1h-4l-1-1v-2h-3v-1h-5v-1 1h-1v3l-1 1h1v3h-2v1h-1v-1h-6v1h-1v2h-1v-1h-1l1-1v-2h-1v-3h1l-1-1v-1h-2v-1l-1 1-1 1h-1v2h-1v1h-1v-2h-1v-1l1-1v-1h1l1-1v-1h1v-2h1l1-1v-5h1v-1h1v-1l1-1h-1l1-1h-1v1h-2v1l-1-1-1-1v-1l1-1v-3h1v-1h-3v-1h-2v-1h-1v2h-4v-1h-2v2l-1 1h-2v1h-1v2h-2v-1h-3v-1h1v-1h-2v-1l-1 1v2h-2v3h-2v-3h-3l-1-1v-3h-2v-1l1-2v-1h1v-3h-2v-1h1v-1h1l1-1h1v-1h-1v-1h1v-2l-1-1v-1h-4v1h-2v-1l-1 1h-1v1h-1v1-1h-1v-1h-1 1l1-1v-1l1-1h1l1-2h1v-1h2v-1l1-1 1-1h1v-2h-1v-1h-1v-6h-1l1-2v-2h-1v-6h-1v-1h1v-2h-1v-3l1-1v-1l-1-1v-1h1v-2l1-1v-1l1-1v-2h1v-1h1v-1h2v1l1-1v-1l1-1 5-1h1l1 1 1 1h1l1 1v-1h1v-1h2v-2h-1v-1l-1-1h1v-1h-1l1-1h4v-1h1l2 1h5l1 1h1v1h2l2 1h2v-1h1l1 1 1 1 3 2 1 1v1l1-1v1h1v2l1-1 2-1h4v-1h1v-1h1v-1h1v1l1 1v-1h1v-1 2h-1l-1 1 1 2v1l1-1 1 1v-1l1 1v-1h1l4-5 1-1 1-1v2l-1 1v1h2l1 1v3h1v1h-1l-1 1v1h-1v1h1v2l1 1h1v-1h1v1h1zM521 471l1 1v3h2l1-1h2v-1h1v-1h3v2l-1 1h1v1l2 1h2l1-1h4v-1h1v-1h1v1h5v1h1l-1 1v2h1l1 1h2l1-1h1v-1 3h4v1h1l1 1 1 1v1h1l1 1v-1h1v-1h7l1 1h-3v1l1 1h-1l-1 1v2h-1 1l2 2h1v1h1v1l-1 1-1 1v1l-1 1-1 1h-1v1l-1 1v2h-2v2l-1 2v1h-1v2l-1 2h-1l-1-1v-1h-1v1h-3v1l-1 1 1 1v1l-1 2h-1v1l-2 3v1l-1 1v1h-1v1h-1v1h-6v-1l-1-1v-2h-1v-1h-3v1h-2v1h-1v-1h-1v-1l-2-1h-2v-1h-2l-1 2v1h-2 1v1h-1l-1 1 1 1 1 1h1v4h-3v2h-1v1h-2v1h-1v3h1l1 1v2h3l1 1v-1h1v6l1 1h2l1-1h1l1 1h1l1 1h1v4l1 1 1 1v1h-1v1l-1-1v-1h-1l-1-1-1-1-2-2v1h-1v2h-3l-1 1v1h-1v1h1v3h3v1h1-1v1h1v1-1h1v1h1v-1h2v1h1v1l1 1v1h1v3h-1v1h-2v-1h-1l-1 1h-3v1h-4v-1h-1v-1h-1l-1 1h-1l-1 1v-2h-1v-2h1v-2h-2v-1h-3v1h-1v1h1-1v1h-2v1h-5v-1l-2-1-1-1 1-1h1v-3l-1-1h-1l-1-1v-4h2v-1h1v-1h-1l-1 1h-1v-1 1h-6v-1h-1v3l1 2v1l-2 2h-1l-1-1v1h-1v1h-1l-1 1v2h1v1h1-1v2l-1 1v1h-1l-1 1v1h-1l1 1h-2l-1 2v1h-2v1h-1v-1l-1 1v9h1v2h1v4h1-1v2h-1l1 1h-1v1h-1v-1l-1 1h-1v1l-1 1h-1l-1-1v-2h-1l-1 1h-1v1h-1l-1 1h-1v1l-1 1h-1v1l-3-1-1 1h-1v-2h-1v-1h-3v-2h1l1-1h-1v-1h-1v-1h-1l-1-1v-1l1-1v-2h-1v1h-1v-3l-3-3h-1v-1l1-1v-1h-2v1h-1v-4l-1-1v-1h-1v-2l-4-5v-1h-1v2h-1v-1h-2l-1 2h-1 1v-1h-1l1-1h-1v-1h-1l-1-1-1-1v-1l-1-1v-1h1l1-1v-2l-1-1h-1v-1h-1v-2h-1v-1h-1v-2h-2v-2h-2v2h-1v3h-2l-1 1h1v7-1l-1-1h-1v-1l-1-1-1-2v-4h-1v-11l-1-1v-6h-1v-3h1-1v-1h1v-4l-1-2v-6h-1v-4h1v-1h-1v-1h-1v-1l-1-1v-2h-1v-1l-1-1v-1h-1v-3h2v2h1v-1l1-1v-2l-4-3-1-1v-1l-1-1v-1h-1v-4l-1-1v-1l-1-1-1-1v-1h-1v-2l-1-1h-1l-1-1-2-1h-1l-2-1-1-1h-1l-2-1v-1l-1-1v-4h2v-3h-1l1-1 1-2 1-1h1v-1h1l-1-1h-3v-2l-1-1h-1v-6h1l3-1v-1h1l1 1v2h1l1-1 1-1h5v2h3l2 2 2 1v1h-1v1h1v1l1 1v2h1v3l1 1 1 1 2 1h1l2 1v1l1 1v1h2l2 1h1v1h2l1-2v-1h1v-2h1v1h1v1l1-1v1l1 1h1v4l1 1v-1l1-1h2v-1l1 1 1 1v1l1 1-1 1h-1v1h1v1h1v-1l1-1v-2h1v-1h3v1h1l1-1h3v-2l1-1v-1h-1l-1-1v-2l1-2v-1h3v-1h2l1 1 1 1 1-2h1v-1l-1-1v-2h1v-1l1-1v-1h1v1h1-1v1h1v2l-1 1v1l-1 1h1v2h1l1-1v-1h2v-1h1v-1h1l1-1h1v-1h2v-2l-1-1h-1v-3h-1 1l-1-1h-1v-1h1-1l-1-2h1v-1h3v-1h1v-1h3-1v-1l1-1h1v-1h1v-1h3v1l1 1 2 1v4l1 1v2h1v1h2l1-1h1v-1l1 1-1 1v1h1l1-1v1h7l1 1 1 1v2l1 1v1h1v1h1v1l-1-1v1h-1l1 1v2l2 1v1l-1 1h-1v1l-1 1h1v1h2l1 2 1 1h5v1h1l2-1v1h2v-1h2l1-1h1v-2h-1v-1h1v-1h1z"/><path d="M518 570v1l-1 1v3h-1v1l-1-1h-1v1h-1l-1 1h-8v-1h-1v-1h-1l-1 1v1l-1 1h-1v-1h-1v-1h-1v-1h-1v1h-1v1l-1 1-2 2h-1v1h-1v1h3v3h-1v2h1v4h2v1h2l1-1v-1l1-1h1v1h2v-1h1v-1h1v2h2v1h1v2h1v1l-1 1-1 1v2h-1v2l-1 1v1h-1l1 1v1l-1 1v1l-1-1v3h1l1 1v1h2v2h1v1l1 1h2v1h-1v1l-1 1v3l-1 1-1 1v2h-1v3l1 2 1 1 1 1h1v-1h-1v-1h4v1h1v-1h2v2h1v4l1 1h1v-1h1v1h2l1-1h2v1h1l1 1h2v-1h1v-1h1v1h1v1h1v1l1 1v1h-1v6h-2v1h-1v-1h-2l-1 1-1 1h-1 1v1h-2v1l-1 1v1l-1-1h-1v-1h-1v-1h-1v-1 1h-1v1h-1l-2 1h-1l-1 1h-1v1h-1v4h-1v1h-3l-1 1h-1l-1 1h-2v-2h-2v1h-1l-1 1v3h-1v1-1h-1v-1h-1v-1l-2-1-1-1v-1l-1 1v1h-1l1 1h-1v1h-1l-1-1v-2h-1l-1 1v1h-2v2l-1 1h-1v1h-1v-1h-1l-1-1v-1h-1l-1-1h-1v-1h-2v-1h-2v2h-1 1l-1 1-2 2v1h-2v1-1h-4v1l-1-1v-1h-2v1h-1v3h-2v1h1v2l1 1v2h1l1 1v4h1v1h-1v5h1v2-1l-1 1h1-1v1h-1v-1h-2 1v-1h-4l-1 1h-1v-1h-1l1-1h-1l1-1-1-1v-3h-1 1v-1l-1-1v-1h-1l-1 1h-2l-1 1-1 1-1 1h-1v1h-3v-1h-2l-1 1h-1v1l-1-1-1-1v-2h1v-1h-3v-2h-1v-1l1-1v-2h-3l-1-1v1h-1v-1h-3l-1-1-1 1h-2l-1-1v-1l1-1v-2l1-1 1-1v-2l-1-2v-1h1v-1h1v-2h2l-1-1v-1h-1v-1h-2l-1 1v-1h-3v-1h-3v-1l1-1v-1h-1l1-1-1-1v-1h-1v-1l1-1-1-1v-2h-2v-4h1l2-1v-2 1h-4v1l-1-1h-7l-4 2-1 1h-1l-1 1h-1v1-1h-1l-1-1 3-3v-2h1l-1-1h-1v-1h1v-1h-1v-1h-2v-5l2-1v-1h2v-1l-1-1v-2l1-1v-1l1-1v-1l1 1h1l1-1h1v-2h1v-4l2 1h2v-2h1v-2h1v-1h1l1 1 1-1v-2h-1v-1h-1v-2l1-1v1h1v-1h1-1v-1l-1-1h1v-1l1-1v-13h-1v-4h1l-1-1v-4h-2v-1h-1l-1-1-1 1v2h-1l-1-1v-2l-1-1v-2h-1l1-1-1-1v-4h2v-1l1-1v-1h1v1l1 1h1l1-1v-1h1v-1l1-1h-1v-5h1v-3h-1v-1l1-1h2v2l1 1h2v-1h-1v-2l1-1v-3h2v10h1v4l1 2v1h1v1h1l1 1v1-6l-1-1h1v-1h2v-3h1v-2h2v2h1l1 1v1h1v1h1v2h1v1h1l1 1v3h-2v1l1 1v1l1 1 1 1 1 1h1l-1 1h1v1h-1 1l1-1v-1h1l1 1h1v-1l1-1v1l4 5v2h1v1l1 1v4h1v-1h2v1l-1 1v1h1l3 3v3h1v-1h1v2l-1 1v1l1 1h1v1h1v1h1l-1 1h-1v2h3v1h1v2h1l1-1 3 1v-1h1l1-1v-1h1l1-1h1v-1h1l1-1h1v2l1 1h1l1-1v-1h1l1-1v1h1v-1h1l-1-1h1v-2h1-1v-4h-1v-2h-1v-9l1-1v1h1v-1h2v-1l1-2h2l-1-1h1v-1l1-1h1v-1l1-1v-2h1-1v-1h-1v-2l1-1h1v-1h1v-1l1 1h1l2-2v-1l-1-2v-3h1v1h6v-1 1h1l1-1h1v1h-1v1h-2v4l1 1h1l1 1v3h-1l-1 1 1 1 2 1v1h5v-1h2v-1h1-1v-1h1v-1h3v1h2v2h-1v2h1v2zM736 347l-1 2-1 1h-1v-3h1l1 1 1-1h-1 1zm-29-13v-1l1-1v-1h-1v-1h-2v-3l1-1h4l3-1v1h-1v1l-1 1 1 1v1h1v1h-1v4h-2l-2-1h-1zm38-34v1l-1 1-1 1-1 1h-1v1h1v2h-1l-1-1v2l-1 1 3 4h2v-1h1v3h1v1h3l1-1h1v2h1-1v3l1 1v2h1v-1 1h1v3h1v1h1l-1 1h-2v1h-3v2h-1l-1 1v1h-1v2l-1 1h-1v1l1-1v1h-1 1v-1 2l1 1v1h-1v1h-1l-1 1-1 1-1 1-1 1-1 1v-1h1v-1l-1 1v-1h-1v1h-5v1h-1l-1 1h-1v1l-1-1h-1l-1-1v-1l-1-1h-1v-3h-1v-1h-2v-1l1-1v-2h-3v1h-1v-1h-1v-2h-1v-3l-1-1 1-1v-1h-1v-1h1l1 1h3v-1h-1v-1l-1-1h-1v-1l-1-1-2-1h-1l-1-1v-1h-1v-3h-1v-1l1-1h1v-1h2v-1h1-3l-2-1h-1v1h-1l-2-1v-1l-1-1h-1l-1-1v-1l-1-1v-1h-1v-1h-1v1l-1 1h-1v1h-1v-1h-1v1l2 2v1h-4l-1 2h-1l-1 1h-2l-2 1h-1v1l3 4h1v2h-1v1h-1v1l-4 1h-1v1l-1 1h-1v1h1v1h1v2h1l-1 1h-2l1 3 1 1h1v-1l1 1 1 1h3v-1h5v1l1 1 1 1h2v-2h1v-1h1l1-1 1 1h2v4l1 1v1l-1 1v1h1v1h1v1h-1l-3 2v4h1v1h1v1h1v1h1l1-1h1v2h2l1 1h3l2-1 1 1 1 3 1 1 1 2h1v1h-1v2h-1v1h-1v1h-2v1h-1v2l-1 1h-6l-1 1v-1h-1v1l-1-1-1 1v-1 1h-1v1h-1l-1 1v2h-1v1h-1v1h-1v1h-1v-3h-1v1h-1v2h-1v1h1v1h-1v1-1h-3v1h-1v2l-1 1v2h-1v1l-1 1v2h-1v1h-1v1l-2 1h-1v1h-1l-1 1v2l-1 1v1l1 1v2h1v1h1v2l-1 1h-1v1h-1v-2h-1v-1h-1v1-1h-1v1h-1v1l-1 1h-1v-1l-1-1h-5l-2-1h-1v-1h-5v-1l-1-1h-5v-1h-1v-1h-1v-1h-1v-1h1-1v-1l-1-1v-2h2v-1h1l1-1v-1l1 1v-6l1-1h1v-3h1v-2h1v-1l1-1v-1h1v-3l-2-1v-2l-1-1-1-1v-2l-1-1v-1h-1l-1-1-2-1h-1v-3l1-1v-1l-1-1 1-1v-1h1v-1h1v-1h1l1-1v-2h-1v-2h1v-2h1v-1h3v1h3l1-1v-1h1l1-1v-3h1v-2l1-1v-1l-1-1v-1h-1v-5h-3l-1-1h-2v-1h-1v-1h-1v-2h1v-1 1h1v-2h2l1-1h1l2-1 1-1-1-1h-2v-1l-1-1v-3h-1v-1l-1-1h1v-1l-1-1h-1v-2h-1v-1l-1-1v-1l-1-1h-1 1v-2h2v-2h-1v-4h1v-2h2l1-1 1-4v-2l1-1 1-1h1v-1l1-2 1-1h4v-1l1 1v2l1 1v4h-1v1h1v1h-1v2h5l1 1h1v-1h1v-2l3-1 1-1 2-1 1-1h1v-1h2v1l1 1v1h1v-1h1l1-1 1-1 2-1h1v1h4l1-1h1l1-1v-5l-1-1v-1l1-1 3-1 1-1h2l1 1h2v-2l1-1 1-1v1l1 1v-1h2l1-1v2h1v1l2 1v1h1v3h-1v1h1l1 1v2l1 1h-1 2v-1h1v4h1v2h-1v1h-1v-1h-1v3h1v2h2v1l-1 1v1h1v3h1v-1h6v-1h1v1h1l4 1h2l-1 1z"/><path d="M684 407v2l-1 1v1h-1v4l1-1v-1h1v-1h1l2-1h2v-1h1v-1l1 1h1v-1l2-1v1l-1 1v1-1h-1l-1 1v1h-1 1v1h-3v2h-1l-1 1h-2v1h-1v2h-1v1l-1 1-1 1h-3v2h-1v1l-1 1h-1v4h2l3 1 1 1v2-1h2v1h1v3h1v1h1v1h2v-1h2l1 1v-1h5v3l1 1 1 1h1l1 1v1h1v-1h2v4l1 2v2h-2v1h-1v1h-1l-3 2h-1v-1l-1-1-1-1-1-1v-2h-2v-1h-3l-1 1v3h1v1l-1 1v2h1v1h-1l-2 1h-1v1h-1v-1 3h-1 1v3h-1v2h-2v1h-2l-1-1h-1v2h-1v1h1l2 1h1v1h1v1h1l-1 1v2h1v1l1 1h2v1h1v1h1v1h2l1-1v-1 1l1-1v1l1-1v-1h1v1h-1 1v1h-1v1h1v3l1 4-1 1v4h-4l-1 1h-1v1h-1v1l-1 2v1l-1 1-1 1v-1h-1v-3h-2v1h-1v1h-5v-1h-1v-1h-2v-3h-3l-1-1h-1v-1h-2l-1 1v1h-2v-2h-1v-2h-1v-2l-1-1v-4l1-1h-1v-1h-2v1h-1v1h-4v-1h-1v-1h-2v1l-1-1h-1l-3 1h-9l-1-1h-2v-1h-1v1l-1-1-3-1-1-1v-1h-3v-1h-1v-1h-1v-1l-1-1-1-1-1-1h-1l1-1h-1v-1l-1-1v-2h-2v-8h-1v-1h-1l-1-1v-1l-1-1-1-1h-1v-1h-1 1v-3h-1l1-1v-1l-1-1h-2v-2h1v-1h-1v-1h-2v-4h7v-1h2l1-1v-1l1 1v-1h2v-1h3v-1h1v1h1v-1h2l1-1v-1h1v-1h1l1-1h1v-1h2v1h1v-4h1v1h1v-1l3 1 1-1 1 1h2v-2h2v1h4v-1h1v-1h2v-1h2l1-1h1l1-1h1v-1l1-1h1v-1h-1v-3h1v-3l1-1v-7h6v2h5v1h1l2 1h5l1 1v1h1v-1h1v-1h1v-1h2v1h1v2h1v-1h1l1-1zM788 351v-1 1zm15-3h-1v-1l1 1zm7-1v1h-1v-1h1-1l1-1v1zm-13-2h-1v-1h1v1zm2-2h1v1h-1v-1zm4 0v1h-2v-1h2zm-1 0h-3v-1h2v1h1zm7-4h-1zm-29-1h1l1 1h-1v2l-1-1 1-1h-1l-1 1v-1h1v-1zm27 0l-1-1h2l-1 1zm-36-21v-1l1 1h-1zm80-8l-1 1h1v1h-2v-1 2h-2v1h-1v1-1h-2v1h-2v1h-1l-1 1v1h-2l-1 1-1 1h-1v2h-2v1h-1v1l-3 2v2l-1 1v1l-2 1-1 1v-1l-1 1h-5l-1-1h-1l1-1h-1v3h-1v-1h-1v1l-1 1v-2h-1v1h-1v-1h-1v2-1h-1v1h1v1h-4v1h-1l-1 1-1-1-1 1v1h-2v1h-1v1h-1l-1 1h-2v1h-1v1h-1v1l-2 1v1h1l-1 1h-1v1h-1v1l-1-1v1h-1 1v1h-2v-1h-2v1h-1v1h2v1h-3v1h-3l-1 1h-1l-1 1-1-1h1l-1-1v-1h1v-1h-1v-1h1l1 1v-1h2v-2h1v1h1l1-1h2v-1h1l-1-1h-1v-1l1-1h-1 1l1-1v-1h2l1-1h1-4v1h-3l-1-1v-2h-1v-1h-1l-1 1v-1h-1v-1h2l2-1h1v-1l-1-1v-2h1v-1h1l1-1h2v-1h1v-1h1-1l1-1v-1h1l1-1-1-1h2v-2l1-1h1v-2h1v-2l-1-1h-1v-3 1l-1-1v-1h-1l-2-1h-1v-4h1-1l-1 1v1l-1 1h-3v-1h-2v-1h-1l-1 1-1-1v1-1h-1v1h-1v1l-1 1v-1h-1v2h-1 1v1h1-2l-1 1h-1v1l-1 1-1 1v1h-1v1h-1v1h1l-1 1h-1v3h-3v1h-2v1h-1l-3 1-1 1h-1v-1h-1v-3h-2v-2l-1-1v-5l-1 1h-4v-1h-1v-3h-1v1h-2l-3-3v-1l1-1v-2l1 1 1-1-1-1h-1l1-1h1l1-1 1-1 1-1v-1l3-2v-4l-1-2v-3h-1l1-1v-4h1v-2h-1v-1l-1-1v-2h1v-1h2l1-1v-1l1 1v1h1v2h3v2l1 1v2l1 1h1v2l1 1-1 2h2v-1l1-1 1-1 1-1v-1l2-1v-1h1v-2l2-1h1v-1h1l2-1 1-1v1h2l5-5h1v-1h3v2h2v-1h1l2-1v-3h1l1-1h1l1 1h1l1 1 2-1h1v-1l-1-1v-1h-1l1-1h2l1 1 2 2h1l2-1h1v-1l1 1h1v-1h1v-1l1-2 1-1h1v-1h1l4-1v-2h1v-6h1v-1h1v1h1l1 1 1 2h2l1 1h2v3h2v2h-1v1h1v2h-1 1l1 1h1l1-2 1-1v-1l1-1 1-1h2v2h-1v5h2v3h1v1l1 1v2l2 1v2h-1l1 1h1v2h1v1h2v2l-1 1v1h-1l-1 1h1v1l-1 1v1l1 1v2h2v2l2 4 1 1v2h2v3h-1v3h-1v1h-1v1h2v1z"/><path d="M761 415h-1 1v-1 1zm33-36v1h-1v-1h1zm-24-8v-1 1zm-2-1zm2 0h-1v-1l1 1zm1-4h-1v-1 1h1zm-25 63v-1h-2l-1 1h-4v3l-1 1v2l-1 1h-4v2h-1v3l-1 1h-3v-1l-1-1h1v-1h-1v-2h-3v-1 1h-2v3h-1v-1h-1l-1 2h-2l-1-1-1-1v-1h-1v1h-1v2h-1l-1-1v-1l-1-3-1-1v-2h-1l-2-2h-1l-1 1-1-1-1 1h-2v1l-1 2v2l-1 1-1 1h-1v-1l-1 1v-1h-5v1h-1v-1h-2v1h-2v-1h-1v-1h-1v-3h-1v-1h-2v1-2l-1-1-3-1h-2v-4h1l1-1v-1h1v-1l1-1h2l1-1h1v-2h1v-2h1l1-1h1l1-1 1-1 1-1h2v-1h-1l1-1 1-1v1-1h1v1l1-2v-1l-2 1-1 1-1-1v1h-1l-1 1h-1l-2 1h-1l-1 1v1l-1 1v-4h1v-1l1-1v-4h-1v-1h-1v-2l-1-1v-1l1-1v-2l1-1h1v-1h1v-1h2v-1h1v-1l1-1v-1l1-1v-1h1v-3h1v-2h1v-1h4v-1h-1v-1l1-1v-1h1v-1h1v3h1v-1h1v-1h1v-1h1v-2l1-1h1v-1l1-1v1l1-1 1 1v-1h1v1l1-1h6v-1h1v-2h1v-1h2v-1h1v-1h1v-2l1-1 1 1 1 1h1v1h4l2 1h2v1l1-1 1-1h3l2 1-1 1h1v1l1 1 1 1 1 1v1h1l1 1v2h-1v-1h-1l-1-1-1 1v1l-1 1v7h1v1h1v1h1l2 1h8v-1h1l1-1v-2h-1l1-1h1l1-1h1l2-2 2-2v-1h-2 2l1-1h1v-1h3v-1h5v1h1v1h2l1 1h-1l1 1h-1 1v1h3v-1h1l-1 1h1v1h1v1h1l1 1h1v-1h-1 6v1h1l-1-1 1-1h1v-1h1v3h1v-1h1v1h7v1h-2v2-1 2l1 1h-1v1l-1-1v1h-1v2h-1v1l1-1h1v3-1h-2v1h1l-1 1v-1 1h-3v-1h1l-1-1h-1v-2 2h-1v1h-1v-2h-2l1 1h-1l-2 1-1 1h-2v1l1 1h-1v-1 1l-1-1v1h-1v-1h1l1-1h-1v1h-1v-1 2h-2l1 1h-4l-1 1v1h-1v-1 1h-2v-1h-3v2h1v-1h1l1 1h1-1v3h-1v-1h-1 1-2l-1 1v1h1l-1 1v-1l-1 1h1v3l-1 1h-3v1h-2v-2l1-1-1-1v-1 1h-1v1h1-2 1-2v-1 1h-1 1v1h-1v1h1v1h1v1h1v1-1h1v1h-1l-1 1v-1l-1 1-1 1-1 2v1l-1-1h-1l1 1-1 1v1h-1v-1l-1 1v1-1h-2v1l-1 1v3h-1v1h-1v1h-1v3h-1l-1 1zm25-66h1-1zm2-2zM722 350h-2l1-1h1v1zm1-1v1l-1-1h-1 2zm-1 0v-2 2zm4-5h-3l-1 1-1 1v1l1 1v1h-1v-1 1l-2 3v1h-1v3l-2 1h-4v-1h-2v-2h-1l-1 1h-1v-1h-1v-1h-1l-1-1v-4l3-2h1v-1h-1v-1h-1v-2l1-1-1-1v-5l1-1h1l2 1h2v-4h1v-1h-1v-1l-1-1 1-1v-1h1v-1h1v-1h1v-2h1l2 1 1 1v1h1l1 1v1h1v1h-3l-1-1h-1v3l1 1v3h1v2h1v1h1v-1h3v2l-1 1v1h2v1h1v3zM728 538v2h-1l-1 1v1l-1 1v1h1v1h1l2 1v1h1v2h1v1l1 1v3l1 1v4h-1l-1 1v1h1l-1 1v1l-2 1h-2v1h-4l-1 1v1l-1 1-1-1h-1v-1h-1v-1h-1l-1 1-1 1h-1v2h-1l-1 1v1l-1 1v5-1 1h1l-1 1v1h-1v2h-1l-1 1h-1l-1 1h-3v1h-1v1l-1 2v3l1 1v1h1v1l-1 1h-2v1l-1 1v2h1l-1 1v2l-1 1h-2v1h-1v2l-1 1v1h-1v4l-1 1v2l-1 1h-1v2l1 1v2h-1l1 1h-1l-1 1v5h-2l-1-1v-1h-1v-1h-1v-1h-2v1l-1-1-1 1-1 1h-1l-1-1v1h-2v1h-1v1-1h-2v1h-4v1h-2v-1h-1v-1h-1v-1h-1l1-1h1v-1l1-1v-2h1v-1h1l1-1h2v-1h1l-1-1 1-1v-1h-1l-1-1-1-1h-2v1h-2v1h-5v-3h-1v-2h1v-1h-1v-1l-1-1h1v-2h1v-4h1v-1h2v-1h1l-1-1h-1l-1 1h-2v-1l1-1v-2l1-1v-3h-3v-2l-1-2 1-1v-2l-1-1v-1h-1v-2h1l1-1v-2h-3v1l-1-1h-1v-5l1-1v-1l1-1v-3h2v-1h2l1-1v-2h1v-1h1v-1h1v-1h1v-1h-1v-2h-1v-1h-1l1-1v-4l-1-1h-1v-1h-2v-3l2-1 1-1h2v-1h1v-2h1l1 1 1-1v1h1l2-1h1l1-1v1h1v-1h1v-2h1l1-1h2v1-1h1l-1-1v-1l1 1h3l1-1v-1l1-1v-2l1 1h3v1l2 1h3l1-1h4v-1l1-1h2v-1h1v-1h1v-1h2l1 1 1 1v2l-1 2h-1v-1 1h-1l-1 1v1h1v1h1v1-1h1v1l1-1 1-1v-1h1l1-1h1v-1l-1-1 1-1v-1h1l1 1v1h3v2l1 1v1h3v1h6l1 1v2h1z"/><path d="M768 488h-1 1zm-12-1v1-1h-1v-1h-1 1v-1l-1-1h-1l1-1 1 1 1 2v1zm-6-52h-1 1zm30 64h-3v3l-1 1h-1v2h-3v2h1v1h-4v2h1-1l-1 1h-1v1l-1 1v-1l-1-2h-1v-1h-1l-2 1-1-1-1-1h-1l-1-1v-2h-5v1h-1v-1h-3v-1h-1v-1h-4v1h-5v-1l-1-1v-1h2v-1l1-2v-1h-1v-1h-1v-1 1h-2v-2h-2v-1h-1v-2h-1v-1h-1v-1h1v-2l1-1v-1h2l1-1v-4h-1v-2h-1v-1h1v1l1-1h4v1h1v1h1l1 1 1-1v-1l1-1v-2l-1-1v-1h-1v-1h-1v-2h-3v1h-1v2h-1v2l-1-1h-1v1h-4v-1h-1v-2h-1v-1l1-1v-1h-1v-4h-1v1h-1v1l-1-1h-1v-1h-1v-1h1v-1l1-2v-1h1v-3h1v-2h-1v-1l-1 1h-5v-3h-1v-2h-2v-1h-3v-1h-4l-1-1h-1v-2l-1-1h1v-1l-1-1h-2v-1h-2l-1-1h-1v-1h-1v-1h-1v-1h-1v-2l1-2v-1h2l1-1h3l2 1v1h1v2h1v1l1 3v1h1v1h1v-2h1v-1h1v1l1 1h1l1 1h1l1-2h1v1h1v-3h2v-1 1h3v2h1v1h-1l1 1v1h3l1-1v-3l1-1v-1h4v-1h1v-2l1-1v-3h4l1-1h2v1h-1v7-1h2v-1 1h2v1l1 2h1v1h2l1 1h1v1h3v1h1l1 1h2v2l1 1v2h1v2l1 2h-1l1 1v1h1v3l1 1v1l1 1 1 1v3h1v1l1 1v3h2l-1 1 1 2v1l-1 1v1h-1l1 1h1v1h1l1 1h1v1h1v1h2l1 1h1v3h-1l1 2v1h1v-1 1h2l1 1h1l1 1 1 1v1h1v3l-1 1-2-1h-2v-1h-2v-1h-1l-2-1h-1l-1 1-1 1-1-1h-2v-2l-1-1-1-1h-1l-2-1h-2l-1 1h-1l-1 1-1 1h-3v-1h-1l-1-2v-1h-1l1-1h-1v-2h-3v-1h-1v1h1l-1 1v1h1v-1 1h1v2h2v1h1v1h1v1h1l1 1h2l2-1 1-1v-1h1l2 1h2l1 1v2h-1v-1 2h3l1 1h1l2 1 1 1 1 2 1 1z"/><path d="M788 502l-1-1h2v1h-1zm-1 0l-1-1-2-1h2l1 1v1zm-7-3h1l1 1 1 1 2 1 1 1 1 1 2 2 1 2v2l-1 1h-4l-2 1h-2l-1 1v1h-1v-1h-1v-1h-2v-1h-1v1l-1-1v-3h-1v-1l-1-1v-1h3v-2h1v-1h1l-1-1h1v-2h3zm9 0l-1 1v-1h-2l-1-1h-1l-1-1h-1l-1-1h-1l-1-1-1-1v-1h-1l1-1h3v1h1l1 1h1v1h1v1h3l1 1 1 1v1h-1z"/><path d="M776 574h-1v1-1h1zm1-7v1h-1v-1h1zm-2 0h1-2 1zm1-2h1-2 1zm3-3v1h-2v1-1h-1v-1l1-1h1v-1l1 1-1 1h1zm5-7v-1 1zm4-12v1l-1-1h1zm2 1v1h-1v-1l-1-1h2v1zm5-11h-1v-1l1 1zm0-1h1-2v-1h1v1zm-2 0v1h1-1l-1-1h-1v-1h2v1zm-2-1h-1l1-1v1zm5 0h-1l-1-1h2v1zm0-2v1h-1v-1h1zm-6 0l-1-1h1l1 1zm6-1h1v2h-1v-1h1-1v-1zm-5 0zm3 0h-1v-1l1 1zm3-2v1-1zm-8 1h-1v-2h1v2zm1-1h-1v-1h1v1zm13-1v-1 1zm-10 0h2v1h1v2h-1v-1h-4v-1h-1v-2h3v1zm1-2v1h-1v-1h1zm-3 0v1-1zm11 0h-1 1zm-1 0zm-4-1h-2 2zm-7-1v-1 1zm4 1h-2v-1h2v-1 2zm1-4h2v1h-2v-1zm0-1zm-3-1h-1 1zm8-2v1h-1v-1h1zm3-1v1-1 1-1zm-5 0h1v1h-1v-1zm4-2h-1 1zm-29-3h1v3l1 1v-1h1v1h2l1 1v1h-1l-1 1-1 1h-2v1l-1 1v2l-1 1h-2v-1h-1v-1h-3l-1 1v1l-1 1h-1v-1h-1v1l-1 1h-1 2v-1h2l1-1v-1h4v2h1v1h-1v1h-1v1h1v1h1v-1h1v1-1h-2v-1l1-1h1l1 1h1l1-1 2-1v-1h1l1-1 1 1h2l2 2v1l1 1 1 1v1h1v1h3v1h4l-1 1h-2v1h-1v1h-1v1l-1 1-1 1h-1l-1 1v-1l-1 1h-1v1h-1l1 1v-1h1-1 1v1h-1 1v-1h2v-1h2v1h1v-2l-1 1v-1l1-1h2v2h-1 1v2h-1 1-1v1l1 1h-1v1h1v-1 1h1-1v1h-1l-1 1h-1v-3h1-1v-1 3h-1v1h-1v-3 2h-1v-2 1h-1v1h-1v1h-1 1-1 1-1v1h4-1v1h-1 3l-1 1h1l-1 1h1-2v-1 1h-2 1v1h2-1l1 1v1h-1l1 1h-6v-1h-1v-1h-1l1 1 1 1v1h1v-1l1 1v-1l1 1h1v2l1 1h-1 1v2h1v1l-1 1v1-1l-1-1h-1v1h-1v1h-1v2l-1-1v-1h-1v-2h1-1l-1-1v1l-1 1h-1 1v2l-1 1h-1v3h-1l-1-1-1 1v-1h-3v-1h-1v-1 2h2l1 1h2v2h-1v1l-1 1v1h-1v-1h-1 1v2l-1 1v1l1 1v1h-1 1l-1 1-1-1v1h-1v1h1v2h-2v-2h-1v-1h-1l-1-1h-2v1h-1v1l-1-1h-1v1h-3v-1l-1-1v-2h-1v-2l-1-1h-1v2h-1v1l-1 1v-1l-1 1h-1v1h-2v-1h-4v-5h-1v-3h-1v-1l-1-1 1-1v-4l-1-1v1h-3v1h-1v-5h-1 1l-1-1v-3l-1-1v-1h-1v-2h-1v-1l-2-1h-1v-1h-1v-1l1-1v-1l1-1h1v-2h2v-1h2l1-1v-1l1-1h1l1-1 1-1v-2l2-1v-1h1v-3h-1 1v-1h-1l1-1v-2l1-1 1 1h4v-1h2v-1h-1v-2h-1v-2h1v-1h1v1h1v-1l1-1v-1h1v-2l1-3v-2h5v2l1 1h1l1 1h4v1h1l1 2h1v-1h1l1-1h1-1v-2h4zM942 251v3l-1 1v2h-1v3h-1v4h-1l-1 1h-4v1h-2l-2 1-1 1h-1l1 1h2v1l1 1-1 1v-1l-1-1v2h-1v-1h-1l-1-1v-1l-1-1v-4h-2v-2l-1 1h-1v-1h-2 1-1v1l-1 1v2l-1 1v2h1-1v4l-1 1h-2v2h-1v-1l-1-1h-2l1 1h-1v-1 1l-1 1h-1 1v1h-1v3h-1v1h-1l-1 1h-1v1h-6v1h-3v-1h-2l-3 1h-1v3h1v1l1 1v2h2v3l-2 3v1l-1-1h-1v-1l-1-1v1-1l-1 1h-6v-1h-4v-1h-3v-1h1l-1-1h-1v-2l-1-1h-1v-1l-1 1-1 1v1l-1-1h-1 1l-1 1h-1v1h-1v3l-1 1v2h-1l-1 1v1l-1 1-1 1v1l-2 1v1h-1 1l-1 1v1h-1v1h-3v1l-1-1v1h-1v-1h-2v-1h1v-1h1v-3h1v-3h-2v-2l-1-1-2-4v-2h-2v-2l-1-1v-3l1-1h1v-1l1-1v-2h-2l-1-1v-2h-2v-1h1v-2l-2-1v-2l-1-1v-1h-1v-3h-2v-5h1v-2h-2l-1 1-1 1v1l-1 1-1 2h-1l-1-1h-1 1v-2h-1v-1h1v-2h-2v-3h-2l-1-1h-2l-1-2-1-1h-1v-1h-1v1h-1v2h-1v-1h-2v-1h-2v-3h1v-1h1v1-2h1l-1-1v-1l-1-3-1-1-1-2v-1l1-1v-2h-2v-1l-1-1v-2l-1-1v-3h-1v1h-1l-1 1-2 1-1 1-1 1h-2v1l-3 1h-2v-5l-1-1-2-3-1-2v-10l2-1h1v-5h-1v-1l-1-1h-1v-1h-1v-4h-2l-1 1h-1v-1h-1v-1l1-1 1-2v-1h1v-1h-1v-1h3l1 1v1h1l1 1h1v1h1l2-2v-1h1v3h1v1h1l1 1 1 1 1-1v-3l1-1v-1h-1l1-3 4-1h1v-2h1v-1h10l1-1v1h1v-1h1v2h-1 1v4h1v1h-1v2l1 1v2h-1l1 1 1 1v1h1l-1 1h2v1h1v1h1v2h2v1h2v-1h2l1-1v1h2v-2l1 1h1v1l1 1h5v-1l1-1h3l1-1v5h1v1h1v1l1 1h1l3 1h2v-1h2v-1h4l1 1h1v1h3l1 1v1l1 1v3h-1v3h1v4h1v-2h1l1 1h1l1-1 1 1h1l1 1v1h1-1l-1 1h1v1h-1v1l1 1 1 2v1l1 1h1v2l1 1h1l3-1v-6h1v1l1-1v-1h1v-1h1l1-1h1v2h1v6l1 1v2l1 1 1 1 1 1v1l1 1v2l1 1v2h2v1h1l3-2h1v-1h-1v-2l1-1h2l1-1 1-1h5v-2l1-1h1l1 1v2h1v1h1v-1h1v-1h1v-1h1v-2h1v6h1v3l3 1h1v1h1v1h1l1 1v1h1l1-2h1v1l1 1h1l1-1h1z"/><path d="M781 8v1h2l1 1h1v3h1v1h1v3l-1 1v1l-3 4-6 5h1l2 1 1 1v1h1v1h2l2 1v1l1 1v1h1l1 1 1-1h1v-1l1-1 1-2v-1l1-1 2 1v1h1v1l1 1v1h1v1h1l3 1v2h-1l-1 1v1l2 6v2l-1 1v1l2 4v2h1v1l1 2h1l1 1v1h1v-1h1v1h1v1h4l1 1 1 1 1-1h2v-2h3l3-1 1 1h3l1-1v-1l3 1 2-1h1v-1h1v-1h1v-1l1-1h1v-2l1-1 3 1 1 1 2 1v2h1v1l1 2 1 1v1l2 1v1h1v1h1v1h1v2h1v2h-1v2h-1v-1 1h-1v1l-1 1v1h-1l1 1v1h-1 1v4h-2v1h-1v1h-1v1h-1v2l-1 1v2h-1l-1 1v1h-1v2h1-1v2h-1v2h1l-1 1v5h-1v1h1v2h1-1v1l1 1v3l-1 1v3h-1v1h-2v-1h-3v3l-1 1-1 4-1 1v1l-1 1v3l-1 1v11h-1v-1h-1v-3h-1v-1l-1-1v-4h-1l-2 2-6 6-3 4-1 1-2 1h-1v1h-1v2l-1 1-1 1-5 3-2 1-2 1v1l-1 1v2l-2 1 1 1 1 1v2h1v1l1 1 2 1h1l3 5v1h1l1 1h1l1-1 1-1 1-1h2v2h1v-2h1v3l-1 2-3 2h-2l-2-1h-2v5l1 2 2 3h-1v2h-1l-4 1v5h-1v3h-1v1l-1-1-1-1-1-1v-1l-1-1v-1h-1v1l-2 2h-1v-1h-1l-1-1-1-1-1-1h-3v1h1v1h-1v1l-1 2-1 1v1h1l1 1 1-1h2v4h1v1h2v2h1v5h-1l-2 1v10l1 1v1l2 3 1 1v5h2l3-2h1l1-1h1l1-1 2-1 1-1 1-1h1v3l1 1v2l1 1v1h2v2l-1 1v1l1 2 1 1 1 3v1l1 1h-1v1h-1v1h-1v3h2v1h2v1h1v4h-1v2l-4 1h-1l-1 1-1 1-1 2v1h-3v1h-1l-2 1-1-1-2-1-1-1h-2l-1 1h1v1l1 1v1h-1l-2 1v-1h-2v-1h-3v1h-1v3l-2 1h-1v1h-2v-2h-3v1h-1l-5 5h-2v-1l-1 1-2 1h-1v1h-1l-2 1v2h-1v1l-2 1v1h-1l-1 2h-1v2h-2l1-2v-1h-1v-2h-1v-1h-1v-2l-1-1v-2h-3v-2h-1v-1l-1-1v1h-1v1h-2v1h-1v2l1 1 1 1v1l-1 1v4l-1 1h1v3l1 2v3l-3 3v-1h1-2l-5-1v-1h-1v1h-6v1h-1v-3h-1v-3h-1v-2h-1v-3h1v1h1v-1h1v-1l-1-1v-4h-1v1h-2v-3l-1-1h-1v-1h1v-3h-1l-1-1-1-1v-1h-1v-2l-1 1h-2v1l-1-1v-1h-1v1l-1 1v2h-2l-1-1h-2l-1 1-3 1-1 1v2l1 1v4l-1 1h-1l-1 1h-4v-1h-1l-2 1-1 1-1 1h-1v1h-1v-1l-1-1v-1h-2v1h-1l-2 1-1 1-1 1-3 1h-1v1h1v1h-1v1h-1l-1-1h-5v-2h1v-1h-1v-1h1v-4l-1-1v-2l-1-1v1h-4l-1 1-1 2v1h-1l-1 1-1 1v2l-1 4-1 1h-2v2h-1v4h1v2h-2v2h-1 1l1 1v1l1 1v1h1v2h1l1 1-2 1v1l-1 1h1v3h-3l-1 1h-2l-3 2h-4v-2h-1l-2 1-2 1h-1v1l-1 1v1h-2v1-1h-1l-1-1h-1l-1-1h-1l-1 1h-1v1l-1 1-1 2-1 1-1 3-1 1v1l-1 1v1h-1v1h-1v1h-1v-1h-5 1-1v2l-1 1v1h-3l-1 1h-1v-2h1v-2h-1v1-1h-1v1h-1v1h-1v1h-1l-1 2-1 1v1h-1l-1-1v-1h-1v-1l-1 1h-1v1h-1l-1-1v-1l-1-1h-1v3h1v1h-1l-2 1-1 1-2 1v1l-1 1h-2v3h-1v1l-1 1h-2v2h-1v1l-1 1h-1l-1 1v1l-1 1h-1v1l-1 1v4l1 1v1l-1 1v2h-1v-1h-1v-1 1h-1v6h-5l-2 1h-6v-2l-1-1v-1h-4v-1h-2l-1-1h-2v-2l-1-1-3-2-1 1h-1l-3-1-2-1h-1l-1-1-2-1 2-2 1-1 1-4 1-2 3-4v-2h1-1v-1h-1v-1l-1-1v-4h-1v-1 1h-2l-1 1h-5v4h-3v3h-1v2h-1v1l-1 1v1l-1 3v8h-1v4h1v1l-1 1v2l-2 1v1h-3l-1-1h-1l-2 1-2 1h-1v1l-1 1-1 1h-8v1l-1 2-1-1v1h-1l-1-1h-1v-1l-4-3-3-3h-1l-3-2h-1v-5l2-1v-4h-1v-2l6-3 1-1v-1l1-1 1-1 1-2v-1h1l1-1v-1l1-1v-1h-1l-2-4v-3h-5l-5 2-3 1-1 1-1 1h-1l-1 2h-3l-2-1h-2v-1h-1l-1-1h-1l-6 3h-3v1h-1l1 1 1 1 1 1 1 1-1 1-1 1-1 1v1h-5l-2-1h-2v-2l-1-1v-1h-1v-2h-1v1h-1v-1l-2-1-1-1v-1l-1-1v-4h-5v-2h-1l-2-1v-1l-1-1v-1h-1l-3-1-2-1-1-1-1-1h-6v-1h1l1-2 2-1 4-3v-1h1v-2l1-1 2-3 1-1v-4l-2-2-1-1h-6l-2 1h-6l-6 3v1l-2 2h-1l-1 1h-5l1-7v-2h-2l-3-3v-1h-1l-2-2-2-3-1-1v-2h1l3-3-11-26 11 2 6 1 7 1 6 1h9l6-2h1l6 1 7 1 7 1h5l1 1 2 1 2 4 2 1 1 1 5 1 6 1 6 2 5 3 5 2 7-1 6-1v4l2 1h5l1 1 3-3 1-1h2l1-1 1-1 6-3 8-3 7-3 7-2 7-1 9-1h6l4 1h1l2-1h9l2-2 4-2h3v-1h1l4-2h1v-2h1l1-1 1-1v-1l1-1v-1l2-2 2-3h1l2-1 4-2 1-1h2v-1h1l2-3h2l1-1 1-1v-1l-1-1-1-2-1-1-2-2h-1l-1-2v-1l-1-1v-2h-1v-4h1v-1l1-1v-3l3-6h1v-1l1-1h2v-1h1l1 1h6l1 1 1 2 3 1 3 1h1l1 1 6 1h4l1-1 1-2 1-1h3l1-1v-1l1-1 4-3 1-2v-1l1-1v-1h2l1-1 3 2 3-1h6l3-1 1-1 1-1 3-3h2l1-1 1-2h1v-1h-1v-2l3-4 2-3v-1h1v-1h1l1-1 1-1h3l6 1 1-1v-2l1-1v-1h-1l2-1h1l1 1 1 1h2l1-1v-1h1v-1h1l2-1h1l1-1h2l1 1h3v-1l1 1h2v-1l1-1h1v1h1l1 1h1l4 2h1l1-1h3v1h2v-1l1-1v1l1-1v-6h-1v-1h-1v-4l-1-1-1-1h-1l-1-1v-1h-1l-2-2-1-1 1-1h-1v-1h-2v-1l-1-2v-1h-2l-3-2-1-1-2-3-1-1-1-1h-4l-1-1h-1l-1 1h-4l-1 1h-1l-2 4h-1v1l-1 1v1l-1 1h-1l-4-4-1-1-2-1h-2l-4 1h-1l-3-1-1 1-2 1-2 2-1 1-1-1-4-4v-1l-1-2v-4l4-1v-1l1-1-1-4v-2l4-6v-2l4-8 3-8 4-8 6 4 3 1h4l4 3h1v-1 1h1l1-1v-1h2v-1l1-1h1v-1h1v-1l1-1h1l1-1h1v-2h1l1-1 1-1 1 1 1-1h5l2-1 1-1 1-1v-5h1v-1h-1v-1l-1 1-1-1h-1 1-1v-1h1v-1h1v-4h1v-1h1v-1h1l1-2v-4l1-1v-1l2-1v-1h1v-4h1v-2h1v-1h1l-1-1 1-1 1-1v-1l1-1v-3l1-1h1l2-3h1l1-1h1v-1h1v-1h1l1-1v-1h1v-1h-1v-1h1v-1l1-1v-1h-1v-2l-1-2h-1v-1h1v-4l1-1h-1v-1h-1l-1-1h-1v-1h-1l-1 1h-2l-1 1h-2v-1h-1v-1h1v-2l-1-1 1-1h2l1-1v-1h1v-1h1v-1l1-2 2-1 1-1 1-1 1-1v-1l1-1V9h7l1-1h2z"/><path d="M942 251h-1l-1 1h-1l-1-2h-1l-1 2h-1v-1h-1v-1h-1v-1h-1v-1h-1l-3-1v-2l-1-1v-3h-1v-1l1-1v-1h-1v2h-1v1h-1l-1 1v1h-1v-1h-1v-3h-2l-1 1v2h-5l-1 1h-2v1h-1l-1 1v2h1v1h-2l-2 2h-1v-1h-2v-2l-1-1v-2l-1-1v-1l-1-1-1-1-1-1v-2l-1-1v-6l-1-1v-1h-2l-1 1-1 1v1h-2v6l-3 1h-1l-1-1v-2h-1l-1-1v-1l-1-2-1-1v-1h1v-1h-1l1-1h1-1v-1l-1-1h-1l-1-1-1 1h-1l-1-1h-1v2h-1v-4h-1v-3h1v-3l-1-1v-1l-1-1h-3v-1h-1l-1-1h-4v1h-2v1h-2l-3-1-1-1h-1v-1h-1v-1h-1v-5l-1 1h-3l-1 1v1h-5v-1h-1v-1h-1l-1-1v2h-2v-1l-1 1h-2v1h-1l-1-1v-1l-1 1h-1v-2h-1v-1h-1v-1h-2l1-1h-1v-1l-1-1-1-1h1v-2l-1-1v-2h1v-1h-1v-4h-1 1v-2h-1v1h-1v-1l-1 1h-10v1l-3-3v-7h1l2 1h3l3-2 1-2v-3h-1v2h-1l-1-1h1v-1h-2l-1 1v1h-1l-1 1h-1l-1-1h-1v-1l-3-5h-1l-2-1-1-1-1-1v-2l-1-1-1-1 2-1v-3h1l2-2 2-1 4-3 2-1v-1l1-1v-1l1-1 3-1 1-1 3-4 5-6 3-2h1v5h1v1l1 1v2h1v1h1v-11l1-1v-3l1-1v-1l1-1 1-4v-1h1v-3h3v1h2v-1h1v-3l1-1-1-1 1-1-1-2v-3h-1v-1h1v-4h-1 1v-1l1-1h-1v-2h1v-2h-1 2-1v-2h1v-1h1v-1h1v-2l1-1v-2h1v-1h1v-1h1v-1h1l1-1v-2l-1-1h1v-1l-1-1h1v-1l1-1v-1h1v-1 1h1v-1l1-1v-1l-1-1v-2h-1v-1h-1l-1-1v-1h-1l-1-1v-1l-1-1-1-1v-2h-1v-1l-1-1-1-1-1-1h-4v1l-1 1v1h-1v1h-1l-1 1v1h-1l-2 1-3-1v1h-1v1h-3l-1-1-3 1h-3v2h-2l-1 1-1-1-1-1h-4v-1h-1v-1h-1v1h-1v-1l-1-1h-1l-1-2-1-1v-2l-2-4v-1l1-1v-2l-2-6v-1l1-1h1v-2h-1l-2-1h-1l-1-1v-1l-1-1v-1h-1v-1l-2-1-1 1v1l-1 2-1 1v1h-1l-1 1-1-1h-1v-1l-1-1v-1l-2-1h-2v-1h-1v-1l-1-1-3-1 5-5 4-4v-2h1v-3h-1v-1h-1v-2l-1-1-1-1h-2V8h2l2-2 4-1h3l1-1h1l1-1h1v1h9l2-1h3V2l1-1h1l1 1h2V1h1v1h-1l1 1V2l1-1v1h1v1h3l2 1v2h1l1 1h1V6h1l1 1v1h1v2h2v1h3l1 1v1l1-1 1 1v1l1-1v-2h4l4 3h1l1 1h2v1h1v2l-1 1v1h1l1-1h1l1 1h-1l1 1 1 2h1v-1h1v1h1l-1 1h-1l1 1h-1v1l-1 1 1 1h1l2 1v2h2v2h1l-1 1v1l2 1h-1l-1 1v1h1l1 1h1l1 1-1 2-1 1v1l3 6h1v1h1v1h-1 1v1l-1 1v1h1l1 1v3h2v1h-1v1h-1v2h1v-2h2v1l-1 1v5l1 1 1 1v1h1v1l2 3v1h1v3h1v3h-1v2h1v4h1l3 2v2h-1l-1 2v2l1 1v1l-1 1v1l1 1h2v2l1 1 1 1 1 1h1l1-1 1 1v1h3l1-1 1 1v-1h5v-1h1v1h2v1h-1v2h1v-1h1v1h2v1l1 1v1h1l1-1h1l1 1h1v-2h2v2l1 1v1h2l1 1v1h1l1 1-1 1h2v2h1l1 1 2 2 1 1h1l1-1h2v1h3l-1 2-1 4v1h1v2h2v2l1 1v1h1v1h-1v2h-1v1l-1 1v2l3 3 1 1v4h1l1 1h2l1-1 3-1h1v1h1l1 1h6l1-1 1 1h2v-1h6v-2l1-1v-1h1v-1h-1 1v-1h1v1h1v-1h1v-1h1v-1h2v-1h1l1-1h1l1 1h4v-1l1-1h1v-1l1-1h2v-1h2l1-1h1l2-1h3l1 1h1v-1l1 1v1l1 1h1v1l-1 2v1l-1 1-1 1h1v2l1 1v1l1 1 1 1v1l-1 1v2h-1v1h-1v1l-1 1v1h-4v1l-1 1h-1v3h1v1h-1l1 1v1h-1l-1 1v2h-1v7l-1 1v1h-1v2l-1 1v1h1v1l-1 1h1v2h-1v1h-1v1h-1l-1 1 1 1v1h-1v3l-1-1v2h-2v3l-1 1h1v1h-1 1v1h-1v1h-1l-1 1h-2v1l-1 1v8h-1l-1 1-1 1-2-1v-3h-1v-1h-1l-2-2h-8l-1 1v1h-1l-1-1v-1h-2l-1 2v1l-1-1v1h-1v1h1v1h-1l-2 2v1h-3v1h-1l-1 1v-1h-2v2h-2l1 2h1v2l2 7 2 7-1 1v3l-1 2v4h1v1h-1v1l2 1zM615 780h-1 1zm6-13zm19-2h-1zm-7-3zm0-2z"/><circle cx="728.9" cy="563.8"/><circle cx="735.6" cy="563.7"/><circle cx="567.2" cy="499.1"/></svg>