<svg height="500" width="600" xmlns="http://www.w3.org/2000/svg" viewBox="0 0 565 475"><path d="M465 97l7-2 2 6 5 3 3-1h2l4-3 3 3 2 1 6-2 4 2 1 4h3l2 2 3 4 2-1-1-5 2-2 3 6 3 1 2 3h2l1-1 5-5 2 1 1-2 2 3 4 1h5l-1-2-1-7-5-8 3-3 2-5h10l2-1-1-4 2-4v-2l1-3-1-18 3-6-3-3 1-3-2-2-4 2-4 5-4 2-4 6-11 3-5-3 1-3-3-3-1-4h-4l-7-4-3 1-3-2-5 1-5-1-2-4-3-3-1-3-3-3-2-3-5-7-1-3-5-7-2-3-6-3-4 1-4-1-9-1-11 3-2 2 3 3-3 8 1 1 5 3 2-5 5 3-1 2 2 5 3 4 6 1 1-2 4-1 6-5 9 6-3 12 1 8v5l-3 1v14-1l-3-3h-1l-1 1-7 11-3 5v1l7 5 4-1 1 1-1 1-4 2v3l2 2z"/><path d="M545 113h-5l-4-1-2-3-1 2-2-1-5 5-1 1h-2l-2-3-3-1-3-6-2 2 1 5-2 1-3-4-2-2h-3l-1-4-4-2-6 2-2-1-3-3-4 3h-2l-3 1-5-3-2-6-7 2-3 3v3l-8-2-1 3 1 1 4 3v4l1 4 2 4v3l2 1 6-6 5 8v4l4 2v-2l5 2 3 4 2-2v-1l9 11v4l5 6v4l4-2 4-11h2l4 2 6-1 2-2-3-5 1-1 6-2 3-5 3-1v-5l1-3 2-1 2 2 1 1 5-5 1-5-1-1z"/><path d="M491 173l7-10 4-5v-4l-5-6v-4l-9-11v1l-2 2-3-4-5-2v4l-2 2-4 4h-5l-2 3h-1l-3 3h-2l-4 4h-2l-5 8-3-5-4-2-1 2 2 10-2 3-2 5 5 3 3 1 3 5 3-2 4-5 4-7 7-1 4 4-3 7-4 6 3 3v3l-3 3 1 1 5-2 7-10 11-6 3-1z"/><path d="M413 235v-1l-1-4 7-12 6-6c-3 2 4-1 4-1l5-5-2-2-2-4-3 2-5-2-1-1v-9l4-2-1-1v-1l1-3-5 2 1 2v3l-3 1-2 2-3-1h-5l-1-2 1-4 3-4 1-5 4-4 7 3h1l1 5 2 1 1 3v2l4 3 1 2 3 2 8-5v-2l5-7-3-5-3-1-5-3 2-5-7-1-4-4 1-3-7-7-4 2-3 4 1 2-1 2h-5l-2 2-2-1-2 2-4 4-2-2v-4l-2-1-3 1-3 7-1 6 4 6 3 3v5l2 5-1 4-5 4-2 7 4 5 3 5-2 3-1 4-1 3-1 3 2 3 12 1 4-1h2z"/><path d="M426 253v-3l3-1 4 4h2l4-1 3-2 3 3 2-3v-1l3-2 1-3 2-1 8-13-1-3 1-1 2 1 3-2 1-3 7-6 5-2 2-2v-5h-4l-8 1-5-3-3 1-8 10-2 1-6-2v-2l-1-5-3-2-4 1-3-1-5 5-4 1-6 6-7 12 1 4v3l1 1 2-1 4-1-10 11v3h2l4 4 8-1h2z"/><path d="M484 283l-2 4-2 2-3 4-5-1-4-2-2 1-9-1v-3l-4-3-2-3 2-2v-4l6-1v-2l-2-2h-3l-1 3-4-1-2-2-3-2 1-6v-1h-3l-2-1-5-2-3-3-6-2v-3l3-1 4 4h2l4-1 3-2 3 3 2-3v-1l3-2 1-3 2-1 8 5 5 2 9 16v2l7 3 1 3 4 1 1 3-2 1-3-1h-5l-4-1-2 1 4 1 4 2 4 2z"/><path d="M484 336l-7 2-3-3-3 3h-4l-2-4-2-5h-3l-4-8-3-3 2-2 1-1 4-6c-2 3 0-5 0-5l1-2h3l1-2-1-2 2-3v-4l2-1 4 2 5 1 3-4 4 3-1 2-2 3-4 1-1 1 3 1 6-2 9 4 1 8h-3l-1 2 2 3-1 3 2 3-3 3-2-1-5 11v2z"/><path d="M424 253h2l6 2 3 3 5 2 2 1h3v1l-1 6 3 2 2 2 4 1 1-3h3l2 2v2l-6 1v4l-2 2 2 3 4 3v3l9 1v4l-2 3 1 2-1 2h-3l-1 2v5l-4 6-1 1-2-2h-6l-3-3-5 4h-2l2-4v-1l-2-1-5 3-6-10 2-3-1-1-3-1-4-3 2-4 2-1 1-4-1-5-1-1-2 3s-6-5-5-3l-3-4 3-3 1-4 2-1v-5l1-2 3 2 1 2 4-2 1-1v-3l-5-2v-3z"/><path d="M371 276l10 8 7 2 7-1 3 1 2-1 2 1 1 3 3 2h5l3 3 3-1 3 1 2-4 2-1 1-4-1-5-1-1-2 3-5-3-3-4 3-3 1-4 2-1v-5l1-2 3 2 1 2 4-2 1-1v-3l-5-2v-3l-8 1-4-4h-2v-3l10-11-4 1-2 1-1-1v-2h-2l-4 1-12-1v9l-6 5-7 1-10 7-9 3v1l8 12v3z"/><path d="M363 260l9-3 10-7 7-1 6-5v-9l-2-3 1-3 1-3 1-4 2-3-3-5-4-5 2-7 5-4 1-4-2-5v-5l-3-3-8 4-1-1-4 3-3-1-6 9h-2l-4 3v4l-1 4-1 4-3 5 3 7-1 4-2 4 3 17c-1-2-2 9-2 9l1 4z"/><path d="M363 260l-1-4 2-9-3-17 2-4 1-4-3-7 3-5 1-4 1-4v-4l-1-1-2 3h-7l-3 5 1 2-1 2-2 1-10 13-1-1h-8l-2 3v5l1 2 9 4 5 4 1 2-3 4 1 4v2l-7 1-2 1 1 1v2h-5l-3-1h-4l-1 1 1 2-2 2v2l3 3-2 5 1 3-1 1h-4l-3 1 3 4-2 4h3v3h2l7-2 2 1v2l3 1 7 3 3-1 9 3 1 2 4-1v-4l-1-1 1-4 4-2 1-2h-2l-3-1-2-3 1-1h10l2 1 2-2v-3l-8-12v-1z"/><path d="M196 200l-1-16 1-4 5-2 7-6 10-4 5-2v-4l1-2h2l7 1v3l1 5v8l6 9 3 2 5-4h10l3 1 1 2-1 3-6 4 1 3 6 5h3l1 1-1 2 4 3 10 1 4-1 6-6 7 1 3 4-2 4v3l-3 2-2 2 1 5 6 4h3l8 9 1 7v4l5 3v2l5 1h1v-4l4-1 1-4-3-2-2-2 1-10 2-1 4 2 1-1 1 2 9 4 5 4 1 2-3 4 1 4v2l-7 1-2 1 1 1v2h-5l-3-1h-4l-1 1 1 2-2 2v2l3 3-2 5 1 3-1 1h-4l-3 1 3 4-2 4-4 1v2l-1 1-7-1-3-2-1-4-1-2-3 2-4-5-4-2v-3l-1-3h-2l-7 3v4h-3l-4-5h-4l-2-3 1-3 3 3 3 1 3-2v-5l3-3 2-2-1-3 5-4 1-7-2-4-2-6-7-10-4 2-5-5-7-4-3-7-5 2-10-6-5 2-7-1-6 4h-4l-5-4-4-2-14-3zM356 329l2-4 5-4 5 2 3-2-2-3 1-2 13 1 5 3 2 2 4-2 2-1 1 3h2l1-2 3-3 1 2v4l2 2h2l3-3 4-1 8-7h4l5-2-6-10 2-3-1-1-3-1-4-3-3-1-3 1-3-3h-5l-3-2-1-3-2-1-2 1-3-1-7 1-7-2-10-8-2 2-2-1h-10l-1 1 2 3 3 1h2l-1 2-4 2-1 4 1 1v4h3l2 4 1 6v3l-2-1-5 4-8 1-3 2 2 3 1 5h2l5 7z"/><path d="M408 325l4 7v3l-2 4-2 2-1 6 1 1 1-1 1 1v4l2 4 2 1v7l-1 5 1 2 2 2 6-1 1 2-2 2-2 4v1l1 1 12-4 4 2 1-1-1-3v-1l2-11 1-2 1-3 2-4-1-2v-4l5-5v-4l3-5h3l7-4 1-2-4-8-3-3 2-2-2-2h-6l-3-3-5 4h-2l2-4v-1l-2-1-5 3-5 2h-4l-8 7c2-2-4 1-4 1l-3 3z"/><path d="M436 375l2-11 1-2 1-3 2-4-1-2v-4l5-5v-4l3-5h3l7-4 1-2h3l2 5 2 4h4l3-3 3 3 7-2-4 10-3-1h-1l-1 1 3 3-1 9 1 3-1 1-3-1-1 2 1 2-3 3v1l-3 2 1 2-1 1h-5l-2 2v1l2 2-2 3-3 4-1-1-4 4-3-8-3-4-2 1-2-2-7-1zM408 325h-2l-2-2v-4l-1-2-3 3-1 2h-2l-1-3-2 1-4 2-2-2-5-3-13-1-1 2 2 3-3 2-5-2-5 4-2 4 1 10 2 10-5 6v1l5-2 2 3-1 7 3 5 2 1 3-4 2 3h1l4-5 1 1 2-1 4 1v4h3l-1 4-3 5-1 3h1l3-3 3 6 2-1h2l3-2v-3l1-2 3 1 5 2v-2l-1-2 1-1 3-3 5 2 3-2-1-2 1-5v-7l-2-1-2-4v-4l-1-1-1 1-1-1 1-6 2-2 2-4v-3l-4-7z"/><path d="M314 349l-2 5-3 1-6-1-2 1-3-1-3 5 1 1v3l2 2 6-1 2 1-3 12 4 4-1 7h3l4-4 2 1 8 4 1-1v-3l2-1 11-7 2 2 6 2 4-5 2 1h2v-1l4-1v-1l1-2h1l4-3-3-5 1-7-2-3-5 2v-1l5-6-2-10-4 3-3-4-4-4v-3h-2l-3 1-4-2-2 4-4 1-2 4-2-1-3 1-3-3-4 4v2l7 3 1 3-4 2c1-1-7-1-7-1z"/><path d="M279 281l2-4-2-2v-4l7-3h2l1 3v3l4 2 4 5 3-2 1 2 1 4 3 2 7 1 1-1v-2l4-1h3v3h2l7-2 2 1v2l3 1 7 3v8l-4 1-2 7-5 4-1 6-4-2-6 2v4l-1 5 7 4 2 7-3 1-3-3-4 4v2l7 3 1 3-4 2-7-1-1-3-3-1-4 3-3-1v-4l-2-2v-2l-4-1-1 2 1 2-3 2-1 2 1 2-8 9 2 9-4 3-1-1-7 4-3-2-10-19-4-3-3-1-2-2 2-3-3-2-3 2-4 1-2-10v-3l-1-16-3-9 2-1-6-12-8-7 1-3 1-2 11-1 8 2 5-1 1 2 6 6 5-1v-3l1-2 4-2 2 3 3-2h3z"/><path d="M314 349l-1-3-3-1-4 3-3-1v-4l-2-2v-2l-4-1-1 2 1 2-3 2-1 2 1 2-8 9 2 9-4 3-1-1-7 4-3-2-10-19c2 3-4-3-4-3l-3-1-2-2 2-3-3-2-3 2-4 1-2-10v-3l-4 4-1 1v7l-1 1h-2l-1-1-2 2 2 7h2l2 1v5l-1 16-10 9-1 4-2 2v2l1 4-1 4h1l5-1 8-1-1 4 2 2v5l1 1h5l2 2-3 3v3l-2 4 1 2h3l5 2v1l3 5h4l6-3 2 1v2l1 3 1 1h4l1-1v-4l-1-9 1-2h6l3-3 6 2 3-3 2 2 2-2 3 3h1l1-2 2-2 1 1 4-1 3-2 2-4 4-1 2 2 2-4h2l1-1 1-4-1-2-10-2-1-2h-6l-2-3 1-2 1-7-4-4 3-12-2-1-6 1-2-2v-3l-1-1 3-5 3 1 2-1 6 1 3-1 2-5zM154 235l4 2 8-3-1-1h-2l-1-3 1-2 3-1 3-5-8-6v-7l3-3 27-5 2-1h3l14 3 4 2 5 4h4l6-4 7 1 5-2 10 6 5-2 3 7 7 4 5 5 4-2 7 10 2 6 2 4-1 7-5 4 1 3-3 2-2 3v5l-3 2-3-1-3-3-1 3 2 3h4l4 5h3l2 2-2 4h-3l-3 2-2-3-4 2-1 2v3l-5 1-6-6-1-2-5 1-8-2-11 1-1 2-1 3-3 2 1 3-7 9-12-2-1-4-7-6-15-3-7-1h-3l-6-5-12-3-9-16v-5l3-2v-5l3-6-3-3 4-3zM386 448l-5 8v4l-10 9-11-4-2-7 1-4s8-8 5-6c-2 3 2-1 2-1l10-2h4l1-2 3 1 2 4zM484 292l-4-3 2-2 2-4 4 1 2 3-1 2-5 3zM319 318l6-2 4 2 1-6 5-4 2-7 4-1v-8l3-1 9 3 1 2 4-1h3l2 4 1 6v2h-2l-5 4-8 1-3 2 2 3 1 5h2l5 7 1 10-3 2-1 1-3-4-4-4v-3h-2l-3 1-4-2-2 4-4 1-2 4-2-1-2-7-7-4 1-9zM430 200s-1 2-3 2l-5-2-1-1v-9l4-2-1-2 1-3v-2l2 1 1 3v2l4 3 1 2-3 2-1 4 1 2z"/><path d="M421 190v-3l-1-2 5-2v-2l-1-5h-1l-7-3-4 4-1 5-3 4-1 4 1 2h5l4 1 1-2 3-1zM330 230v-5l2-3-1-2-9-4 1-4 2-4-1-6-1-1-6 4-3 9-1 7-5 4-3 1-3 1 8 9c-2-2 1 7 1 7v4l5 3v2l5 1h1v-4l4-1 1-4-3-2-2-2 1-10 2-1 4 2 1-1z"/><path d="M302 227l3-1 3-1 5-4 1-7 3-9 6-4 1 1 1 6-2 4-1 4 9 4 1 2h8l1 1 10-13 2-1 1-2-1-2 3-5h7l2-3 1 1 4-3h2l6-9 3 1 4-3 1 1 8-4-4-6 1-6 3-7 3-1 2 1v4l2 2 4-4 2-2 2 1 2-2h5l1-2-1-2 3-4 4-2 7 7-1 3 4 4 7 1 2-3-2-10 1-2 4 2 3 5 5-8h2l4-4h2l3-3h1l2-3h5l4-4 2-2v-2l-4-2v-4l-5-8-6 6-2-1v-3l-2-4-1-4v-4l-4-3-1-1 1-3 8 2v-3l3-3-2-2v-3l4-2 1-1-1-1-4 1-7-5v-1l3-5 8-11v-1h1l3 3v1-14l3-1v-5l-1-8 3-12-9-6-6 5-4 1-1 2-6-1-3-4-2-5 1-2-5-3-2 5-5-3-1-1 3-8-3-3h-2l-5 4-4 6 2 1 3 1 2 6-1 3-3 4-4 17 2 3-2 2-10 8-6-1-3-2-1 2-5 19-2 2 1 3 3 3 5-3 8 1 2-4 4-1 8 3 9 10v2l-2 1-11 1-3 3-3-1-2 4-5 1-4 5v4l-8 4-4 1-6 7-4 3-10-2-3-2-4 4-1 6 5 8-4 3-4 3-7 9c2-2-7 3-9 4l-14 1h-3l-17 7-7 5-3-1v-2l-11-1-12-4-3-3-17-2-4 1-21-2v3l1 5v8l6 9 3 2 5-4h10l3 1 1 2-1 3-6 4 1 3 6 5h3l1 1-1 2 4 3 9 1 5-1 6-6 7 1 2 4-1 4v3l-3 2-2 2 1 5 6 4h3zM306 388h3l4-4 2 1 8 4 1-1v-3l2-1 11-7 2 2 6 2 4-5 2 1h2v-1l4-1v-1l1-2h1l4-3 2 1 3-4 2 3h1l4-5 1 1 2-1 4 1v4h3l-1 4-3 5-1 3h1l3-3 3 6 2-1h2l2 5-2 3 1 2-6 7 1 7-7 5v4l-4 2v2l-3 1-3 5-8 1-4-3-4-2-4 4-4 1h-4l-9-5c2 1-2-5-2-5l2-4-2-2h-4l-1-1-3 1-4-3 2-4h2l1-1 1-4-1-2-10-2-1-2h-6l-2-3 1-2zM154 70l2-1-1 5 2 2v2l5 5 1 3h6l2 3h2l3 7 4 9-2 5v2l-3 6 1 4 11 5 12 2 13 8 4 2v2l2 5 3 8 3 6-1 2v4l-5 2-10 4-7 6-5 2-1 4 1 16h-3l-2 1-27 5-3 3v7l8 6-3 5-3 1-1 2 1 3h2l1 1-8 3-4-2-2-1h-6l-10-5h-7l-5 1h-6l-9 5-7-1-7 3-6-2-4-3-9-2-6 5-4-2-3-2-7-2-1-1h-2l-10 6-10-1-1-1 1-8-5-2-9-7h-3l-2-4 2-5-1-2-3-2-1-3-7-4v-1l3-1 2 1 2-2-1-7 1-6-5-4H3l-1-3 2-3-1-4 3-2 1-1v-3l5-2 4-1 4-1h6v3l2 1h5l5-6c2-2 12 2 12 2l5-4 17-4 1-2 1-6 5-4h1v-2l1-16 1-3-5-2v-1l5-1 12-1 2 2 4 1h1l2-2-2-2 9-19 1-1 9 4h3l2 3 8-3 2-13 3-2 5-1 2-3 1-4 3-1 5 2z"/><path d="M153 340h6l3 4h1l10-2 1-2 2-1 5-4h4l4-3 7-4 1 1 6 2 8-4 3 2-2 3 1 1h3v1l-3 6h3l8 3 4-3 5 4 2-2 1 1h2l1-1v-7l1-1 4-4-1-16-3-9 2-1-6-12-8-7-3 2 1 3-7 9-12-2-1-4-7-6-15-3-7-1h-3l-6-5-12-3-9-16v-5l4-2v-5l2-6-3-3 4-3-2-1h-6l-10-5h-7l-5 1h-6l-9 5-7-1-7 3-6-2-4-3-9-2-6 5-4-2-3-2-7-2-1-1h-2l-10 6-11-2 3 5 2 2v4l-1 3 1 3-1 3 4 4v5l-1 2h-5l-3-3-2 1-1 2 2 4v6l-1 2 1 2h3l2 3 8 6v2l5 7 2 2 2 1 3-4 3 3s16 14 14 11c-3-2 2 6 2 6h3l1-2 2 2v5l8 4h1l1 4 7 4v2l1 1h9l5 3h16l1 2-1 5 1 1 6-4 7-6 5 1 6 4zM391 383l3-2v-3l1-2 3 1 5 2v-2l-1-2 1-1 3-3 5 2 3-2 2 2 6-1 1 2-2 2-2 4v1l1 1 12-4 4 2 1-1-1-3v-1l7 1 2 2 2-1 3 4 3 8-2 1-2 4-2 1-1 3-6 3-2-1-2 2v1h-5l-2 2-2-1-3 1-6 3-5-4-1 3 2 5-5 2-2 4-5 1-3 1h-5l-3 3-9 3-5 4-2 2 4 7-3 2h-3l-4-7 1-6v-2l3-5 3-1v-2l4-2v-4l7-5-1-7 6-7-1-2 2-3-2-5z"/><path d="M418 409l3 1 4-3 1 5s-5 2-3 2c1-1-5-1-5-1l-1-3 1-1zM505 371l-3 19-1 6v6l-2 1-3-5-4-3-3-9v-7l5-14 7-6 4 2v10zM412 413l-1 2 4 1h6l-11 4z"/></svg>