<svg xmlns="http://www.w3.org/2000/svg" version="1" width="857" height="699" viewBox="0 0 627 511"><path d="M627 0v511H0V0z"/><path d="M602 106c0-6 14 1 14-4-1-8 1-4 1-9 0-2 3-7 2-10l-1-6c0-2 2-3 1-5-2-4 8-6 2-11-2-1 1-6-2-7-4 0-8 6-11 7-5 2-6 7-7 8l-10 2c-5 1-1 3-6-3-3-2-1-1-1-4 0-4-3-1-3-6 1-4-2 2-9-5-5-4-4 2-7 0-5-4-6-1-11-1-5-1-3-8-5-9-3-2-1-2-4-7-2-3-3-1-3-5l-2-3-4-7v-3c-1-1-2 1-2-2l-4-6c-4-2-7-6-11-4-2 2-8-7-17-2l-6 1-7 2c10 6-5 9 2 13 3 1 3 3 6-1 1-2 3 2 4 3 3 1-1-1 1 4 2 4 3 11 9 8 3-1 5 0 10-3 5-1 0-9 9 0 6 5 5 5 0 17-2 5 4 12-2 15-3 1 0 6-2 8-1 1 3 5 1 6-3 1-2-9-5-3-2 5-12 13-13 15-1 3 4 4 5 7 3 6 3-4 5 0 0 1 3-1 2 2 0 2-8 1-4 6l1 1h4c6-2 2 2 6 6 5 7 7 1 9 3 3 1 4-3 6-2 0 0 4 6 7 4 3-3 9-2 8 2-2 7 5 1 6 4 0 7 7 6 6 4-1-3 2-8 3-4l4 8c3 5 6 2 6 1-2-3 2-2 3-5 3-3 4 2 5-1 2-3 3 3 5 3 4 2 2 2 7 1v-1c-2-5 1-5-6-17-1-1 5-3 5-5z"/><path d="M570 126c1 2-6 3-6-4-1-3-8 3-6-4 1-4-5-5-8-2-3 2-7-4-7-4-2-1-3 3-6 2-2-2-4 4-9-3-4-4 0-8-6-6h-4c0 5-5 2-3 5 1 0 1 5-3 2-2-2 1 2-4-1-3-2-2 1-4 3-1 1 3-1 3 2 1 1 5 3 3 5s1 2 0 4 3 5 3 8c1 2 3-1 7-3 3-3-1 0 2 2 2 1 0 2 3 5 0 0 2 3 1 4-3 2-1 1 1 2l2 1c0-2 1-1 1-1 2 2 5 1 6 4 1 6 3 0 3 0 2-4 2-1 2 1l5 9c2 2 4-1 3 1 0 0-3 5-1 6 3 2 3 3 4 5 5 5-1 2 2 6h1c3-1 4-5 5-8 1-1 3-9 6-5s6 1 10 2c2 0 4-2 0-5 0-1-2-4 1-4 12-2 8-8 10-8 3-1 1 1 3-1 2-1-1-3 0-5l2-3 7 6-1-3c-4-2 5-1 5-7v-5c-5 1-3 1-7-1-2 0-3-6-5-3-1 3-2-2-5 1-1 3-5 2-3 5 0 1-3 4-6-1l-4-8c-1-4-4 1-3 4z"/><path d="M546 157l-5-9c0-2 0-5-2-1 0 0-2 6-3 0-1-3-4-2-6-4 0 0-1-1-1 1 0 11-2 0-5 8-1 3-9 0-8 1s3 1-3 2c-3 0 1 4-4 3-2 0-3 3-7 5-5 2-7 10-8 7-4-8-2-4-5-7-1 0-5 0-3 3 2 2 0 3 2 8 0 1 1 2-2 3l-1 3c-4 7 0 5 2 7s3-1 4 2c2 6 3 2 3 6l5-3c3-2 6-14 11-12 4 1 3-3 5-2l2 4c3 3 1 5-1 8-1 3-5 5-4 7 1 1-5 3-1 4 2 1 5 0 3 2 0 0 2 4 4 2l3-3 8-7c2 0 2-2 3-2l6-1c4-1 2-2 5-6l5-5 3-3 3-3c-3-4 3-1-2-6-1-2-1-3-4-5-2-1 1-6 1-6 1-2-1 1-3-1zm-35 50c-3 2-1 0-1 3l2-1 3-2v-1l-4 1zm16-4v2c0-1 3-2 0-2zm3 0h0zm-8-1c-2 2 1 2 1 0h-1zm2-1c2 2 4 0 3 0l-3-1v1zm4 0c-1 0 3 1 1-1l-1 1zm1-3s0 2 1 1c0 0 0-2-1-1zm0-1c-2-1-2 1 0 0zm-24-10h-1s0 2 1 0z"/><path d="M487 187c-2-2-6 0-2-7l1-3h-8v1h-1v-3l-1-1h-1l-1-1v-1l1-1h1v-1h-1l-1-1v-1l-1-1-1-1v-3l-1-1h-1v-1h-4v1h-1l-1 1h-2l-1 1v3l-1 1h1v2h-1l-1 1h-3v-1h-1v1h-1l-1 1v1h-2v-1l-1-1-1 1h-1l-1 1-1 1-1 1-1 1v1l-1 1h-3v-4l1-2-1-1-1-1h-1l-1-1v1l-1 1-1 1-1 1v1l-1 1v2l-1 1h-1l-1 1v3l1 1v1h-1v1h1v1l1 1v1l3 6c0 1 6-1-2 3-5 2 3 4 3 5 2 7 3-2 1 8-1 4-6 1-7 4-1 1 2 2-1 4-1 1-3 6 0 7 2 0 6 7 6 7 0 1-5 8-5 11 0 4-5 0 1 8l13 3c2 1 2-4 4-1 1 1 2 0 3-1 0-2-6-5 1-9 3-1 2-7 6-8 1 0 0-3 2-3 1 1-1 3 4-3 1-2 7 0 8-3 0-2 0-1 2-2l1-2-3-4v-1c-6 1-13-3-9-6 3-2 0-1 0-7h-4c-5 5 0 1-5 1-4-1 0 2-5 0-3-2-1-3-1-4-2-5-1-1 3-5 2-2-4-6 1-6l5-4c3-6 3 2 7 2 10-1-3 1 4 6 2 0 5 3 3 3-3 1 0 6 2 6 4 1-1 2 2 3v1h1c6 4 2 3 6 1 1-1 4 1 6-3 2-2 0-5 6-10 0-4-1 0-3-6-1-3-2 0-4-2zm-21 13v-3c-2 0-6 0-4 2 1 2 2 1 1 3 1 1 4 2 3-2z"/><path d="M458 253zm29-29c-3-3-2 2-5 0-3-1-3 3-5 0l-1-1-1-1-1 2c-2 1-2 0-2 2-1 3-7 1-8 3-5 6-3 4-4 3-2 0-1 3-2 3-4 1-3 7-6 8-7 4-1 7-1 9 1 2-1 3-1 4-2 3 2 0 2 0l3-2 3-1c-1 3-8 6-8 7 0 3-3 2-3 4-1 1-5 5-2 5 6 0 3 0 5 1 5 2-4 5 10 4l2-1c2-1 0-4 2-4 3 0 2-2 3-1-2-3-4-3-2-5 1-1 1 2 4 5l2 2 2 2c5 5 6-5 9 0 2 3 4 2 4 1 1-6 2-2 3-4 2-4-1-3 6-5 2-1 2-8 5-8 1-1 5-5 3-7s3-3 2 0l4-2v-4c1 0 3 1 2-2h-1l10-5c2-1 4-2 5 0 1 1 4-2 2-3l1-3c0-2 2-3-2-2-2 1-3-2-5-1l-4 2c-2 0-1-2-4-2-2 0-4-4-7-2l-4 3c0 3-3 2-4 5-1 5-13 2-10-1v-5c-2-1 2-1-1-3zm21-8s-1 2 1 1l-1-1zm-1 1h-1c0 1 3 3 1 0zm1 3c-3-2-5 2-2 0h2zm0 1l1 1c1-2-1-1-1-1zm-1 3c1 1 1-3-2-2v1c0 1 1-1 2 1z"/><path d="M514 317zm-25-48c-1 2-2-2-3 4 0 1-2 2-4-1-3-5-4 5-9 0 1 2-1 3-2 1l-2-4h-1l-1-1c-1-1 0 1-3 1-2 0 0 3-2 4 6 4 5 0 9 6 2 3 6-2 8 5 0 2 7-5 3 5-2 4 2 3 3 2-2-1 1 0 2-1 2-2 4 0 2-1-1-1-3-5 0-4l1 1c1 2 4 2 3 4-2 5-3 3-3 3l-2 1-1-2-1-1c0 2-1 9 5 6 1 0 3-7 6-1 1 2 1 5-3 3-1 0-6-1-3 2 4 2-3 4-3 5 0 7 10 5 6 10-3 3 6 0 7 1l3 1 3-1c0-4 5-6 6-4v2c2 1 0 1 1 2v4l1 1 3-3 2-1v-1c3-2 0-5 3-6l1-1-6-2c-2-1-1-7-6-2h-3l3-1c5-4 6 3 9 1 4-2 10 5 9 0s-7-2-7-6c-1-4-6-1-6-7 0-3-6-10-7-14l-4-6c-5-1-9-5-11-5v-4c-7 2-4 1-6 5z"/><path d="M534 342c0-2 0-1 0 0zm6-21c0 1 2-1-1-2l-1 1h2v1zm1-3h1v-1l-1 1zm2 1c-2 0 0 1 1 1l-1-1zm2 4c-1 1 2 0 1-1l-1 1zm-1 4v0zm-2-1l1 1-1-1zm-5-2h3l-2-1h-1v1zm-3 3v-1h-1l1 1zm2-2c-2 0-1 3 4 2l-1-1h-2l-1-1zm-1 5l4 1c4 1-3-3-3-3-2 0-4 2-1 2zm3 5s2 0 0-1l1-1-1-1-1 2c-2 0-1 0 0 1h1zm-1 4c3 0 1-2 1-2v1l-1 1zm-1 2c-1 1 1 2 1 1l-1-1zm-2 3c2 2 2-1 1-1l-1 1zm0 5h0zm1 2c0 2 2 5 2 2l-1-2h-1zm-3 4c0 2 2 1 1 0h-1zm-5 5c0 1 3 1 2-1h-1l-1 1zm0 3l-1-2 1 2zm1-1h-1c-1 0 2 3 2 0h-1zm-14-44c-1 0-1-1 0 0zm-1-5c-1-2-6 0-6 4l-3 1v4l-1 1v1l-1 1h-1l-1 1h1v1h1v2h-1v1h-3v-1l-1 1-1 1v2l1 1v2h-1v2h-1v1l-1 1-1 1-1 1-1 1h-1l-1 1-1 2c-2 3 5 5 5 11l1 2c2 1 4-2 4 4l2 6c0 2 2 0 3 1 3 2 5-5 6-3 3 4 2 5 7 3 2-1 3 1 4 2 3-1 1-5 1-6 1-2 4-4 1-5-5-2 3 0 4-1v-4c-1-1 1-2 3 1 1 2 1-3 3-3 1 0 2 1 0-2s-6-2 0-3v-2c-5-1 6 1-2-3-1-1 1-2 1-3 1-1 1 4 3 1 0 1 2 2 1-2-1-7 0-3-4-2 0 0-3 3-2 1l5-4c2-3 3-2-3-3-4-2-4-7-9-3-4 4-3-3-8 0-3 2 0-2 4-2 5 1 2-1 5-3l2-2-1-1-1-1h-1c-2-1 0-2-2-2l-2 1-3 3-1-1v-1-2-1c-1-1 1-1-1-2v-2z"/><path d="M496 331l1-1 1-1v1h3v-1h1v-2h-1v-1h-1l1-1h1l1-1v-1l1-1v-4l-3-1c-1-1-10 2-7-1 4-5-6-3-6-10 0-1 7-3 3-5-3-3 2-2 3-2 4 2 4-1 3-3-3-6-5 1-6 1-6 3-5-4-5-6h-1c-1 1-5 2-3-2 4-10-3-3-3-5-2-7-6-2-8-5-4-6-3-2-9-6l-2 1c0 6 5 2 5 5 0 4 3 2-2 6-5 3-4-6-8-4s2 7-3 8c-3 0 3 6-4 6-1 0-3-2-1 1 0 2 3 1 3 4s1 0 4 3 4-6 6 5c1 9-5 1-7 11l3 2 4 1c3 2 1 1-1 5-1 1 1 3 2 5l2 6 1 2c2 1 5-5 7-4 5 2-1 3 0 6 0 2 6-1 4-3l2-1h1c4 0-1 4 7 4 3 0 4 1 4 2l1-1h1l1-1 1-1 1-1 1-1v-1h1v-2h1v-2l-1-1v-2z"/><path d="M460 308c-2-11-3-2-6-5s-4 0-4-3-3-2-3-4c-2-3 0-1 1-1 7 0 1-6 4-6 5-1-1-6 3-8s3 7 8 4c5-4 2-2 2-6 0-3-5 1-5-5-14 1-5-2-10-4-2-1 1-1-5-1-3 0 1-4 2-5 0-2 3-1 3-4 0-1 7-4 8-7l-3 1-3 2s-4 3-2 0c0-1 2-2 1-4-1 1-2 2-3 1-2-3-2 2-4 1l-13-3c-1 8 0 12-7 14-5 2 3 1-8 2-6 0 0 0-5 2-6 2 1 3-8 4-3 0-2 2-9 3h-1c2 2 2 5 2 5l2 5 1 2c3 3 2-2 2 6h1l3 4c0 2 3 5 5 5s6 5 8 3h6c5-2 4 3 9 0 3-3 1 4 1 4l3 3c2 1-1 2 3 0l5 2c0 2 1 2 3 3 3 1 4-6 5 0l1 1c2-10 8-2 7-11z"/><path d="M424 265c7-2 6-6 7-14-6-8-1-4-1-8 0-3 5-10 5-11 0 0-4-7-6-7-3-1-1-6 0-7 3-2 0-3 1-4 1-3 6 0 7-4 2-10 1-1-1-8 0-1-8-3-3-5 8-4 2-2 2-3l-3-6c1 6-2 3-4 6-2 2-6-1-8 2s-6-2-8 2l-2 7c-1 3-3-1-6 2-2 2-1 0-3 1 0 3 2 0-1 7-1 1 0 6-4 9-2 1-1 5 0 6 4 5-1 4 0 8 1 1-4 3-2 11 1 3-1 6 1 9 3 4-6 14-3 18h2c7-1 6-3 9-3 9-1 2-2 8-4 5-2-1-2 5-2 11-1 3 0 8-2z"/><path d="M378 228c1 0 1 0 0 0zm14 48c-3-4 6-14 3-18-2-3 0-6-1-9-2-8 3-10 2-11-1-4 4-3 0-8-1-1-2-5 0-6 4-3 3-8 4-9 3-7 1-4 1-7 1-3-3-1-4 1-2 3 0 0-4 0 0 0-4-2-3 0 0 0 3 1-1 2-2 0 1-1-3 3-1 1 1 1-3 3 0 0-7 7-6 9l1 2h-2c-2 0 3 7-4 4-2 0 0 3-6-1l-3-1-3 3c-2 2-1 5-1 7-1 6 1 2 8 7 5 4 9 2 7 9-1 3-4 0-1 7 2 5-11 1-11 4 0 0 5 4-4 4-3 0-5-5-9-3-3 2 2 2-1 5-4 5 2 2 3 5 0 2-3-1-3 7 0 5 6 4-3 4-2 0-2-2-6 3 0 1 6 5 0 6-2 0-3-1-3 2l1 1c1 0 6-4 6 0 1 3 10-1 11 2 2 4 4 0 5 2 0 2 2 1 3 2 3 3 2 2 4 1h4c8 3 3 3 6 4l2 2c3 3 5 2 6 2 1-4-2-2 0-5 1-2-3-3 0-7 1-1 7 1 7-2 0-4-4-1-4-4-1-3-4-2-4-2-1-2 7-1 8-1 6 1 2-3 5 0 1 2 3 0 5-1h-1c0-8 1-3-2-6l-1-2-2-5s0-3-2-5h-1z"/><path d="M348 265l-5-4c-4-1 1-1-4-2-5-2 0-6 0-7 0-5-6-4-2-8 1-1-3-3-4-6-1-1-5 0-3-1s0-3-2-3c-6 0-5-2-10-5l-1-1c-2-3 2-4 1-7-1-2 4-1 7-6s0-3 0-7c0-5-11 4-13 3-5-3-5-2-7-1-7 0 0 2-1 3-4 4-3 5-10-1-3-2-4 0-3-3 1-5-2-4-4-6l-1-2-3-2c-6-4-9 1 1-8 6-6 1-9-8-8-10 1-5 1-6 3s-5 1-4-2c1-2-3-7-4-9-4-5-1-2 0-5 1-2-3-13-4-15l-8-1h-1c-4 3-4 2-3 7 1 1 2 3-3 3s-4 3-6 2c-4-3-12 3-15 7-1 1-7 7-9 7-7-3-4 0-7 6-1 4 1 7-3 10-2 1-1 2-1 2 1 2 5 2 5 5 1 1 11 0 7 2-3 1 2 1 3 1 4-1 2 6 6 6 10-1 4 1 12 2 2 1 3-1 5 1 2 3 2 0 4 1 3 0 0-4 2-5 5-2-1-14 9-5l5 4c2 0 2-4 4-2 3 1 4-3 6 0 1 1 12 14 12 10s2 1 3 2l4 4c3 2 2 0 6 4 5 5 4 1 6 1s0 3 1 4c9 6 1 5 6 9 1 1-2 1 0 3 2 1 0 3 2 4 3 2 0 3 0 5s-3 1-3 4-6 1-4 6c0 2-10 3-6 8s4 1 0 6c-3 4-11-8-14-2l6 8c3 1 3 0 4 3l2-1c2 0-3 9 2 5 4-3 6-3 4-5-4-5 0-5 1-6l1-1c3 0 2-4 5-1 2 1 3 1 2 3-1 4 3 4 4 4 2 2 3 1 5 1 3 1 5 8 4 11-2 2 8 6 10 4l3-1c0-3 1-2 3-2 6-1 0-5 0-6 4-5 4-3 6-3 9 0 3 1 3-4 0-8 3-5 3-7-1-3-7 0-3-5 3-3-2-3 1-5 4-2 6 3 9 3 9 0 4-4 4-4 0-3 13 1 11-4-3-7 0-4 1-7 2-7-2-5-7-9-7-5-9-1-8-7-10 1-7-2-7 4-1 2-4 3-3 4 3 2-2 3 2 3 6 1 4 8 1 8s-2-2-3 3c0 0 1 3-1 3zM384 304c-3 4 1 5 0 7-2 3 1 1 0 5h2c1 2-1 2 1 2 1 0 5 3 4 6-1 2 0 4-3 4-3-1-6 7-10 4h-2c-2 2-2 0-5 1-2 1-1 2 0 3v5c-2 2-1 3 0 2 2-2 2 1 2 1l4 5 2 3 4-7c3 0 6-4 9-1 2 2 5-1 5-1 0-1-2-1-2-4h6l8 2c3 0 7 3 7 4h4c4 0 2-2 4-3 3 0 1 2 1 3 0 6 6-2 7-3 2-2 0 1 1 2 4 2 1 2 1 6l4 3c0-3 2-2 3-5l5-1c4 0 4-5 6-3 1 2 0-1 1-1 4 0 2-2 4-3 3-2 2 4 7 0l-1-2-2-6c-1-2-3-4-2-5 2-4 4-3 1-5l-4-1-3-2-1-1c-1-6-2 1-5 0-2-1-3-1-3-3l-5-2c-4 2-1 1-3 0l-3-3s2-7-1-4c-5 3-4-2-9 0h-6c-2 2-6-3-8-3s-5-3-5-5l-3-4c-2 1-4 3-5 1-3-3 1 1-5 0-1 0-9-1-8 1 0 0 3-1 4 2 0 3 4 0 4 4 0 3-6 1-7 2z"/><path d="M440 357c1 3 3 5 0 7-1 0 0 2-2 3-3 2-1 2-3 4-1 2-2 5 1 5 5 0-1 2 2 5 1 2-1 5 1 6 2 0 1 0 2 2 0 1-2 3-1 4 1 2 2-1 3-1l-2 2-2 4 1 5 1 2c6 0 5-3 9 0v1c0 3-3 1-4 5l-3 3c1 3 5 1 7 1 3 0 3-2 4-2l5-1 4 3c2 0 1-2 1-2-1-2 0-3 1-4l1-9c2-9 7-6 5-9-2-4 3-2 2-5-3-6 0-6 3-7 4-2 2-6 2-6 0-3-2-3 0-4 1 0 4-6 5-4 3 3 2 0 5-1 3 0 2-1 3-2 4 0-1 0 3-3l-1-2c0-6-7-8-5-11l1-2c0-1-1-2-4-2-8 0-3-4-7-4h-1l-2 1c2 2-4 5-4 3-1-3 5-4 0-6-2-1-5 5-7 4-5 4-4-2-7 0-2 1 0 3-4 3-1 0 0 3-1 1-2-2-2 3-6 3l-5 1c-1 3-3 2-3 5l2 4zM377 467l-1-1c-1 1 0 2 1 1zM378 469v-1 1z"/><path d="M440 403l-1-5 2-4 2-2c-1 0-2 3-3 1-1-1 1-3 1-4-1-2 0-2-2-2-2-1 0-4-1-6-3-3 3-5-2-5-3 0-2-3-1-5 2-2 0-2 3-4 2-1 1-3 2-3 3-2 1-4 0-7l-2-4-4-3c0-4 3-4-1-6-1-1 1-4-1-2-1 1-7 9-7 3 0-1 2-3-1-3-2 1 0 3-4 3h-4c0-1-4-4-7-4l-8-2h-6c0 3 2 3 2 4 0 0-3 3-5 1-3-3-6 1-9 1l-4 7c2 1 0 2 0 4l1 2-1 2v2c1 3 3 2 2 4-3 6 2 5 1 8s-4 1-8 7c-2 3 6-3 9 0 1 2-1 2-1 3 2 1-2 2-1 3 2 3-1 3-1 5h2v4l3 1s1 3 2-1c0-2 2-3 3-1 3 5 5-4 8-3 2 1 5-2 7 1 0 1-2 6 1 4 2-1 0 3 0 6 0 2-7 7-4 8 1 0 4-6 6-1 0 2-1 6 2 5 2-1-1-2 4-1 3 1 2-6 3-6 8-2 7 5 10 3v-5c-2 0 1-2 2-2 2-3 5 4 10 0l1-1z"/><path d="M382 396v-4h-2c0-2 3-2 1-5-1-1 3-2 1-3 0-1 2-1 1-3-3-3-11 3-9 0 4-6 7-4 8-7s-4-2-1-8c1-2-1-1-2-4l-1 1c-2 5-2 2-3 2-3-1-1-5-3-4-1 1-1 3-1-1 0-2-3-1-3-3 0-6 0-3-2-4-3-1-3 3-5 0-1-3-4-2-4-1-1 2 1 2-1 3-2 3-2-2-4 1-2 2-3-1-2 1 0 1-3 5-3 2 0-2-1-5-1-1 0 2-1 2-3 2l-1-1c-2-2-7-1-7 1-1 3 2 3 3 4s8 2 5 6l-9 1-3-1c-2 2 0 5-5 6-8 1-5-2-8-2-2 0-1 3-4 1l-1-1c0 3-5 4-3 5 2 2-1 4 0 5 0 0 1 4 4 2l1-1h3c2-1 5 4 3 5-1 1-6 8-4 10l3 3c0 2 3 2 1 3l-1 3-2 2c2 6 7-3 9-2 4 1 6 4 9 4 0 0 3 3 4-3 0-1 3 0 5-2 1-1 6-1 5-4s4-4 4-1c1 1 2 4 3 3 3 0 1-1 3 1 3 3 6-4 7-4 2-1 4 4 4 1 0-1 1-3 2-2 2 2 5-1 3-2-3-1 2-1 3-1l3-3z"/><path d="M335 360c0-2 5-3 7-1l1 1 1-1c0-7-7-5-7-6-1-7-2-3-4-5l-2-3 4-4c5-2 0-3 1-5 3-7 7 2 9-1 3-3 2 4 8 3l5-7c0-5 2-3 5-3 1 0 4-9 6-10 5-3-2-4 0-6l1-1v-3h-4c-2 1-1 2-4-1-1-1-3 0-3-2-1-2-3 2-5-2-1-3-10 1-11-2 0-4-5 0-6 0l-1-1-3 1c-2 2-12-2-10-4 1-3-1-10-4-11-2 0-3 1-5-1-1 0-5 0-4-4 1-2 0-2-2-3-3-3-2 1-5 1l-1 1c-1 1-5 1-1 6 2 2 0 2-4 5-5 4 0-5-2-5l-2 1c0 2 2 7-2 4-3-2-6 2-4 4 1 3-3 4-5 3-2 0-1 0-2 2-1 0-3 1-3-1 1 0 3-1 0-3-1 0-4 4-4 1 1-2 3-1-1-5-2-2 0 7-7 1l-4-4c-4-2 0-12-9-12-4 0-4-3-7 0-3 4 3 6 2 7l-2 3-2 2c-3 2 1 6 3 7h1c1 0 4 3 4 5 0 1 2 2 2 5l2 4c0 1 4 5 1 4-4-1 0 4 0 5-1 1 2 1 0 6 0 3 3 7 1 10l-1 9 2 13c2 3-1-2 2-4 2-1 3-5 4 0 1 3 6 4 3 7-2 1 2 6 3 5l4-1 4 12c1 2 5 4 4 6-2 4 2 2 2 5 0 4 5 4 8 2 6-5 3 4 5 1l2-2c2 0 2-4 1-7v-7l4-3c2-2 6-2 4-6 0-2 2-4 3-3s3-1 2-3c-5-3 10-3 6-1-4 3 3 3 0 7-2 3 4 5 7 1 2-2 5 0 4 2s0 3 1 2l3 1 9-1c3-4-4-5-5-6s-4-1-3-4z"/><path d="M310 384c-1-1 2-3 0-5-2-1 3-2 3-5l1 1c3 2 2-1 4-1 3 0 0 3 8 2 5-1 3-4 5-6-1 1-2 0-1-2s-2-4-4-2c-3 4-9 2-7-1 3-4-4-4 0-7 4-2-11-2-6 1 1 2-1 4-2 3s-3 1-3 3c2 4-2 4-4 6l-4 3v7c1 3 1 7-1 7l-2 2c-2 3 1-6-5-1-3 2-8 2-8-2 0-3-4-1-2-5 1-2-3-4-4-6l-4-12-4 1c-1 1-5-4-3-5 3-3-2-4-3-7-1-5-2-1-4 0-3 2 0 7-2 4l-2-13c-2 0-1 4-2 5-1 2-1-1-2-2-1-3-2 4-2 4-1 3 2 6-1 6-3 1-3 2-3-1 0-4-2 0-3 2v2c0 2 1 7 3 6 5-3 2 5 2 7v5c1 2-2 6-1 7 2 2-3 1-1 3 3 2-3 2-3 3-1 5-2-1-5 4-2 5-3 0-5 4-2 3 1 3-3 4v5c5 1-2 7-2 7 1 4 3-2 14-1 7 1 0 1 1 4 0 2 3 2 1 4-1 1 2 2 1 3-3 5 12 3 6 7-2 2 0 5-3 7-7 6 10 3 9 7-2 4 2 4 1 5-2 3 4 2 5 2 3 2 8-5 9-1 0 2-3 8 3 6 1 0 6 4 4 0-1-3 3-5 0-9-2-3 0-10 2-7 1 0 6 1 6-1 7-10 6 7 13-1 3-4 3 3 5-1 1-3 3 7 5 2 2-6 4 0 5-1 3-2 5-1 6-4 0-2 3-2 5-4 1-1 2 1 4 2l4-4 3 1c4-5 0-11-1-10-4 3-5 0-6 1h-2c-3-1-1-4-2-5-3-2-7 1-7 0l-1-6 2-2 1-3c2-1-1-1-1-3l-3-3c-2-2 3-9 4-10 2-1-1-6-3-5h-3l-1 1c-3 2-4-2-4-2zM286 241v-2c-3-1 0-5-8-5h-1c-3 1 3 2-2 3-3 0 2 5 6 5 2 0 6 4 5-1z"/><path d="M252 277c9 0 5 10 9 12l4 4c7 6 5-3 7-1 4 4 2 3 1 5 0 3 3-1 4-1 3 2 1 3 0 3 0 2 2 1 3 1 1-2 0-2 2-2 2 1 6 0 5-3-2-2 1-6 4-4 4 3 2-2 2-4-1-3-1-2-4-3l-6-8c3-6 11 6 14 2 4-5 4-1 0-6s6-6 6-8c-2-5 4-3 4-6s3-2 3-4 3-3 0-5c-2-1 0-3-2-4-2-2 1-2 0-3-5-4 3-3-6-9-1-1 1-4-1-4s-1 4-6-1c-4-4-3-2-6-4l-4-4c-1-1-3-6-3-2s-11-9-12-10c-2-3-3 1-6 0-2-2-2 2-4 2l-5-4c-10-9-4 3-9 5-2 1 1 5-2 5-2-1-2 2-4-1-2-2-3 0-5-1-8-1-2-3-12-2-4 0-2-7-6-6-1 0-6 0-3-1 4-2-6-1-7-2 0-3-4-3-5-5l-5-1c-3 0-23 2-23 4-1 3 3 1 1 4-2 6 6 8 6 13 0 2 4 5-1 5-3-1-10 3-3 5 2 1 2 10-4 5l-6-3c-1-1 1 2-5 1-7 0 1 3 1 4l-1 1-1 3c0 3-5 1-3 6 1 1-2 2 1 3 3 0-1 2-1 3l1 4c0 3-4 3-2 6 2 2 4 10 6 11 8 5 8 0 10 0 0 1 2 7 8 9l8 3c6 2 6 6 8 4 2-1 4 4 9 2 6-3 5 5 9 5 5 0 1 5 2 6l4 3c3 1 3-1 4 1s3 0 2-1-1-5 3 0c2 3 3 1 3-2 0-1 5 1 7-2 1-4 2-4 7-4h-1c-2-1-6-5-3-7l2-2 2-3c1-1-5-3-2-7 3-3 3 0 7 0zm23-40c5-1-1-2 2-3h1c8 0 5 4 8 5v2c1 5-3 1-5 1-4 0-9-5-6-5zM487 292c1 0 2 1 0 0zm2-3c2 1 0-1-2 1-1 1-4 0-2 1h1l1 1 1 2 2-1s1 2 3-3c1-2-2-2-3-4l-1-1c-3-1-1 3 0 4zM378 485c-1 2 2 0-4 4-5 3-3 1-3 7v4c0 5 8 4 11 6 4 4 2-4 6-2 2 1 2-3 6-4l5-11c2-1 0-2 2-2s1-4 0-5h-1c-1 0-3-3-4-1h-5l-3 1c-2 1-4-1-6 1-1 1-3-1-4 2zM370 311zm3 33s0-3-2-1c-1 1-2 0 0-2v-5c-1-1-2-2 0-3 3-1 3 1 5-1h2c4 3 7-5 10-4 3 0 2-2 3-4 1-3-3-6-4-6-2 0 0 0-1-2h-2c-1 0-3 1-6-2l-2-2c-3-1 2-1-6-4v3l-1 1c-2 2 5 3 0 6-2 1-5 10-6 10-3 0-5-2-5 3l-5 7c-6 1-5-6-8-3-2 3-6-6-9 1-1 2 4 3-1 5l-4 4 2 3c2 2 3-2 4 5 0 1 7-1 7 6l-1 1c2 0 3 0 3-2 0-4 1-1 1 1 0 3 3-1 3-2-1-2 0 1 2-1 2-3 2 2 4-1 2-1 0-1 1-3 0-1 3-2 4 1 2 3 2-1 5 0 2 1 2-2 2 4 0 2 3 1 3 3 0 4 0 2 1 1 2-1 0 3 3 4 1 0 1 3 3-2l1-1v-2l1-2-1-2c0-2 2-3 0-4l-2-3-4-5zM463 211c-4 3 3 7 9 6-1-3 1-9 3-10v-1c-3-1 2-2-2-3-2 0-5-5-2-6 2 0-1-3-3-3l-2 3v3c1 4-2 3-3 2v2c0 6 3 5 0 7z"/><path d="M454 205c5 0 0 4 5-1h4v-2c1-2 0-1-1-3-2-2 2-2 4-2l2-3c-7-5 6-7-4-6-4 0-4-8-7-2l-5 4c-5 0 1 4-1 6-4 4-5 0-3 5 0 1-2 2 1 4 5 2 1-1 5 0zM330 237c-2 1 2 0 3 1 1 3 5 5 4 6-4 4 2 3 2 8 0 1-5 5 0 7 5 1 0 1 4 2l5 4c2 0 1-3 1-3 1-5 0-3 3-3s5-7-1-8c-4 0 1-1-2-3-1-1 2-2 3-4 0-6-3-3 7-4 0-2-1-5 1-7l3-3c-4-3 0 2-3-2-3-5-5 1-9-4l5-9-2-5c-1-2-6 2-6 2-2 1 1-1-3 5-3 5 1 4-1 7-3 4 4 5-9 9l-7 1c2 0 4 2 2 3z"/><path d="M312 211c2 1 13-8 13-3 0 4 3 2 0 7s-8 4-7 6c1 3-3 4-1 7l1 1c5 3 4 5 10 5l7-1c13-4 6-5 9-9 2-3-2-2 1-7 4-6 1-4 3-5 0 0 5-4 6-2l2 5-5 9c4 5 6-1 9 4 3 4-1-1 3 2l3 1c6 4 4 1 6 1 7 3 2-4 4-4h2v-1l-1-1c-1-2 6-9 6-9 4-2 2-2 3-3 4-4 1-3 3-3 4-1 1-2 1-2-1-2 3 0 3 0 4 0 2 3 4 0 1-2 5-4 4-1 2-1 1 1 3-1 3-3 5 1 6-2l2-7c2-4 6 1 8-2s6 0 8-2c2-3 5 0 4-6v-1l-1-1v-1h-1v-1h1v-1l-1-1v-3l1-1h1l1-1v-2l1-1v-1l1-1 1-1 1-1v-1l1 1h1l1 1 1 1-1 2v4h3l1-1v-1l1-1 1-1 1-1 1-1h1l1-1 1 1v1h2v-1l1-1h1v-1h1v1h3l1-1h1v-2h-1l1-1v-3l1-1h2l1-1h1v-1h4v1h1l1 1v3l1 1 1 1v1l1 1h1v1h-1l-1 1v1l1 1h1l1 1v3h1v-1h8c3-1 2-2 2-3-2-5 0-6-2-8-2-3 2-3 3-3 3 3 1-1 5 7 1 3 3-5 8-7 4-2 5-5 7-5 5 1 1-3 4-3 6-1 4-1 3-2s7 2 8-1c3-8 5 3 5-8l-2-1c-2-1-4 0-1-2 1-1-1-4-1-4-3-3-1-4-3-5-3-2 1-5-2-2-4 2-6 5-7 3 0-3-4-6-3-8s-2-2 0-4-2-4-3-5c0-3-4-1-3-2 2-2 1-5 4-3 5 3 2-1 4 1 4 3 4-2 3-2-2-3 3 0 3-5l-1-1c-4-5 4-4 4-6 1-3-2-1-2-2-2-4-2 6-5 0-1-3-6-4-5-7 1-2 11-10 13-15 3-6 2 4 5 3 2-1-2-5-1-6 2-2-1-7 2-8 6-3 0-10 2-15 5-12 6-12 0-17-9-9-4-1-9 0-5 3-7 2-10 3-6 3-7-4-9-8-2-5 2-3-1-4-1-1-3-5-4-3-3 4-3 2-6 1-7-4 8-7-2-13l-2 1c-3 3 0-4-8 7-1 1-3 2-1 4 1 1 5-4 5 2 0 4 5 3-2 10-3 2-2 8-5 11l-3 9c0 1 5 0-1 6-2 1-2-1-7 4-5 7-14-1-14 1-1 6-7 12-7 19 0 5-6 2 0 10 2 2 3-3 10-3 5 0 4 6 8-1 2-3 9-1 11 1l4 3c0 1 14 10 7 13-6 1-8-3-10-1s-3-1-6 1c-5 5-7-1-7 4 0 3-7-1-9 4-1 4-2 0-2 6 0 2-6 6-11 6-6 0-2 0-8 5-5 4-7 6-13 4-4 0-4-5-10-3 0 0-5 8-4 11 5 8 9 6-1 12-4 3-1-3-8 9-3 3-6 0-9 3-3 4-16 1-24 2-15 3-20 11-28 10-4-1 3-4-6-3-6 1-11-6-17-6-5 0-3-5-7-6-15-5-17-1-24-3-4-2-14-3-22-4 1 2 5 13 4 15-1 3-4 0 0 5 1 2 5 7 4 9-1 3 3 4 4 2s-4-2 6-3c9-1 14 2 8 8-10 9-7 4-1 8l3 2 1 2c2 2 5 1 4 6-1 3 0 1 3 3 7 6 6 5 10 1 1-1-6-3 1-3 2-1 2-2 7 1zM405 442c-5 3 1-1 0 0zm-38-39c-1 0-4 7-7 4-2-2 0-1-3-1-1 1-2-2-3-3 0-3-5-2-4 1s-4 3-5 4c-2 2-5 1-5 2-1 6-4 3-4 3-3 0-5-3-9-4-2-1-7 8-9 2l1 6c0 1 4-2 7 0 1 1-1 4 2 5h2c1-1 2 2 6-1 1-1 5 5 1 10l-3-1-4 4 2 3 5 1c4-1 0 3 6 1 1-1 6 1 1 5-3 2 1 4 1 7 0 2 3 1 4 2 0 1 1 4 7 5h5c3 3 6-2 6 0 1 3 3 0 2-2-2-2 1-2 1-1l1 2c2 2 2-3 3 0 0 2 5 1 3 3s5 1 6 0c1-2-2-2 0-4 1 0-1 2 1 2 1 1 0 2 2 2-1-3 2-1 2-4s7 1 6-4c-2-4 1 0 4-3 3-2-1 0 0-3 1-2 4-2 5-2l1-1 1-1c5-3-1-9 5-13l1-2c6-4 0-5 3-6 3-2-1-5 0-7-5-1-2 0-4 1-3 1-2-3-2-5-2-5-5 1-6 1-3-1 4-6 4-8 0-3 2-7 0-6-3 2-1-3-1-4-2-3-5 0-7-1-3-1-5 8-8 3-1-2-3-1-3 1-1 4-2 1-2 1l-3-1-3 3c-1 0-6 0-3 1 2 1-1 4-3 2-1-1-2 1-2 2 0 3-2-2-4-1zM465 263c-2 2 0 2 2 5l1 1 3 1-2-2c-3-3-3-6-4-5zm4 6l2 4c1 2 3 1 2-1l-2-2-3-1h1zM202 198s-1-1 1-2c4-3 2-6 3-10 3-6 0-9 7-6 2 0 8-6 9-7 3-4 11-10 15-7 2 1 1-2 6-2s4-2 3-3c-1-5-1-4 3-7-1-1 0-3-4-9-1-2-1-10-3-11-1-1-2-1 0-3 2-1-3 0-5-2-15-18-19-10-26-15-1-1-3 0-5-2-2-1-10-1-6-10 2-4 3 0 4-7 0-5 4-3-1-11-1-3 0-13-5-13-2 0-1-3-6-3-3 0-5-7-7-9-5-3 1-2-3-5-2-1 6-6-3-5-2 0-5-5-6 1-2 7-10 3-13 7-4 5-1 18-8 15-2-1-3 3-5 0s-4 2-12-6c-3-3-4 0-9 6-1 2-7 9-7 11 0 5 3 6 1 7-4 1-7-5-7-5-2 1-5 2-12 1h-8c-1 3 5 1 2 8v9c-1 2 3 10-3 9-2-1-2 1-1 2 1 2-5 0-5 5 0 6-2 4-6 6l-14 3c-4 1-4-3-5 0s-3 0-4 2c-4 3-8-7-13 0-7 8-6 2-10 3-3 1-2-2-2-3 2-4-4 1-7-2-2-2-1 1-7 2-1 1-5-4-8 4-2 4-6 0-5 5 0 2 1 3-1 5-2 1 0 6 3 5 2-1 8 2 7 5-3 6-1 7-3 10-2 2 4 6-3 6-1 0-6-4-5 0 1 1 3 0 3 2 2 2 4 1 7 6 1 1 3 0 3 5 0 3-3 5-1 7 2 3-3 3 4 3 3 1-3 1 2 5 4 2 6 5 11 6 4 1-2 2 0 4 3 4-3 7 2 9 1 1 4 4 3 6 18 1 9 1 15-5l5-4c1-2 4 2 8 3 7 1 4 5 14 1 2-1 7-1 8 2 0 5 12 7 14 6 5-2 10-2 13-1 4 1 8 1 9-2 2-3 10-1 17-1 14 0 10 3 14 4l8 5c6 1 4-2 5-1l6 3c6 5 6-4 4-5-7-2 0-6 3-5 5 0 1-3 1-5 0-5-8-7-6-13 2-3-2-1-1-4 0-2 20-4 23-4l5 1z"/><path d="M159 248c-3-1 0-2-1-3-2-5 3-3 3-6l1-3 1-1c0-1-8-4-1-4l-8-5c-4-1 0-4-14-4-7 0-15-2-17 1-1 3-5 3-9 2-3-1-8-1-13 1-2 1-14-1-14-6-1-3-6-3-8-2-10 4-7 0-14-1-4-1-7-5-8-3l-5 4c-6 6 3 6-15 5l-1 1c-3 2-2-1-3 4 0 1-2 2-1 6 1 2 4 4 2 11-1 4-7 6-7 0 1-3-4-1-4 1 1 4-3 0 1 7 1 1-3 1-1 4 2 1-1 1-1 3 2 2-1 0 1 4 1 1 1 7 4 4 1-1 2 1 3 2 4 2 2 5 9 10 2 1 4 4 4 7 1 4 6-5 8-3l1 1c2 2 4 2 4 5l6 8c2 3 4 0 6 7s3-1 8 4c2 1-2 5 0 5 3 1 5 8 8 5 4-1 0 5 1 5 0 2 1 0 5 2 1 1 1-3 3 5 1 4 4-3 4 0 0 6 4 0 6 2 10 9 5 2 10 5 2 2 2-1 4 0 2 2 9-1 10 0 5 5-5 7 1 12 2 2 3 0 2-2-1-1 9-10 13-8 2 1 4 1 5 3 2 1 2-1 5 2 4 4 6-3 9 4 1 2-3 5 2 5 5 1 0 5 1 7 2 4-2 1 13 4 12 3 8-5 19-7 16-2 10-9 19-5 3 0 4-1 9 5l4 2c1 2 1 0 3 0 5-2-2-2 2-6 2-1 4-6 5 0 0 1 1-1 2 1l2 3c1-2 3-6 3-2 0 3 0 2 3 1 3 0 0-3 1-6 0 0 1-7 2-4 1 1 1 4 2 2 1-1 0-5 2-5l1-9c2-3-1-7-1-10 2-5-1-5 0-6 0-1-4-6 0-5 3 1-1-3-1-4l-2-4c0-3-2-4-2-5 0-2-3-5-4-5-5 0-6 0-7 4-2 3-7 1-7 2 0 3-1 5-3 2-4-5-4-1-3 0s-1 3-2 1-1 0-4-1l-4-3c-1-1 3-6-2-6-4 0-3-8-9-5-5 2-7-3-9-2-2 2-2-2-8-4l-8-3c-6-2-8-8-8-9-2 0-2 5-10 0-2-1-4-9-6-11-2-3 2-3 2-6l-1-4c0-1 4-3 1-3z"/><path d="M49 207c-2-3-3-1-2-2h-1l-2-1h-1v-1c-1 0-6 0-10 2 0 0-2 2-1 3 3 4-3 7 2 9 1 1 4 4 3 6 18 1 9 1 15-5l4-3-2-1c-2 1-1-2-2-2-3-1-2-4-3-5z"/><path d="M34 229zm1 0c0-4 6 4 8-2 1-6 2 0 4-4H37l-1 1c-3 2-2-1-3 4l1 1c0 4 1 2 1 0zM170 350c-2-2-3 2-8-1 1 2-3 5 2 5 5 1 0 5 1 7 2 4-2 1 13 4 12 3 8-5 19-7 16-2 10-9 19-5 3 0 4-1 9 5l4 2c1 2 1 0 3 0 4-2 0-2 1-4-1-2-1-4-4-3-4 0-4-3-5-3-5 3-2-2 0-3 3-1 1-2 1-3-1-6-5 2-5-1-1-4 7-3 3-4-2-1-1-4-3-3-9 1-6 5-11 3-4-2-4-1-5-3s-2-1-5 0l-5 4c-5 3-7 0-10 1-1 0-3 5-7 6-3 0-1 0-1 2s-5 1-6 1zM25 263l-2 1c1 1 1 7 4 4h1v-1-2l-1-2h-2zM24 249l-1-1c-1 0-2 0 0 3l1-2zM37 240l-3-1v6l-1 2s-1 3 3 1v-4c-1-1 0 0 1-2v-2zM23 192c0-1-4-7-7-8 0 2-3 4-1 6 2 3-3 3 4 3 3 1-3 1 2 5l5 4 1-1c3-1-2-4-2-4-4-5-3-2-2-5z"/><g><path d="M529 319c5-1 0-6-2-7l-3-2-1 1c-3 1 0 4-3 6v1c2 0 0 1 2 2h1l1 1 1 1 4-3zm-4-10l5 2 2-1c-1-2-2-1-5-3-6-3-6 0-4 1l2 1zM529 311c-3 0 1 2 2 1l-2-1z"/></g><g><path d="M476 379c-3 1-6 1-3 7 1 3-4 1-2 5 2 3-3 0-5 9l-1 9 6 1c0-3 2 3 3 2 3-2 2 1 5 4 2 4-2 3 3 10l2-1 2-2c1-1 10-7 8-8-1-1-3-1-1-3l4-2c2-1 3 4 4-1 1-2-1-2 1-3 4-1-1-3 4-5 3-1-2-2 1-4 2 0 9 1 4-1-4-2 1-1 1-3-1-4 1-1-2-4-1-2 4-2 1-5-2-2 5-1 0-3-3-1-1-4 1-2 4 2 5-4 7-5 2-2 0-1-2-2h3c-1-1-2-3-4-2-5 2-4 1-7-3-1-2-3 5-6 3-1-1-3 1-3-1l-2-6c0-6-2-3-4-4-4 3 1 3-3 3-1 1 0 2-3 2-3 1-2 4-5 1-1-2-4 4-5 4-2 1 0 1 0 4 0 0 2 4-2 6zm8 52c-1 2 2 0 0 0zm2-1c-3 1 1 1 0 0zm-4 0s3-2-1-1h-1c-1 1 1 1 2 1zm31-48c1 2 4-3 4-3l-1-1-3 4zm-1 3c0 2 1 0 2 0 1-1 0-1-1-1l-1 1zm0 16h-2s2 2 2 0zm1-7v4c1 1 2-2 2-3l-2-2v1zM488 424l-1 1c2 1 2-4 1-3v2z"/></g><g><path d="M398 476l-2 1c1 0 3 0 2-1zM396 468v2c2-1 0-2 0-3s2-1 1-2l-2 1-1 1 2 1z"/><path d="M454 413c-1 0-1 2-4 2-2 0-6 2-7-1l3-3c1-4 4-2 4-5v-1c-4-3-3 0-9 0l-1-2-1 1c-5 4-8-3-10 0-1 0-4 2-2 2v5c-3 2-2-5-10-3-1 0 0 7-3 6-1 2 3 5 0 7-3 1 3 2-3 6l-1 2c-6 4 0 10-5 13l-2 2c-1 0-4 0-5 2-1 3 3 1 0 3-3 3-6-1-4 3 1 5-6 1-6 4s-3 1-2 4c3 1 0 2 0 3l-1 3c0 3-2 1 1 5 2 6 2 3 3 5s1 3 4 2c5-2 1-5 0-7 0-3-4-2 0-5 2-1 2-7 3-3 1 3 2-1 3-1 3-1 4-2 7-1l4-1c4 0 0-6 3-3 1 1 3 1 2-1s1 0 2 0l2 1c2 0 3-6 3-3 0 6 4-1 5-1 5 4 1-4 2-6 1-1 0 7 3 4l3-2h1v-4c0-3-4-6 2-4 3 2 1 3 3 2l2 1 2-1h1c2-1 5 5 3 0-1-2 3-3 3-1l2 2c1-1 2-7 6-3 2 3 2-5 5-2 1 2 5-1 9-2 2 0 0-3 3-4 5-2-3-2-2-2 1-2 4 1 4-2l3-3c-5-7-1-6-3-10-3-3-2-6-5-4-1 1-3-5-3-2l-6-1c-1 1-2 2-1 4 0 0 1 2-1 2l-4-3-5 1zM486 424c-2 2 1 4 0 1v-1z"/><path d="M432 453c-1 0-3 1 0 1v-2 1zm1-2c-2 1 1 1 2 1l-2-1zm6 2l-3-4h-1l2 2c1 1 0 3 2 2zm-13 6l1-3h-1c-1 2-2 0-3 2 1 1 2-1 3 1z"/></g><g><path d="M447 451h-2 2zM445 452h-1c-1 2 2 0 1 0zM443 454v0zM446 446c-5 3-1 4 0 3l1-2-1-1zm-4 2c-1 0-4 1-1 1l1-1zm1-4s-3 6 3 2c2-2 0 0-1-2v-1l-2 1z"/></g><g><path d="M468 467v-1 1zM439 448c-4 2-1 3 0 2 0 0 0 1 0 0v-2zm-4 2h0zm2-3s-2 4 2 1h-1-1v-1z"/></g><g><path d="M1452 523h-1v1h-3l-1-1-1 1v1h-3v-1 2h-2l-1 1h-1l-1 4h-1l-1-1-1 1v1l-1 1v2h-1l-1 1v2l-1 1-1 1h-1l2 2h2l1 2h1v1l1 2v3l-1-1v-1l-1-1v-2l-2-2h-3v1l-2 2h-1l-1 1h-1l-2 1-2 1h-6l-1 1-1 1h-1l-1-1v-1l-2 1h-1l-4 2h-2l-2 2-1 1h-1l-5 2h-3v1h-1l-1 1-2 1-1 1h-1l-1 1-2 2-2 1v1l-1 1-1 2v4h-1l-1 1-1 2h-1l-2 4v2l-2 3-1 2v1l-1 1-1 1h-1l-2 4h-1l1 1v1h1v1l-1 1v4l-1 1v2l-1 1-3 1v1h-1v2l-1 1v1l-3 3h-1v1h1v1h1l1 1h-2l-2-1h-1l-2 1h-2l-1 1h-1l-1 3-1 1v1h1v1h-1l-1 1v1h-1l-1-1h-1l-1 1-1 1-4 13-1 1v1l-3 3v1l-1 2-2 1-1 1-1 1-4 6-1 2 1 1-1 1v1l-2 1-2 2v2h-1l1 1v1h-1l-1-1-1 1h-1v2h-1l-1 1 2 3v2l-1-1v-1 1h-1v-3l-1 1-1 3h1v1h1l1 1-1 1-1 3h-1l-1 2v2l-2 2-1 2-1 1h-2l1 1-1 2v1l-1 1v5h-1l-1 1-1 1-1 1v2h-1l-1 1h-1l-1 1-1 1-1 1-1 2v2h-1v2h-3v3h2l-2 4h-1v2h-1v2l-1 2h-1v2h-1v2h-1l-1 1-1 1v1h-1v3h-3v-1l-1 1-3 5h-1l-1 1-1 1v2l-1 1v1l1 1-1 2h-1v1l-1 1v1h-1v2h1l1 1-1 1-1 2-1 2v1l-1 1-1 4v4l1 1-1 1h-1v1l1 1 1 1h-1v2h1l1 2v1h-2v-1l-1 1-1 1h-1v4l1 1h4v1l-1 1v2l-1 1v1h2l-1 2v1h1v1l-1 1v1l1 1h1v3l-1 2h-2l-2 4v2l1 1h2v1-1h-4l-1 3v2h-1l2 1h1l-1 1-2 1v2l-1 1v2l-1-1-1 1v3l-2 4v2l-1 1v-1h2v4h1v3h-2l-1 1-2 1-1 1v4h1v4l1 1h1l1-1 1 1-1 1 3 1 1 1h1l2 2 1 1 2 2 2 2 1 1h1l1-1v1h-1v1h2l-1 1h-1v-1h-1l1 1v1h1l-1 5v1l1 1v2l2 3v1-2h1l1 3h-1l-1-1v2l1 1v3l5 9v3h1l2 5 2 3-1 1-2-2 2 3-2 2v2h-1l1 1 1 1v2h1v1h-1v1h1l1 2 1 1v1h1v1h1v1l1 2h1l-1 1h-1 3l1 2h1l1 2 6 5h1l1 1 2 1h1l-1-7 1-1v-1h1v1l-1 1v3l1 4h1l1 1v1h-1l1 1 2 2h2v1h1l1 1 2 1h1v1h1l1 1 4 2v1h1l5 4h1v3l3 2 2 3 1 1v3l1 2v2l1 2h1v1h1v2l2 2h-1v2l1 1 1 2v5h1v2h1v2l1 1v2h-1l-2 1v1h1v2h1l-1 1-1 1v1l-2 2v2h1v1h1v1l1 2 1 1 1 1-1 2v4h1v2l1 1h2v-1l1-1v-3h1v-1h2v1l2 1h2v1h2l1 1 2 1v1h1v1h1v1l1 1h1v-3h-1l-2-4v-6h1v-1h2l1-1 1-1v-1l1-1v-1l2-1v-1l-1-1v-6l1-2v-1l-1-1v-1l-1-2 1-1h1l-1-1v-3h1l-1-1v-4h1v-2l-1-1 1-1v-2l-1-7v-6l1-4 1-1 1-2v-1l2-5v-1l1-1v-1h1v-2l1-2v-2l1-2v-3l2-3v-2l1-1v-2l1-1 1-1 1-1 1-1v-1l1-1v-5l1-1 1-2v-1l1-1h2v-1h1l1-1 1-1h1v-1h2v-1h1l1-1h2l2-3h1v-1l1-1h1v-1h1l1-1 1-4h1l1-1 1-1-1-1v-2h-1v-1h1v-1l-1-1v-1l3-3h4v-1l1-1 1-1v-1l1-2 1-1 2-4v-1l1-1h1v-1l2-2v-2l1-2v-1l1-1 1-1v-1l1-3v-1l1-2 1-1v-2l1-1h2v-1l1-1 1-1h2v-1l-1-2v-5l-1-2v-4l1-1v-1l1 1 1-1h1l-1-1 1-3v-2l1-2v-2l1-1 1-2h2l1-1v-5l1-2 1-5 1-1v-1l1-4v-2h1v-2h-1v-1h2v-6h-1v-2h1v-4l1-1v-1l1-1v-3l1-1v-6l1-2h1l-1-1v-1h1v-4l1-1v-1h-1v-3h1l2-3v-8l1-2 1-1v-1l1-2v-2l1-2v-2h1v-7h1l-1-3v-3h1v-1h2l1-1h-1l1-1v-2h1v-2l-3-4v-1l-1-1v-5l1-1 2-2 2-2 1-1 1-3-1-2v-4l2-2 1-1h1l1-2h2l1-3h2v-1h1v-1l1-1v-2l1-2 1-1v-1h1v-5l1-2v-1l1-1v-5l1-1v-3l1-1v-1l2-1 1-1v-1l2-2 2-1h1l-1-1v-1l-2-1v-2l1-1v-1h2l1-1h1v-3h-1v-2h1l-1-1 1-1v-1l-1-1-1-1v-1h1l1 1h1l-2-2h-1v-1l-1-1-2-4v-9l-1-2h-1v-2l-1-1v-10l1-1v-4l1-2 1-1v-1h1v-2h1v-1l2-2h1l1-2v-2l2-1 1-1h1l1-2v-1h2l1-1h1v-1h1l2-1h1l1-1h1v-1h1v-2h-2v-1h-1l-1-1h-1v1h-3l-2-2v-4l-2-2v-3l1-1v-2h-1 1v-2h-1l-1 1h-8l-2-1v1h-2v-2h1-3v-2h-1l-1 1-1-1h-1v-1h-3 1v2l-2 1 1-1h-1v-2h-2l-1-1h-2v-2h-2v-1h-1v-1l1-1v-1l1-1v-1l-2 2h-3l-2-2v-1h1l-1-1h-1l-1-1v-3l-1-1-2-2h-1l-1-1-1-1h-1v-1h-1z" fill="#b3b4c1" stroke="#b3b3b3" stroke-width=".344" transform="matrix(.0988 0 0 .09211 397.372 347.704)"/></g></svg>