<svg width="1024" height="1024" xmlns="http://www.w3.org/2000/svg" class="icon">

 <g>
  <title>background</title>
  <rect fill="none" id="canvas_background" height="402" width="582" y="-1" x="-1"/>
 </g>
 <g>
  <title>Layer 1</title>
  <path stroke="null" id="svg_1" d="m326.714284,728.166682c0,33.969048 27.792857,61.761905 61.761905,61.761905l247.04762,0c33.969048,0 61.761905,-27.792857 61.761905,-61.761905l0,-370.57143l-370.57143,0l0,370.57143zm76.121548,-219.872382l43.696548,-43.696548l65.467619,65.467619l65.467619,-65.467619l43.696548,43.696548l-65.46762,65.467619l65.46762,65.46762l-43.696548,43.696548l-65.467619,-65.467619l-65.467619,65.467619l-43.696548,-43.696548l65.46762,-65.46762l-65.46762,-65.467619zm217.247501,-243.341905l-30.880952,-30.880953l-154.404763,0l-30.880952,30.880953l-108.083334,0l0,61.761905l432.333335,0l0,-61.761905l-108.083334,0z"/>
 </g>
</svg>