<svg xmlns="http://www.w3.org/2000/svg" width="200" height="200" class="icon" p-id="7234" t="1617182768263" version="1.1" viewBox="0 0 1024 1024"><path d="M981.33 682.67h-42.67v-512h42.67c23.56 0 42.67-19.1 42.67-42.67s-19.1-42.67-42.67-42.67H42.67C19.1 85.33 0 104.44 0 128s19.1 42.67 42.67 42.67h42.67v512H42.67C19.1 682.67 0 701.77 0 725.33S19.1 768 42.67 768h272.29l-75.79 151.58c-10.54 21.08-2 46.71 19.08 57.25a42.54 42.54 0 0 0 19.04 4.51c15.67 0 30.73-8.65 38.21-23.59L410.38 768h58.96v128c0 23.56 19.1 42.67 42.67 42.67s42.67-19.1 42.67-42.67V768h58.96l94.88 189.75c7.48 14.95 22.54 23.59 38.21 23.59 6.4 0 12.92-1.45 19.04-4.51 21.08-10.54 29.62-36.17 19.08-57.25L709.04 768h272.29c23.56 0 42.67-19.1 42.67-42.67s-19.1-42.66-42.67-42.66z m-810.66 0v-512h682.67v512H170.67z" p-id="7235"/><path d="M641.83 343.17l-76.5 76.49-76.5-76.49c-16.67-16.67-43.67-16.67-60.33 0L321.83 449.83c-16.67 16.66-16.67 43.68 0 60.33 16.67 16.67 43.67 16.67 60.33 0l76.5-76.49 76.5 76.49c8.33 8.33 19.25 12.5 30.17 12.5 10.92 0 21.83-4.17 30.17-12.5L702.17 403.5c16.67-16.66 16.67-43.68 0-60.33-16.67-16.67-43.67-16.67-60.34 0z" p-id="7236"/></svg>