<svg enable-background="new 0 0 512.002 512.002" height="512" viewBox="0 0 512.002 512.002" width="512" xmlns="http://www.w3.org/2000/svg">
    <g>
        <g>
            <path d="m256.001 56.267c5.523 0 10-4.478 10-10v-36.267c0-5.522-4.477-10-10-10s-10 4.478-10 10v36.267c0 5.522 4.478 10 10 10z" />
            <path d="m100.625 114.768c1.953 1.952 4.512 2.929 7.071 2.929s5.119-.977 7.071-2.929c3.905-3.905 3.905-10.237 0-14.143l-25.643-25.644c-3.905-3.904-10.237-3.904-14.143 0-3.905 3.905-3.905 10.237 0 14.143z" />
            <path d="m158.09 172.233c1.953 1.952 4.512 2.929 7.071 2.929s5.119-.977 7.071-2.929c3.905-3.905 3.905-10.237 0-14.143l-25.645-25.645c-3.905-3.904-10.237-3.904-14.143 0-3.905 3.905-3.905 10.237 0 14.143z" />
            <path d="m46.267 246.001h-36.267c-5.523 0-10 4.478-10 10s4.477 10 10 10h36.267c5.523 0 10-4.478 10-10s-4.477-10-10-10z" />
            <path d="m172.232 339.77c-3.905-3.904-10.237-3.904-14.143 0l-25.645 25.645c-3.905 3.905-3.905 10.237 0 14.143 1.953 1.952 4.512 2.929 7.071 2.929s5.119-.977 7.071-2.929l25.645-25.645c3.907-3.906 3.907-10.238.001-14.143z" />
            <path d="m100.625 397.235-25.645 25.645c-3.905 3.905-3.905 10.237 0 14.143 1.953 1.952 4.512 2.929 7.071 2.929s5.119-.977 7.071-2.929l25.645-25.645c3.905-3.905 3.905-10.237 0-14.143-3.904-3.905-10.236-3.905-14.142 0z" />
            <path d="m256.001 455.736c-5.523 0-10 4.478-10 10v36.267c0 5.522 4.477 10 10 10s10-4.478 10-10v-36.267c0-5.523-4.477-10-10-10z" />
            <path d="m353.913 339.77c-3.905-3.904-10.237-3.904-14.143 0-3.905 3.905-3.905 10.237 0 14.143l25.645 25.645c1.953 1.952 4.512 2.929 7.071 2.929s5.119-.977 7.071-2.929c3.905-3.905 3.905-10.237 0-14.143z" />
            <path d="m411.377 397.235c-3.905-3.904-10.237-3.904-14.143 0-3.905 3.905-3.905 10.237 0 14.143l25.645 25.645c1.953 1.952 4.512 2.929 7.071 2.929s5.119-.977 7.071-2.929c3.905-3.905 3.905-10.237 0-14.143z" />
            <path d="m502.002 246.001h-36.267c-5.523 0-10 4.478-10 10s4.477 10 10 10h36.267c5.523 0 10-4.478 10-10s-4.477-10-10-10z" />
            <path d="m339.77 172.233c1.953 1.952 4.512 2.929 7.071 2.929s5.119-.977 7.071-2.929l25.645-25.645c3.905-3.905 3.905-10.237 0-14.143-3.905-3.904-10.237-3.904-14.143 0l-25.644 25.645c-3.905 3.905-3.905 10.237 0 14.143z" />
            <path d="m404.306 117.697c2.559 0 5.119-.977 7.071-2.929l25.645-25.645c3.905-3.905 3.905-10.237 0-14.143-3.905-3.904-10.237-3.904-14.143 0l-25.645 25.645c-3.905 3.905-3.905 10.237 0 14.143 1.953 1.952 4.513 2.929 7.072 2.929z" />
            <path d="m169.844 74.131 17.132 41.36c1.595 3.851 5.318 6.176 9.243 6.176 1.275 0 2.572-.246 3.823-.764 5.103-2.114 7.526-7.964 5.412-13.066l-17.132-41.36c-2.113-5.102-7.964-7.522-13.065-5.412-5.103 2.114-7.527 7.964-5.413 13.066z" />
            <path d="m161.864 38.736c1.116 0 2.251-.188 3.363-.585 5.201-1.858 7.912-7.58 6.054-12.781l-.002-.007c-1.857-5.2-7.575-7.908-12.78-6.051-5.201 1.857-7.91 7.583-6.053 12.784 1.46 4.09 5.31 6.64 9.418 6.64z" />
            <path d="m66.478 188.323 41.36 17.132c1.251.518 2.547.764 3.823.764 3.924 0 7.647-2.325 9.243-6.176 2.114-5.103-.31-10.952-5.412-13.066l-41.36-17.132c-5.101-2.109-10.952.311-13.065 5.412-2.115 5.102.308 10.951 5.411 13.066z" />
            <path d="m24.542 170.944c1.357.626 2.782.923 4.184.923 3.78 0 7.398-2.155 9.086-5.813 2.314-5.015.125-10.956-4.889-13.271l-.006-.003c-5.015-2.314-10.953-.124-13.267 4.891s-.123 10.958 4.892 13.273z" />
            <path d="m24.542 341.059-.006.003c-5.015 2.314-7.201 8.255-4.886 13.27 1.688 3.657 5.307 5.811 9.087 5.811 1.403 0 2.829-.297 4.186-.923 5.015-2.314 7.204-8.256 4.889-13.271-2.314-5.016-8.257-7.205-13.27-4.89z" />
            <path d="m107.838 306.548-41.36 17.132c-5.103 2.114-7.526 7.964-5.412 13.066 1.595 3.851 5.318 6.176 9.243 6.176 1.275 0 2.572-.246 3.823-.764l41.36-17.132c5.103-2.114 7.526-7.964 5.412-13.066-2.115-5.102-7.967-7.523-13.066-5.412z" />
            <path d="m165.227 473.852c-5.202-1.854-10.923.854-12.781 6.055l-.002.007c-1.857 5.201.854 10.92 6.055 12.777 1.111.396 2.245.585 3.361.585 4.108 0 7.96-2.553 9.421-6.643 1.857-5.201-.853-10.923-6.054-12.781z" />
            <path d="m200.042 391.099c-5.102-2.108-10.952.31-13.065 5.412l-17.132 41.36c-2.114 5.103.31 10.952 5.412 13.066 1.251.518 2.547.764 3.823.764 3.924 0 7.648-2.325 9.243-6.176l17.132-41.36c2.112-5.102-.311-10.952-5.413-13.066z" />
            <path d="m342.158 437.871-17.132-41.36c-2.113-5.102-7.963-7.523-13.065-5.412-5.103 2.114-7.526 7.964-5.412 13.066l17.132 41.36c1.595 3.851 5.318 6.176 9.243 6.176 1.275 0 2.572-.246 3.823-.764 5.102-2.114 7.525-7.963 5.411-13.066z" />
            <path d="m346.776 473.852c-5.201 1.858-7.912 7.58-6.054 12.781l.002.007c1.46 4.089 5.308 6.637 9.415 6.637 1.117 0 2.253-.188 3.365-.586 5.201-1.857 7.91-7.583 6.053-12.784s-7.582-7.911-12.781-6.055z" />
            <path d="m487.209 340.948c-5.076-2.177-10.955.176-13.131 5.252s.176 10.955 5.252 13.131l.007.003c1.284.551 2.619.811 3.933.811 3.879 0 7.569-2.272 9.194-6.064 2.177-5.078-.178-10.958-5.255-13.133z" />
            <path d="m445.525 323.68-41.36-17.132c-5.102-2.108-10.951.311-13.065 5.412-2.114 5.103.31 10.952 5.412 13.066l41.36 17.132c1.251.518 2.547.764 3.823.764 3.924 0 7.648-2.325 9.243-6.176 2.113-5.102-.311-10.952-5.413-13.066z" />
            <path d="m483.275 171.866c1.314 0 2.65-.261 3.935-.812l.006-.003c5.077-2.176 7.425-8.053 5.249-13.129-2.176-5.077-8.059-7.428-13.134-5.251-5.076 2.176-7.428 8.055-5.252 13.131 1.625 3.793 5.316 6.064 9.196 6.064z" />
            <path d="m437.872 169.844-41.36 17.132c-5.103 2.114-7.526 7.964-5.412 13.066 1.595 3.851 5.318 6.176 9.243 6.176 1.275 0 2.572-.246 3.823-.764l41.36-17.132c5.103-2.114 7.526-7.964 5.412-13.066-2.115-5.101-7.965-7.522-13.066-5.412z" />
            <path d="m311.961 120.904c1.251.518 2.547.764 3.823.764 3.924 0 7.647-2.325 9.243-6.176l17.132-41.36c2.114-5.103-.31-10.952-5.412-13.066-5.1-2.109-10.951.31-13.065 5.412l-17.132 41.36c-2.115 5.102.308 10.951 5.411 13.066z" />
            <path d="m346.776 38.151c1.112.396 2.247.585 3.363.585 4.107 0 7.958-2.55 9.418-6.64l.002-.007c1.857-5.201-.854-10.92-6.055-12.777-5.2-1.854-10.924.856-12.782 6.058-1.858 5.201.853 10.922 6.054 12.781z" />
            <path d="m385.698 266.001h35.037c5.523 0 10-4.478 10-10s-4.477-10-10-10h-35.037l-95.757-23.939-23.939-95.761v-35.034c0-5.522-4.477-10-10-10s-10 4.478-10 10v35.034l-23.94 95.761-95.757 23.939h-35.038c-5.523 0-10 4.478-10 10s4.477 10 10 10h35.037l95.757 23.939 23.94 95.76v35.035c0 5.522 4.477 10 10 10s10-4.478 10-10v-35.035l23.939-95.76zm-113.705 13.268-15.992 63.969-15.992-63.969c-.896-3.582-3.693-6.38-7.276-7.275l-63.967-15.992 63.967-15.992c3.583-.896 6.38-3.693 7.276-7.275l15.992-63.969 15.992 63.969c.896 3.582 3.693 6.38 7.276 7.275l63.967 15.992-63.967 15.992c-3.582.895-6.38 3.693-7.276 7.275z" />
        </g>
    </g>
</svg>