<svg t="1617182320913" class="icon" viewBox="0 0 1024 1024" version="1.1" xmlns="http://www.w3.org/2000/svg" p-id="2037" width="200" height="200">
    <path d="M1000.959185 767.99872a170.666382 170.666382 0 0 0-312.319479 40.959932 116.906472 116.906472 0 0 0-5.973324 23.893293H111.787334V565.759057h885.758523V105.813157H327.680307A109.226485 109.226485 0 0 0 318.293656 85.333191a170.666382 170.666382 0 0 0-312.319479 40.959932A170.666382 170.666382 0 0 0 23.040815 255.999573a170.666382 170.666382 0 0 0 103.253161 79.359868A158.719735 158.719735 0 0 0 170.667236 341.332764a170.666382 170.666382 0 0 0 85.333191-23.039961 170.666382 170.666382 0 0 0 85.333191-127.146455h572.585712v289.279518H26.454143v437.75927h669.86555a109.226485 109.226485 0 0 0 9.386651 20.479966 170.666382 170.666382 0 0 0 103.253161 79.359868A162.986395 162.986395 0 0 0 853.332764 1023.998293a170.666382 170.666382 0 0 0 85.333192-23.039961A170.666382 170.666382 0 0 0 1000.959185 767.99872zM213.333831 244.906258a85.333191 85.333191 0 0 1-116.906472-31.57328A89.599851 89.599851 0 0 1 85.334044 148.479753a85.333191 85.333191 0 0 1 40.1066-52.053247 85.589191 85.589191 0 1 1 85.333191 148.479752z m682.665529 682.665529A85.333191 85.333191 0 0 1 767.999573 831.145281a85.333191 85.333191 0 0 1 39.253268-52.053246A85.333191 85.333191 0 0 1 853.332764 767.99872a98.13317 98.13317 0 0 1 22.18663 0 85.333191 85.333191 0 0 1 52.053247 40.1066 85.333191 85.333191 0 0 1-31.573281 119.466467z" p-id="2038"></path>
</svg>