<svg xmlns="http://www.w3.org/2000/svg" width="200" height="200" class="icon" p-id="5682" t="1617182638423" version="1.1" viewBox="0 0 1024 1024"><path d="M690.70866 422.686858l133.912919 89.289606-133.912919 89.333608 0-44.667316-134.042879 0 0 134.044926 44.623313 0-89.289606 133.954875-89.289606-133.954875 44.621267 0L467.331149 556.642756l-134.042879 0 0 44.667316L199.333396 511.976464l133.954875-89.289606 0 44.665269 134.042879 0 0-134.042879-44.621267 0 89.289606-133.954875 89.289606 133.954875-44.623313 0 0 134.042879 134.042879 0L690.70866 422.686858zM958.70846 244.020666l0 535.956621c0 98.623181-80.08599 178.709171-178.711218 178.709171L243.998665 958.686459c-98.711186 0-178.709171-80.08599-178.709171-178.709171L65.289494 244.020666c0-98.755188 79.997985-178.709171 178.709171-178.709171l535.998577 0C878.62247 65.311495 958.70846 145.265478 958.70846 244.020666zM869.286848 288.643979c0-73.979922-59.932997-134.042879-133.954875-134.042879L288.664957 154.6011c-74.021877 0-133.954875 60.062957-133.954875 134.042879l0 446.709995c0 73.979922 59.932997 133.956921 133.954875 133.956921l446.667016 0c74.021877 0 133.954875-59.977 133.954875-133.956921L869.286848 288.643979z" p-id="5683"/></svg>