<svg width="1024" height="1024" xmlns="http://www.w3.org/2000/svg" class="icon">

 <g>
  <title>background</title>
  <rect fill="none" id="canvas_background" height="402" width="582" y="-1" x="-1"/>
 </g>
 <g>
  <title>Layer 1</title>
  <path stroke="null" id="svg_1" d="m744.601454,651.560893c-0.508816,0 -0.974019,0.145377 -1.482834,0.145377l-56.987361,-94.959553c7.370559,-13.330973 11.949901,-28.435531 11.949901,-44.746709s-4.564804,-31.415738 -11.949901,-44.746709l56.987361,-94.959553c0.508816,0.014538 0.974019,0.145376 1.482834,0.145376c51.390389,0 93.040591,-41.650202 93.040591,-93.040591s-41.650202,-93.040591 -93.040591,-93.040591c-34.35233,0 -64.023556,18.826182 -80.131208,46.520296l-304.940537,0c-16.107652,-27.694114 -45.778878,-46.520296 -80.131209,-46.520296c-51.390388,0 -93.040591,41.650202 -93.040591,93.040591c0,34.352331 18.826182,64.023557 46.520296,80.131209l0,304.926c-27.694114,16.12219 -46.520296,45.793416 -46.520296,80.145746c0,51.390389 41.650203,93.040591 93.040591,93.040591c34.352331,0 64.023557,-18.826182 80.131209,-46.520295l304.926,0c16.12219,27.694113 45.778878,46.520295 80.131208,46.520295c51.390389,0 93.040591,-41.650202 93.040591,-93.040591c0.014538,-51.390388 -41.635664,-93.040591 -93.026053,-93.040591zm-418.682659,12.909383l0,-304.940537a92.786183,92.786183 0 0 0 33.610913,-33.610913l302.905274,0l-55.91158,93.185967c-0.508816,-0.014538 -0.974019,-0.145376 -1.482834,-0.145376c-51.390389,0 -93.040591,41.650202 -93.040591,93.040591s41.650202,93.040591 93.040591,93.040591c0.508816,0 0.974019,-0.145377 1.482834,-0.145377l55.91158,93.185968l-302.905274,0a92.674244,92.674244 0 0 0 -33.610913,-33.610913zm255.861626,-152.470269c0,-12.822156 10.437991,-23.260148 23.260148,-23.260148s23.260148,10.437991 23.260148,23.260148s-10.437991,23.260148 -23.260148,23.260148s-23.260148,-10.437991 -23.260148,-23.260148zm-69.780444,-80.131209c0,12.822156 -10.437991,23.260148 -23.260148,23.260148s-23.260148,-10.437991 -23.260148,-23.260148s10.437991,-23.260148 23.260148,-23.260148s23.260148,10.437991 23.260148,23.260148zm302.381921,255.861626c-12.822156,0 -23.260148,-10.437991 -23.260148,-23.260148s10.437991,-23.260148 23.260148,-23.260148s23.260148,10.437991 23.260148,23.260148s-10.437991,23.260148 -23.260148,23.260148z"/>
 </g>
</svg>