<svg width="507.52" height="507.52" xmlns="http://www.w3.org/2000/svg">
    <g stroke="null" id="svg_1">
        <path stroke="null" id="svg_2" d="m359.996703,199.507251l81.430305,128.927051l0,-166.49452l-81.430305,37.567469z" />
        <path stroke="null" id="svg_3" d="m225.388469,65.73472l-149.911604,85.678397l80.816123,33.67765l69.095482,-119.356047z" />
        <path stroke="null" id="svg_4" d="m159.415079,212.626596l-86.787604,137.406442l166.340974,7.233433l-79.553371,-144.639875z" />
        <path stroke="null" id="svg_5" d="m332.801554,187.30918l-79.024758,-136.485169l-0.033588,0l-79.024758,136.485169l158.083105,0z" />
        <path stroke="null" id="svg_6" d="m428.222094,149.229892l-146.09056,-83.495172l68.941936,119.100138l77.148624,-35.604966z" />
        <path stroke="null" id="svg_7" d="m66.092994,165.983147l0,162.451155l81.225577,-128.603166l-81.225577,-33.847989z" />
        <path stroke="null" id="svg_8" d="m245.229428,456.695989l0,-82.112463l-155.490425,-6.739209l155.490425,88.851671z" />
        <path stroke="null" id="svg_9" d="m268.534758,357.300859l166.357769,-7.267821l-86.787604,-137.406442l-79.570165,144.674263z" />
        <path stroke="null" id="svg_10" d="m262.290574,456.695989l155.472831,-88.851671l-155.472831,6.772797l0,82.078875z" />
        <path stroke="null" id="svg_11" d="m174.360176,204.369526l79.399825,144.367172l79.399825,-144.367172l-158.799651,0z" />
    </g>
</svg>