<svg width="466.85" height="466.85" xmlns="http://www.w3.org/2000/svg">
    <g>
        <g stroke="null" id="svg_5">
            <g stroke="null" id="svg_1">
                <path stroke="null" stroke-width="15" id="svg_2" d="m455.63298,192.7923l-90.575289,-90.575289c-2.956014,-2.956014 -7.731113,-2.956014 -10.687126,0l-248.153555,248.153555c-2.956014,2.956014 -2.956014,7.731113 0,10.687126l90.575289,90.575289c2.956014,2.956014 7.731113,2.956014 10.687126,0l248.153555,-248.153555c2.956014,-2.956014 2.956014,-7.731113 0,-10.687126zm-253.535015,242.772094l-79.812368,-79.812368l59.95402,-59.95402l27.210484,27.210484c2.880218,3.031809 7.731113,3.107604 10.687126,0.15159c3.031809,-2.880218 3.107604,-7.731113 0.15159,-10.687126c-0.075795,-0.075795 -0.075795,-0.075795 -0.15159,-0.15159l-27.210484,-27.134689l19.782553,-19.782553l42.445324,42.445324c2.956014,2.956014 7.806908,2.956014 10.687126,-0.075795c2.956014,-2.956014 2.956014,-7.731113 0,-10.687126l-42.445324,-42.445324l19.782553,-19.782553l27.210484,27.134689c2.956014,2.956014 7.731113,2.956014 10.687126,0c2.956014,-2.956014 2.956014,-7.731113 0,-10.687126l-27.210484,-27.134689l19.782553,-19.782553l42.445324,42.445324c2.956014,2.956014 7.731113,2.956014 10.687126,0c2.956014,-2.956014 2.956014,-7.731113 0,-10.687126l-42.445324,-42.445324l19.782553,-19.782553l27.210484,27.210484c2.956014,2.956014 7.731113,3.031809 10.687126,0.075795c2.956014,-2.956014 3.031809,-7.731113 0.075795,-10.687126c0,0 0,0 -0.075795,-0.075795l-26.983099,-27.43787l19.782553,-19.782553l42.445324,42.445324c2.956014,2.956014 7.731113,2.956014 10.687126,0c2.956014,-2.956014 2.956014,-7.731113 0,-10.687126l-42.445324,-42.445324l14.249502,-14.249502l79.812368,79.812368l-237.466428,237.466428z" />
            </g>
            <g stroke="null" id="svg_3">
                <path stroke="null" id="svg_4" d="m208.085788,346.580804c-9.550198,-9.474403 -24.936628,-9.474403 -34.41103,0c-9.474403,9.550198 -9.474403,24.936628 0,34.41103s24.936628,9.474403 34.41103,0s9.474403,-24.860833 0,-34.41103zm-9.929174,23.496519c-0.15159,0.15159 -0.378976,0.378976 -0.833747,0.303181c-3.562375,3.562375 -9.398607,3.562375 -13.036778,0c-3.562375,-3.562375 -3.562375,-9.398607 0,-13.036778c3.562375,-3.562375 9.398607,-3.562375 13.036778,0c3.713966,3.410785 4.244532,9.019631 0.833747,12.733597z" />
            </g>
        </g>
        <circle cx="173.924988" cy="169.878128" r="80" stroke="black" stroke-width="2" />
    </g>
</svg>