<svg xmlns="http://www.w3.org/2000/svg" width="200" height="200" class="icon" p-id="4945" t="1617182592572" version="1.1" viewBox="0 0 1024 1024"><path d="M932.571429 54.857143H91.428571c-20.228571 0-36.571429 16.342857-36.571428 36.571428v841.142858c0 20.228571 16.342857 36.571429 36.571428 36.571428h411.428572c5.028571 0 9.142857-4.114286 9.142857-9.142857v-64c0-5.028571-4.114286-9.142857-9.142857-9.142857H137.142857V137.142857h749.714286v365.714286c0 5.028571 4.114286 9.142857 9.142857 9.142857h64c5.028571 0 9.142857-4.114286 9.142857-9.142857V91.428571c0-20.228571-16.342857-36.571429-36.571428-36.571428zM673.485714 611.885714l59.657143-59.657143a9.154286 9.154286 0 0 0-5.371428-15.542857l-205.028572-24c-5.828571-0.685714-10.857143 4.228571-10.171428 10.171429l24 205.028571c0.914286 7.542857 10.171429 10.742857 15.542857 5.371429l59.885714-59.885714 292.8 292.8c3.542857 3.542857 9.371429 3.542857 12.914286 0l48.457143-48.457143c3.542857-3.542857 3.542857-9.371429 0-12.914286L673.485714 611.885714z" p-id="4946"/></svg>