<svg width="1024" height="1024" xmlns="http://www.w3.org/2000/svg" class="icon">

 <g>
  <title>background</title>
  <rect fill="none" id="canvas_background" height="402" width="582" y="-1" x="-1"/>
 </g>
 <g>
  <title>Layer 1</title>
  <path stroke-width="4" stroke="null" id="svg_1" d="m836.628496,159.142917l-649.257013,0c-15.613925,0 -28.228566,12.61464 -28.228565,28.228565l0,649.257013c0,15.613925 12.61464,28.228566 28.228565,28.228565l317.571365,0c3.881427,0 7.057141,-3.175714 7.057141,-7.057141l0,-49.39999c0,-3.881427 -3.175714,-7.057141 -7.057141,-7.057141l-282.285658,0l0,-578.685598l578.685598,0l0,282.285658c0,3.881427 3.175714,7.057141 7.057141,7.057141l49.39999,0c3.881427,0 7.057141,-3.175714 7.057141,-7.057141l0,-317.571365c0,-15.613925 -12.61464,-28.228566 -28.228565,-28.228565zm-199.981746,429.956342l46.047848,-46.047848a7.065963,7.065963 0 0 0 -4.14607,-11.99714l-158.256397,-18.524996c-4.498927,-0.529285 -8.380356,3.263928 -7.851069,7.85107l18.524996,158.256396c0.705714,5.822142 7.85107,8.292141 11.99714,4.146071l46.224276,-46.224276l226.004955,226.004955c2.734642,2.734642 7.23357,2.734642 9.968213,0l37.40285,-37.40285c2.734642,-2.734642 2.734642,-7.23357 0,-9.968213l-225.916741,-226.093169z"/>
 </g>
</svg>