<svg height="512" viewBox="0 0 56 56" width="512" xmlns="http://www.w3.org/2000/svg">
    <g fill-rule="nonzero">
        <path id="Shape" d="m29 34.586 19.325-19.325c-.5297519-.8449956-1.1115414-1.656228-1.742-2.429l-17.583 17.582z" />
        <path id="Shape" d="m43.072 9.342-14.072 14.072v4.172l16.249-16.249c-.6843585-.708717-1.4113796-1.37495826-2.177-1.995z" />
        <path id="Shape" d="m29 4.025v2.561l2.347-2.348c-.7706667-.108-1.553-.179-2.347-.213z" />
        <path id="Shape" d="m33.72 4.694-4.72 4.72v4.172l7.877-7.877c-1.0274087-.41144953-2.0823109-.75060877-3.157-1.015z" />
        <path id="Shape" d="m38.824 6.59-9.824 9.824v4.172l12.451-12.451c-.8419277-.57032897-1.7193756-1.08637655-2.627-1.545z" />
        <path id="Shape" d="m50.13 37.284-12.846 12.846c5.7916001-2.4455689 10.4004311-7.0543999 12.846-12.846z" />
        <path id="Shape" d="m29 51.975c1.3956594-.0579468 2.7835954-.2376289 4.148-.537l18.29-18.29c.3399548-1.5521458.5245318-3.1342819.551-4.723l-22.989 22.989z" />
        <path id="Shape" d="m28 0c-15.463973 0-28 12.536027-28 28s12.536027 28 28 28 28-12.536027 28-28c-.0176345-15.4566626-12.5433374-27.98236546-28-28zm0 54c-11.8816657.0033591-22.25398152-8.0483583-25.19709375-19.5597475-2.94311223-11.5113892 2.29184517-23.5534119 12.71709375-29.2532525.3143674-.1874783.7060436-.18822446 1.021123-.00194528s.5032111.52981555.4904705.89561967c-.0127405.36580411-.2243175.69541903-.5515935.85932561-9.45751399 5.1733197-14.30534995 16.017707-11.85320515 26.5150778 2.45214479 10.4973708 11.60254985 18.0718238 22.37320515 18.5199222v-47.94c-1.9440946.07440364-3.8719201.38501828-5.741.925-.5264851.14377662-1.071013-.16112975-1.2235754-.68513639-.1525623-.52400665.1431938-1.07355821.6645754-1.23486361 9.7641315-2.84786048 20.2923037.25924178 26.9455851 7.952253 6.6532814 7.6930111 8.2098555 18.5591775 3.9838633 27.8106403-4.2259921 9.2514629-13.4584842 15.1892725-23.6294484 15.1971067z" />
        <path id="Shape" d="m29 41.586 21.614-21.614c-.3559729-.9967929-.7775618-1.9689196-1.262-2.91l-20.352 20.352z" />
        <path id="Shape" d="m29 48.586 22.887-22.886c-.1143719-1.1998238-.3196279-2.3892386-.614-3.558l-22.273 22.272z" />
    </g>
</svg>