<?xml version="1.0" encoding="iso-8859-1"?>
<svg version="1.1" id="Capa_1" xmlns="http://www.w3.org/2000/svg" xmlns:xlink="http://www.w3.org/1999/xlink" x="0px" y="0px" viewBox="0 0 512 512" style="enable-background:new 0 0 512 512;" xml:space="preserve">
	<g>
		<path d="M506.24,243.712l-96-80c-4.768-3.968-11.424-4.8-17.024-2.176C387.584,164.128,384,169.792,384,176v64h-64V16
			c0-8.832-7.168-16-16-16c-8.832,0-16,7.168-16,16v480c0,8.832,7.168,16,16,16c8.832,0,16-7.168,16-16V272h64v64
			c0,6.208,3.584,11.84,9.216,14.496c2.144,0.992,4.48,1.504,6.784,1.504c3.68,0,7.328-1.248,10.24-3.712l96-80
			c3.68-3.04,5.76-7.552,5.76-12.288C512,251.264,509.92,246.752,506.24,243.712z" />
	</g>
	<g>
		<path d="M208,0c-8.832,0-16,7.168-16,16v224h-64v-64c0-6.208-3.584-11.872-9.216-14.496c-5.568-2.592-12.256-1.76-17.024,2.208
			l-96,80C2.112,246.752,0,251.264,0,256c0,4.736,2.112,9.248,5.76,12.288l96,80c2.912,2.464,6.56,3.712,10.24,3.712
			c2.304,0,4.64-0.512,6.784-1.504C124.416,347.84,128,342.208,128,336v-64h64v224c0,8.832,7.168,16,16,16c8.832,0,16-7.168,16-16
			V16C224,7.168,216.832,0,208,0z" />
	</g>
</svg>