<svg xmlns="http://www.w3.org/2000/svg" width="200" height="200" class="icon" p-id="4195" t="1617182486879" version="1.1" viewBox="0 0 1024 1024"><path d="M256 170.666667h512a85.333333 85.333333 0 0 1 85.333333 85.333333v512a85.333333 85.333333 0 0 1-85.333333 85.333333H256a85.333333 85.333333 0 0 1-85.333333-85.333333V256a85.333333 85.333333 0 0 1 85.333333-85.333333z m298.666667 384v213.333333h213.333333v-213.333333h-213.333333z m-298.666667 0v213.333333h213.333333v-213.333333H256z m298.666667-298.666667v213.333333h213.333333V256h-213.333333zM256 256v213.333333h213.333333V256H256z" p-id="4196"/></svg>